<svg width="151" height="22" viewBox="0 0 151 22" fill="none" xmlns="http://www.w3.org/2000/svg">
<path d="M32.2664 7.97976C32.2664 9.4622 32.6925 10.6516 33.5448 11.5458C34.3972 12.4422 35.1892 12.9636 35.9253 13.1123C35.9791 13.123 36.005 13.1424 36.005 13.1683C36.005 13.1942 35.9942 13.22 35.9727 13.2394L34.9826 14.39C34.3326 14.209 33.6352 13.8233 32.8905 13.2308C32.1458 12.6382 31.6443 12.0285 31.3882 11.3993C31.3667 11.3346 31.3301 11.3023 31.2763 11.3023C31.2225 11.3023 31.1794 11.3346 31.1493 11.3993C30.8824 12.0285 30.3831 12.6382 29.647 13.2308C28.913 13.8233 28.2135 14.209 27.5549 14.39L26.5648 13.2394C26.5433 13.2179 26.5347 13.1942 26.5412 13.1683C26.5455 13.1424 26.5713 13.123 26.6122 13.1123C27.3677 12.9313 28.1662 12.4012 29.0077 11.5221C29.8493 10.643 30.269 9.4622 30.269 7.97976V6.10948C30.269 5.93925 30.213 5.78627 30.1011 5.65483C29.9892 5.52124 29.8213 5.45444 29.5975 5.45444H29.3091V4.67013H32.2642V7.97976H32.2664ZM37.5848 8.47534H34.0549V9.96209H37.5848V18.6628H39.4853V3.95046H36.6248V4.74985H36.9434C37.1565 4.74985 37.3157 4.82527 37.4233 4.97394C37.5288 5.12262 37.5826 5.27776 37.5826 5.43721V8.47534H37.5848Z" fill="white"/>
<path d="M55.6342 12.0263V10.6193H50.983C51.166 10.5029 51.3425 10.378 51.5104 10.2336C52.3412 9.51822 52.7566 8.64988 52.7566 7.6307C52.7566 6.61152 52.3412 5.74317 51.5104 5.02781C50.6796 4.31245 49.6766 3.95261 48.5014 3.95261C47.3262 3.95261 46.3232 4.31029 45.4924 5.02781C44.6616 5.74533 44.2462 6.61152 44.2462 7.6307C44.2462 8.64988 44.6616 9.51822 45.4924 10.2336C45.6603 10.378 45.8368 10.5051 46.0198 10.6193H41.5773V12.0263H47.535V12.9377H43.1744V14.3124H51.9128V15.0968H43.0151V15.8962H43.1744C43.3875 15.8962 43.5467 15.9608 43.6543 16.0879C43.7598 16.2151 43.8136 16.3702 43.8136 16.5512V17.3355C43.8136 17.8268 43.9105 18.1694 44.102 18.3676C44.2936 18.5658 44.6229 18.6628 45.0921 18.6628H54.0221V17.2558H45.938C45.8842 17.2558 45.8454 17.245 45.8174 17.2235C45.7916 17.2019 45.7765 17.1696 45.7765 17.1265V16.4542H53.54C53.6562 16.4542 53.7402 16.4241 53.7875 16.3659C53.8349 16.3077 53.8586 16.2344 53.8586 16.1504V13.1123C53.8586 13.0369 53.8456 12.9895 53.8177 12.9679C53.7918 12.9464 53.7509 12.9356 53.6971 12.9356H49.6723V12.0241H55.6342V12.0263ZM47.0938 6.1892C47.4812 5.78842 47.9504 5.58804 48.4992 5.58804C49.0481 5.58804 49.5173 5.78842 49.9047 6.1892C50.2921 6.58998 50.4858 7.07048 50.4858 7.62855C50.4858 8.18661 50.2921 8.66711 49.9047 9.06789C49.5173 9.46866 49.0481 9.66905 48.4992 9.66905C47.9482 9.66905 47.4812 9.46866 47.0938 9.06789C46.7064 8.66711 46.5126 8.18877 46.5126 7.62855C46.5126 7.07048 46.7064 6.58998 47.0938 6.1892Z" fill="white"/>
<path d="M58.4925 6.33356V4.9093H66.1613V6.33356H63.3826V8.25341C63.3826 9.7143 63.783 10.8951 64.5815 11.7957C65.38 12.6964 66.1742 13.2372 66.9619 13.4182C67.0158 13.429 67.0416 13.4441 67.0416 13.4656C67.0416 13.4872 67.0308 13.5131 67.0093 13.5454L65.9719 14.6658C65.3326 14.4848 64.6568 14.1013 63.9422 13.5152C63.2276 12.9291 62.7283 12.2784 62.4399 11.5652C62.4184 11.5006 62.3839 11.4661 62.3366 11.4618C62.2892 11.4575 62.2483 11.4919 62.216 11.5652C61.9384 12.2806 61.4434 12.9291 60.7309 13.5152C60.0164 14.1013 59.3362 14.4848 58.6862 14.6658L57.6488 13.5454C57.638 13.5131 57.6337 13.4872 57.6337 13.4656C57.6337 13.4441 57.6553 13.429 57.6983 13.4182C58.4861 13.2372 59.2803 12.6943 60.0788 11.7871C60.8773 10.8822 61.2776 9.70353 61.2776 8.25341V6.33356H58.4925ZM68.4944 18.6628V5.43721C68.4944 5.27776 68.4406 5.12262 68.3351 4.97394C68.2275 4.82527 68.0682 4.74985 67.8552 4.74985H67.5366V3.95046H70.3949V18.6628H68.4944Z" fill="white"/>
<path d="M80.1665 6.80114V5.95003C80.1665 5.77119 80.1105 5.63544 80.0008 5.54063C79.8888 5.44583 79.7468 5.39842 79.5703 5.39842H79.3766V4.49775H82.2693V10.2228C82.2693 10.6688 82.1466 11.005 81.9013 11.2334C81.6559 11.4618 81.3158 11.576 80.8854 11.576H75.5906C75.158 11.576 74.8201 11.4618 74.5747 11.2334C74.3294 11.005 74.2067 10.6688 74.2067 10.2228V6.13318C74.2067 5.95434 74.1507 5.81859 74.041 5.72378C73.929 5.62898 73.787 5.58157 73.6105 5.58157H73.4168V4.66367H76.3095V6.80114H80.1665ZM76.3095 8.32021V9.82204C76.3095 9.94486 76.3289 10.016 76.3719 10.0397C76.4128 10.0612 76.486 10.072 76.5915 10.072H79.8867C79.9922 10.072 80.0653 10.0526 80.1062 10.0138C80.1471 9.97502 80.1686 9.90607 80.1686 9.8048V8.32021H76.3095ZM89.1503 8.64772H87.0733V11.576H85.1556V5.31008C85.1556 5.16356 85.1018 5.02135 84.9963 4.8856C84.8887 4.74985 84.7294 4.6809 84.5164 4.6809H84.1978V3.9483H87.0733V7.18252H89.1503V8.64772Z" fill="white"/>
<path d="M102.729 6.30124V5.43721C102.729 5.27776 102.676 5.12262 102.57 4.97394C102.462 4.82527 102.303 4.74985 102.09 4.74985H101.772V3.95046H104.647V14.5042H102.729V10.3629H99.15V10.9231C99.15 11.3497 99.0381 11.6729 98.8143 11.8906C98.5904 12.1082 98.2805 12.2181 97.8866 12.2181H93.2225C92.8287 12.2181 92.5187 12.1082 92.297 11.8906C92.0732 11.6729 91.9613 11.3497 91.9613 10.9231V6.15688C91.9613 5.98666 91.9096 5.85522 91.8106 5.76472C91.7094 5.67422 91.5781 5.62897 91.4189 5.62897H91.2424V4.74985H93.879V7.32473H97.2345V5.98235C97.2345 5.81212 97.1828 5.68069 97.0817 5.59019C96.9805 5.49969 96.8492 5.45444 96.6899 5.45444H96.5134V4.59041H99.15V6.30124H102.729ZM96.0356 17.0338C96.0356 17.1071 96.0593 17.1631 96.1088 17.2041C96.1583 17.245 96.225 17.2666 96.3111 17.2666H104.645V18.6628H95.2608C94.7571 18.6628 94.3848 18.5615 94.1394 18.3611C93.8941 18.1586 93.7714 17.8419 93.7714 17.4066V15.1873C93.7714 15.0106 93.709 14.8619 93.5884 14.7369C93.4657 14.612 93.2828 14.5516 93.0374 14.5516H92.6694V13.7759H96.0356V17.0338ZM93.879 8.77916V10.5374C93.879 10.6559 93.8984 10.7249 93.9349 10.7443C93.9715 10.7658 94.0383 10.7766 94.1351 10.7766H96.9783C97.073 10.7766 97.1398 10.7572 97.1785 10.7206C97.2151 10.6839 97.2345 10.6171 97.2345 10.5202V8.77916H93.879ZM99.15 7.66086V9.00325H102.729V7.66086H99.15Z" fill="white"/>
<path d="M108.198 8.0681V6.60937H113.073V5.35748C113.073 5.16356 113.015 5.00626 112.901 4.8856C112.787 4.76494 112.632 4.7046 112.439 4.7046H112.275V3.95046H115.321V6.60937H120.159V8.0681H117.458C117.796 8.4107 118.058 8.7964 118.246 9.22518C118.433 9.65397 118.527 10.1151 118.527 10.6064C118.527 11.4876 118.23 12.2698 117.639 12.9571C117.047 13.6423 116.298 14.1013 115.392 14.3297V17.1437H121.22V18.6887H107.286V17.1437H113.145V14.3814C112.189 14.1638 111.399 13.707 110.77 13.0089C110.142 12.3107 109.828 11.5113 109.828 10.6064C109.828 10.1151 109.92 9.65397 110.11 9.22518C110.297 8.7964 110.56 8.4107 110.897 8.0681H108.198ZM112.693 8.97739C112.281 9.43419 112.077 9.97933 112.077 10.6064C112.077 11.2355 112.286 11.7785 112.701 12.2353C113.119 12.6921 113.609 12.9227 114.178 12.9227C114.746 12.9227 115.239 12.6943 115.654 12.2353C116.072 11.7785 116.278 11.2355 116.278 10.6064C116.278 9.97718 116.067 9.43419 115.643 8.97739C115.219 8.52059 114.724 8.29219 114.156 8.29219C113.592 8.29004 113.104 8.51844 112.693 8.97739Z" fill="white"/>
<path d="M127.541 7.99269C127.541 9.47513 127.968 10.6645 128.82 11.5587C129.672 12.4551 130.464 12.9765 131.2 13.1252C131.254 13.136 131.28 13.1554 131.28 13.1812C131.28 13.2071 131.269 13.2329 131.248 13.2523L130.258 14.4029C129.608 14.222 128.91 13.8363 128.166 13.2437C127.421 12.6512 126.919 12.0414 126.663 11.4122C126.642 11.3476 126.605 11.3152 126.551 11.3152C126.498 11.3152 126.457 11.3476 126.424 11.4122C126.157 12.0414 125.658 12.6512 124.922 13.2437C124.188 13.8363 123.489 14.222 122.83 14.4029L121.84 13.2523C121.818 13.2308 121.81 13.2071 121.816 13.1812C121.821 13.1554 121.846 13.136 121.887 13.1252C122.643 12.9442 123.441 12.4142 124.283 11.535C125.124 10.6559 125.544 9.47513 125.544 7.99269V6.1224C125.544 5.95218 125.488 5.7992 125.376 5.66776C125.264 5.53417 125.096 5.46737 124.873 5.46737H124.584V4.68306H127.539V7.99269H127.541ZM134.364 8.75977V3.96123H131.506V4.76063H131.825C132.038 4.76063 132.197 4.83604 132.305 4.98472C132.41 5.13339 132.464 5.28853 132.464 5.44798V18.6736H134.364V10.197H136.766V8.75761H134.364V8.75977Z" fill="white"/>
<path d="M82.3899 11.576C79.9836 11.576 78.0314 13.2373 78.0314 15.2864C78.0314 17.3355 79.9836 18.9968 82.3899 18.9968C84.7962 18.9968 86.7483 17.3355 86.7483 15.2864C86.7483 13.2373 84.7983 11.576 82.3899 11.576ZM82.4071 17.4842C81.1092 17.4842 80.0567 16.534 80.0567 15.3618C80.0567 14.1896 81.1092 13.2394 82.4071 13.2394C83.7049 13.2394 84.7574 14.1896 84.7574 15.3618C84.7574 16.534 83.7049 17.4842 82.4071 17.4842Z" fill="white"/>
<path d="M147.963 3.96123V4.76063H148.281C148.494 4.76063 148.654 4.83604 148.761 4.98472C148.867 5.13339 148.921 5.28853 148.921 5.44798V14.8468C148.697 14.9847 148.413 15.0925 148.066 15.1657C147.72 15.2411 147.27 15.2778 146.717 15.2778H144.495V13.7199C145.031 13.554 145.516 13.2803 145.948 12.8925C146.702 12.2159 147.078 11.4036 147.078 10.4555C147.078 9.50745 146.702 8.69513 145.948 8.01855C145.716 7.8117 145.468 7.63932 145.208 7.49495H147.92V6.13533H144.224V3.96123H141.224V4.66582H141.385C141.575 4.66582 141.727 4.72184 141.842 4.83389C141.953 4.94593 142.012 5.09245 142.012 5.27345V6.13749H138.279V7.49711H141.232C140.972 7.64147 140.724 7.81385 140.492 8.0207C139.739 8.69728 139.362 9.50961 139.362 10.4577C139.362 11.4057 139.739 12.2181 140.492 12.8947C141.09 13.4312 141.788 13.7522 142.582 13.8621V15.2778H138.54V16.7171H146.079C146.803 16.7171 147.382 16.6934 147.812 16.646C148.243 16.5986 148.613 16.4887 148.923 16.3185V18.6736H150.84V3.96123H147.963ZM141.075 10.4577C141.075 9.8716 141.282 9.38679 141.697 9.00325C142.113 8.61971 142.619 8.42794 143.217 8.42794C143.815 8.42794 144.325 8.61971 144.745 9.00325C145.167 9.38679 145.378 9.8716 145.378 10.4577C145.378 11.0438 145.167 11.5286 144.745 11.9121C144.323 12.2956 143.815 12.4874 143.217 12.4874C142.619 12.4874 142.113 12.2956 141.697 11.9121C141.284 11.5286 141.075 11.0438 141.075 10.4577Z" fill="white"/>
<path d="M22.4992 8.24476C22.2366 6.93254 21.2121 5.9306 19.8841 5.6979C19.7593 5.67635 19.4902 5.67419 19.4902 5.67419C19.4902 5.67419 19.3675 5.42856 19.2857 5.30143C18.8531 4.62701 18.2182 4.32104 17.4175 4.41369C17.1614 4.44386 16.9139 4.53435 16.6621 4.60115C16.5695 4.62485 16.4791 4.65933 16.3672 4.6938C16.3672 4.58822 16.365 4.51712 16.3672 4.44601C16.3866 3.39882 15.8678 2.64252 14.9337 2.37318C14.8067 2.33655 14.5786 2.33009 14.5786 2.33009C14.5786 2.33009 14.4645 2.01119 14.4043 1.89484C14.288 1.66428 14.1567 1.43373 13.9975 1.23334C13.3475 0.423172 12.5102 -0.0206985 11.4577 0.020241C10.1491 0.0697993 9.19993 0.707593 8.60803 1.86683C8.53485 2.01119 8.41002 2.32793 8.41002 2.32793C8.41002 2.32793 8.14098 2.35379 8.00323 2.39688C7.27789 2.62744 6.84958 3.14241 6.71183 3.88794C6.66448 4.14866 6.65802 4.418 6.63219 4.70889C6.49014 4.64855 6.37391 4.59469 6.25338 4.54944C5.29129 4.17667 4.29046 4.44601 3.77175 5.25403C3.68996 5.38115 3.56943 5.66558 3.56943 5.66558C3.56943 5.66558 3.25734 5.69574 3.09161 5.70867C3.03565 5.71298 2.97969 5.73453 2.92373 5.74961C1.39988 6.159 0.403346 7.44536 0.457154 8.98382C0.491592 9.9793 0.941429 10.7873 1.68829 11.4294C1.77869 11.507 1.96163 11.6492 1.96163 11.6492C1.96163 11.6492 1.9315 11.8496 1.93365 11.9509C1.95518 12.8149 2.45882 13.4979 3.2724 13.7931C3.4037 13.8405 3.53714 13.8815 3.6835 13.9289C3.64906 13.9741 3.63184 14.0065 3.60817 14.0323C2.83118 14.8748 2.87853 16.0168 3.46611 16.7365C3.50916 16.7903 3.60386 16.8744 3.60386 16.8744C3.60386 16.8744 3.54575 17.0532 3.54145 17.0985C3.47903 17.5639 3.41661 18.025 3.47688 18.499C3.64261 19.7681 4.61761 20.8735 5.85735 21.1579C6.68815 21.3497 7.48021 21.229 8.23568 20.852C8.32608 20.8067 8.49611 20.6688 8.49611 20.6688C8.49611 20.6688 8.67691 20.783 8.77376 20.8196C9.69066 21.1752 10.5903 20.908 11.1779 20.1172C11.2748 19.9858 11.3673 19.8522 11.4685 19.7057C11.5912 19.8866 11.6859 20.0569 11.8086 20.2055C12.3337 20.8433 12.9773 21.1364 13.821 20.9381C13.9846 20.8994 14.3591 20.7334 14.3591 20.7334C14.3591 20.7334 14.5334 20.8713 14.6755 20.9403C14.9596 21.0502 15.0866 21.0717 15.2953 21.1321C16.322 21.4316 17.3035 21.3605 18.1816 20.7054C19.346 19.8371 19.6667 18.6434 19.4278 17.2579C19.4127 17.1674 19.2965 16.9929 19.2965 16.9929C19.2965 16.9929 19.473 16.8485 19.529 16.7688C20.1381 15.8875 20.0929 14.9761 19.4127 14.153C19.3589 14.0883 19.3073 14.0237 19.2362 13.9397C19.3353 13.9116 19.402 13.8923 19.4687 13.8729C19.544 13.8513 19.6215 13.8319 19.6968 13.8039C20.4954 13.5066 21.0162 12.9657 21.0808 12.0909C21.0937 11.9185 21.0679 11.5587 21.0679 11.5587C21.0679 11.5587 21.3434 11.4208 21.4596 11.3152C22.3571 10.4878 22.7424 9.46648 22.4992 8.24476ZM8.3024 2.96573C8.3024 2.96573 8.65323 2.89678 8.96102 2.96573C8.96102 2.96573 8.98254 2.64037 9.1332 2.24605C9.29678 1.90777 9.5034 1.59533 9.78751 1.33677C10.9713 0.252949 12.7642 0.487812 13.6682 1.84959C13.7435 1.96163 13.8081 2.0823 13.8705 2.20296C13.92 2.3107 14.1008 2.71147 14.09 2.92048C14.09 2.92048 14.415 2.88816 14.8024 2.99374C15.8463 3.35142 15.9023 4.5322 15.4955 5.28204C12.8546 3.74358 10.2008 3.72634 7.5577 5.27127C6.93352 4.53651 7.35753 3.25661 8.3024 2.96573ZM2.59442 12.0284C2.59227 12.0047 2.59227 11.9832 2.59012 11.9616C2.58796 11.9142 2.58581 11.8668 2.58796 11.8173C2.59012 11.7849 2.58796 11.7548 2.58796 11.7246C2.6181 11.3777 2.77952 11.2506 2.77952 11.2506C2.50833 11.1838 2.31677 11.0868 2.18548 11.0006C1.52902 10.4986 1.13514 9.82847 1.10285 8.98814C1.0555 7.76857 1.7959 6.76448 2.98399 6.40895C3.0335 6.39387 3.08515 6.38094 3.13681 6.36801C3.28532 6.33353 3.61462 6.2732 3.99344 6.29691C3.99344 6.29691 4.01496 6.05558 4.32489 5.62033C4.97705 4.81447 6.16729 4.82524 6.88617 5.76254C4.62407 7.78581 3.79973 10.2939 4.43897 13.2652C3.58234 13.5389 2.68482 12.9054 2.59442 12.0284ZM10.2244 20.1387C9.78966 20.4146 9.32907 20.421 8.88784 20.1668C8.84694 20.1431 8.8082 20.1258 8.77161 20.1086C8.65754 20.0396 8.51764 19.9405 8.37343 19.8005C8.37343 19.8005 8.28303 19.9362 7.96449 20.2616C7.23054 20.6473 6.46001 20.7399 5.65504 20.4146C4.66712 20.0159 4.04079 19.0463 4.08599 17.9453C4.09675 17.6888 4.1484 17.4303 4.20006 17.1782C4.20436 17.1566 4.20867 17.1351 4.21082 17.1135C4.30983 16.7817 4.4239 16.7278 4.4239 16.7278C4.28615 16.6481 4.17854 16.5533 4.0946 16.4671C4.07953 16.4456 4.06446 16.424 4.04509 16.4046C3.33482 15.6009 3.72439 14.7326 4.29046 14.2736C4.40238 14.1831 4.52076 14.1013 4.66281 13.9957C5.89179 16.814 8.01829 18.4064 11.0897 18.7339C10.9799 19.3415 10.7259 19.8199 10.2244 20.1387ZM11.49 18.3116C7.67823 18.3008 4.63698 15.2066 4.64774 11.3497C4.65635 7.60266 7.76002 4.53866 11.5352 4.54728C15.2996 4.5559 18.3904 7.65868 18.3861 11.4208C18.3839 15.2282 15.2889 18.3202 11.49 18.3116ZM18.9242 16.4844C18.8962 16.5145 18.8704 16.5469 18.8488 16.577C18.7391 16.6761 18.5992 16.7559 18.4334 16.7688C18.4334 16.7688 18.6809 16.9799 18.7993 17.4324C18.9694 18.1952 18.866 18.9256 18.3925 19.5893C17.665 20.6106 16.4296 20.9425 15.2566 20.4404C15.192 20.4124 15.1296 20.3844 15.0672 20.3521C14.5506 20.0763 14.4 19.7983 14.4 19.7983C14.1266 20.1474 13.9135 20.2314 13.9135 20.2314C13.3991 20.477 12.9149 20.3865 12.4973 19.9965C12.1379 19.6582 11.9226 19.2467 11.8602 18.736C14.9036 18.443 17.0538 16.9067 18.3129 14.1163C19.3008 14.487 19.6172 15.7302 18.9242 16.4844ZM21.0873 10.7895C21.0399 10.8347 20.7321 11.1278 20.321 11.1342C20.321 11.1342 20.4093 11.3648 20.4416 11.6169C20.4416 11.6427 20.4372 11.6664 20.4394 11.6923C20.5535 12.8235 19.6753 13.3902 18.6401 13.3148C18.6271 13.3148 18.6164 13.2997 18.5905 13.2803C18.8704 11.8991 18.8983 10.5158 18.4506 9.15405C18.0051 7.80089 17.1829 6.69984 16.1218 5.74315C16.6233 5.25618 17.1765 4.96745 17.8674 5.0601C18.3732 5.1269 18.6939 5.45872 18.8876 5.9069C18.894 5.92199 18.9005 5.93491 18.9091 5.95C18.95 6.05127 18.9952 6.20425 18.9607 6.33354C18.9607 6.33354 19.1674 6.21934 19.7593 6.32707C20.8074 6.54254 21.6038 7.26006 21.8492 8.25769C22.0967 9.26394 21.7738 10.0935 21.0873 10.7895Z" fill="white"/>
<path d="M12.0087 17.3656C14.3806 17.0877 16.0981 15.8789 17.0215 13.6617C18.4485 10.2314 16.393 6.37879 12.7599 5.60309C12.437 5.53414 12.1077 5.49535 11.7612 5.43933C11.7612 5.23679 11.7612 5.03856 11.7612 4.83386C11.5847 4.83386 11.4297 4.83386 11.2554 4.83386C11.2554 5.04287 11.2554 5.23463 11.2554 5.42425C7.9817 5.57292 5.70669 8.37835 5.57109 10.9942C5.50007 12.3667 5.8057 13.6315 6.59345 14.7714C7.72127 16.4025 9.30108 17.2342 11.2662 17.4001C11.2662 17.4885 11.2662 18.0487 11.2662 18.0487L11.772 18.0595L11.7698 17.3937C11.7677 17.3937 11.8107 17.3872 12.0087 17.3656ZM5.97789 11.4186C5.99295 8.3762 8.49396 5.87674 11.5223 5.88105C14.5356 5.8832 17.0366 8.38482 17.0559 11.4143C17.0753 14.4352 14.5614 16.9519 11.518 16.9541C8.47244 16.9541 5.96067 14.446 5.97789 11.4186Z" fill="white"/>
<path d="M17.0086 7.75133C15.8033 5.95646 14.1245 4.98038 11.9528 4.81662C11.9528 4.96961 11.9528 5.09027 11.9528 5.22817C13.5455 5.37253 14.9101 6.00602 16.0077 7.16525C17.114 8.3331 17.6801 9.73582 17.7145 11.3411C17.7425 12.7395 17.3099 14.0064 16.4748 15.1247C15.3491 16.6309 13.8274 17.4518 11.9657 17.6458C11.9657 17.788 11.9657 17.9086 11.9657 18.0616C14.1955 17.7815 16.0228 16.8679 17.1592 14.8705C18.5152 12.4809 18.5798 10.0913 17.0086 7.75133Z" fill="white"/>
<path d="M5.30636 11.5846C5.20089 8.70587 7.4716 5.47381 11.0703 5.20231C11.0703 5.08596 11.0703 4.96745 11.0703 4.81231C8.70919 5.02994 6.912 6.11591 5.76265 8.17366C4.34211 10.7162 4.60685 13.179 6.29858 15.4954C7.46945 17.0985 9.12029 17.8505 11.0725 18.0487C11.0725 17.8914 11.0725 17.7793 11.0725 17.6501C7.90207 17.4303 5.42043 14.7391 5.30636 11.5846Z" fill="white"/>
<path d="M11.4383 6.13315C8.56068 6.15039 6.21034 8.54642 6.22971 11.4423C6.25123 14.3792 8.6274 16.7429 11.5395 16.7257C14.4064 16.7085 16.8213 14.2866 16.8041 11.4488C16.7869 8.47101 14.4129 6.11591 11.4383 6.13315ZM11.4599 16.2948C8.82972 16.2948 6.6408 14.0625 6.64726 11.382C6.65372 8.73819 8.8577 6.55762 11.5201 6.55978C14.1955 6.56193 16.3823 8.75974 16.3758 11.4423C16.3715 14.1228 14.1718 16.2926 11.4599 16.2948Z" fill="white"/>
<path d="M15.05 12.7266C14.74 11.5609 14.4107 10.4016 14.0879 9.23808C14.0491 9.10018 14.0125 8.96443 13.9781 8.83515C14.0061 8.8136 14.0168 8.79637 14.0276 8.79852C14.3461 8.81145 14.2601 8.5809 14.2816 8.3999C14.3096 8.16719 14.146 8.18658 14.0082 8.16288C13.2635 8.0336 12.5188 7.90647 11.7741 7.77719C11.759 7.61559 11.7461 7.47338 11.7332 7.32901C11.5675 7.32901 11.4211 7.32901 11.2576 7.32901C11.2576 7.48199 11.2576 7.61774 11.2576 7.77503C10.4784 7.91078 9.72509 8.04006 8.97393 8.17797C8.90721 8.19089 8.79744 8.23614 8.79313 8.27924C8.77161 8.42791 8.76515 8.58736 8.8039 8.72957C8.81681 8.77913 8.97393 8.7899 9.07724 8.82222C9.05357 8.91272 9.03204 9.00322 9.00837 9.09156C8.66399 10.3068 8.31962 11.5221 7.9774 12.7395C7.85041 13.192 7.91068 13.6186 8.22277 13.9827C8.62956 14.4546 9.29248 14.571 9.83917 14.2758C10.3729 13.9892 10.6377 13.3773 10.4763 12.7804C10.2933 12.1038 10.1039 11.4316 9.9145 10.7572C9.73801 10.1194 9.55936 9.48156 9.37426 8.82222C10.0135 8.82222 10.6226 8.82222 11.2403 8.82222C11.2597 8.91057 11.2791 8.99891 11.2984 9.08941C11.447 9.08941 11.5826 9.08941 11.7225 9.08941C11.7418 8.9946 11.7569 8.91057 11.7763 8.81791C12.3983 8.81791 13.0139 8.81791 13.6639 8.81791C13.5842 9.10664 13.5132 9.37814 13.4379 9.64532C13.1387 10.7076 12.8245 11.7656 12.5425 12.8343C12.3617 13.526 12.7836 14.2155 13.4486 14.3921C14.4753 14.6593 15.3298 13.7781 15.05 12.7266ZM9.04926 12.9528C8.76731 12.9528 8.49611 12.9528 8.19694 12.9528C8.47244 11.9983 8.74363 11.0653 9.01267 10.1323C9.02559 10.1323 9.0385 10.1344 9.04926 10.1344C9.04926 11.0696 9.04926 12.0047 9.04926 12.9528ZM9.38933 10.0504C9.40009 10.0461 9.41301 10.0439 9.42377 10.0396C9.69927 11.0028 9.97477 11.9659 10.2546 12.9506C9.95109 12.9506 9.67774 12.9506 9.38933 12.9506C9.38933 11.9789 9.38933 11.0157 9.38933 10.0504ZM13.6402 12.9528C13.3625 12.9528 13.0978 12.9528 12.79 12.9528C13.0612 12.0112 13.3281 11.0868 13.595 10.1603C13.6101 10.1625 13.6251 10.1646 13.638 10.1689C13.6402 11.0868 13.6402 12.0069 13.6402 12.9528ZM13.9759 12.9506C13.9759 11.9681 13.9759 10.9899 13.9759 10.0116C13.9846 10.0073 13.9932 10.003 14.0039 10.0008C14.2837 10.9726 14.5614 11.9465 14.8498 12.9506C14.5377 12.9506 14.2665 12.9506 13.9759 12.9506Z" fill="white"/>
</svg>
