<svg width="160" height="53" viewBox="0 0 160 53" fill="none" xmlns="http://www.w3.org/2000/svg">
<path d="M36.2664 23.9798C36.2664 25.4622 36.6925 26.6516 37.5448 27.5458C38.3972 28.4422 39.1892 28.9636 39.9253 29.1123C39.9791 29.123 40.005 29.1424 40.005 29.1683C40.005 29.1942 39.9942 29.22 39.9727 29.2394L38.9826 30.39C38.3326 30.209 37.6352 29.8233 36.8905 29.2308C36.1458 28.6382 35.6443 28.0285 35.3882 27.3993C35.3667 27.3346 35.3301 27.3023 35.2763 27.3023C35.2225 27.3023 35.1794 27.3346 35.1493 27.3993C34.8824 28.0285 34.3831 28.6382 33.647 29.2308C32.913 29.8233 32.2135 30.209 31.5549 30.39L30.5648 29.2394C30.5433 29.2179 30.5347 29.1942 30.5412 29.1683C30.5455 29.1424 30.5713 29.123 30.6122 29.1123C31.3677 28.9313 32.1662 28.4012 33.0077 27.5221C33.8493 26.643 34.269 25.4622 34.269 23.9798V22.1095C34.269 21.9393 34.213 21.7863 34.1011 21.6548C33.9892 21.5212 33.8213 21.4544 33.5975 21.4544H33.3091V20.6701H36.2642V23.9798H36.2664ZM41.5848 24.4753H38.0549V25.9621H41.5848V34.6628H43.4853V19.9505H40.6248V20.7499H40.9434C41.1565 20.7499 41.3157 20.8253 41.4233 20.9739C41.5288 21.1226 41.5826 21.2778 41.5826 21.4372V24.4753H41.5848Z" fill="white"/>
<path d="M59.6342 28.0263V26.6193H54.983C55.166 26.5029 55.3425 26.378 55.5104 26.2336C56.3412 25.5182 56.7566 24.6499 56.7566 23.6307C56.7566 22.6115 56.3412 21.7432 55.5104 21.0278C54.6796 20.3124 53.6766 19.9526 52.5014 19.9526C51.3262 19.9526 50.3232 20.3103 49.4924 21.0278C48.6616 21.7453 48.2462 22.6115 48.2462 23.6307C48.2462 24.6499 48.6616 25.5182 49.4924 26.2336C49.6603 26.378 49.8368 26.5051 50.0198 26.6193H45.5773V28.0263H51.535V28.9377H47.1744V30.3124H55.9128V31.0968H47.0151V31.8962H47.1744C47.3875 31.8962 47.5467 31.9608 47.6543 32.0879C47.7598 32.2151 47.8136 32.3702 47.8136 32.5512V33.3355C47.8136 33.8268 47.9105 34.1694 48.102 34.3676C48.2936 34.5658 48.6229 34.6628 49.0921 34.6628H58.0221V33.2558H49.938C49.8842 33.2558 49.8454 33.245 49.8174 33.2235C49.7916 33.2019 49.7765 33.1696 49.7765 33.1265V32.4542H57.54C57.6562 32.4542 57.7402 32.4241 57.7875 32.3659C57.8349 32.3077 57.8586 32.2344 57.8586 32.1504V29.1123C57.8586 29.0369 57.8456 28.9895 57.8177 28.9679C57.7918 28.9464 57.7509 28.9356 57.6971 28.9356H53.6723V28.0241H59.6342V28.0263ZM51.0938 22.1892C51.4812 21.7884 51.9504 21.588 52.4992 21.588C53.0481 21.588 53.5173 21.7884 53.9047 22.1892C54.2921 22.59 54.4858 23.0705 54.4858 23.6285C54.4858 24.1866 54.2921 24.6671 53.9047 25.0679C53.5173 25.4687 53.0481 25.6691 52.4992 25.6691C51.9482 25.6691 51.4812 25.4687 51.0938 25.0679C50.7064 24.6671 50.5126 24.1888 50.5126 23.6285C50.5126 23.0705 50.7064 22.59 51.0938 22.1892Z" fill="white"/>
<path d="M62.4925 22.3336V20.9093H70.1613V22.3336H67.3826V24.2534C67.3826 25.7143 67.783 26.8951 68.5815 27.7957C69.38 28.6964 70.1742 29.2372 70.9619 29.4182C71.0158 29.429 71.0416 29.4441 71.0416 29.4656C71.0416 29.4872 71.0308 29.5131 71.0093 29.5454L69.9719 30.6658C69.3326 30.4848 68.6568 30.1013 67.9422 29.5152C67.2276 28.9291 66.7283 28.2784 66.4399 27.5652C66.4184 27.5006 66.3839 27.4661 66.3366 27.4618C66.2892 27.4575 66.2483 27.4919 66.216 27.5652C65.9384 28.2806 65.4434 28.9291 64.7309 29.5152C64.0164 30.1013 63.3362 30.4848 62.6862 30.6658L61.6488 29.5454C61.638 29.5131 61.6337 29.4872 61.6337 29.4656C61.6337 29.4441 61.6553 29.429 61.6983 29.4182C62.4861 29.2372 63.2803 28.6943 64.0788 27.7871C64.8773 26.8822 65.2776 25.7035 65.2776 24.2534V22.3336H62.4925ZM72.4944 34.6628V21.4372C72.4944 21.2778 72.4406 21.1226 72.3351 20.9739C72.2275 20.8253 72.0682 20.7499 71.8552 20.7499H71.5366V19.9505H74.3949V34.6628H72.4944Z" fill="white"/>
<path d="M84.1665 22.8011V21.95C84.1665 21.7712 84.1105 21.6354 84.0008 21.5406C83.8888 21.4458 83.7468 21.3984 83.5703 21.3984H83.3766V20.4978H86.2693V26.2228C86.2693 26.6688 86.1466 27.005 85.9013 27.2334C85.6559 27.4618 85.3158 27.576 84.8854 27.576H79.5906C79.158 27.576 78.8201 27.4618 78.5747 27.2334C78.3294 27.005 78.2067 26.6688 78.2067 26.2228V22.1332C78.2067 21.9543 78.1507 21.8186 78.041 21.7238C77.929 21.629 77.787 21.5816 77.6105 21.5816H77.4168V20.6637H80.3095V22.8011H84.1665ZM80.3095 24.3202V25.822C80.3095 25.9449 80.3289 26.016 80.3719 26.0397C80.4128 26.0612 80.486 26.072 80.5915 26.072H83.8867C83.9922 26.072 84.0653 26.0526 84.1062 26.0138C84.1471 25.975 84.1686 25.9061 84.1686 25.8048V24.3202H80.3095ZM93.1503 24.6477H91.0733V27.576H89.1556V21.3101C89.1556 21.1636 89.1018 21.0213 88.9963 20.8856C88.8887 20.7499 88.7294 20.6809 88.5163 20.6809H88.1978V19.9483H91.0733V23.1825H93.1503V24.6477Z" fill="white"/>
<path d="M106.729 22.3012V21.4372C106.729 21.2778 106.676 21.1226 106.57 20.9739C106.462 20.8253 106.303 20.7499 106.09 20.7499H105.772V19.9505H108.647V30.5042H106.729V26.3629H103.15V26.9231C103.15 27.3497 103.038 27.6729 102.814 27.8906C102.59 28.1082 102.281 28.2181 101.887 28.2181H97.2225C96.8287 28.2181 96.5187 28.1082 96.297 27.8906C96.0732 27.6729 95.9613 27.3497 95.9613 26.9231V22.1569C95.9613 21.9867 95.9096 21.8552 95.8106 21.7647C95.7094 21.6742 95.5781 21.629 95.4189 21.629H95.2424V20.7499H97.879V23.3247H101.234V21.9823C101.234 21.8121 101.183 21.6807 101.082 21.5902C100.98 21.4997 100.849 21.4544 100.69 21.4544H100.513V20.5904H103.15V22.3012H106.729ZM100.036 33.0338C100.036 33.1071 100.059 33.1631 100.109 33.2041C100.158 33.245 100.225 33.2666 100.311 33.2666H108.645V34.6628H99.2608C98.7571 34.6628 98.3848 34.5615 98.1394 34.3611C97.8941 34.1586 97.7714 33.8419 97.7714 33.4066V31.1873C97.7714 31.0106 97.709 30.8619 97.5884 30.7369C97.4657 30.612 97.2828 30.5516 97.0374 30.5516H96.6694V29.7759H100.036V33.0338ZM97.879 24.7792V26.5374C97.879 26.6559 97.8984 26.7249 97.9349 26.7443C97.9715 26.7658 98.0383 26.7766 98.1351 26.7766H100.978C101.073 26.7766 101.14 26.7572 101.179 26.7206C101.215 26.6839 101.234 26.6171 101.234 26.5202V24.7792H97.879ZM103.15 23.6609V25.0032H106.729V23.6609H103.15Z" fill="white"/>
<path d="M112.198 24.0681V22.6094H117.073V21.3575C117.073 21.1636 117.015 21.0063 116.901 20.8856C116.787 20.7649 116.632 20.7046 116.439 20.7046H116.275V19.9505H119.321V22.6094H124.159V24.0681H121.458C121.796 24.4107 122.058 24.7964 122.246 25.2252C122.433 25.654 122.527 26.1151 122.527 26.6064C122.527 27.4876 122.23 28.2698 121.639 28.9571C121.047 29.6423 120.298 30.1013 119.392 30.3297V33.1437H125.22V34.6887H111.286V33.1437H117.145V30.3814C116.189 30.1638 115.399 29.707 114.77 29.0089C114.142 28.3107 113.828 27.5113 113.828 26.6064C113.828 26.1151 113.92 25.654 114.11 25.2252C114.297 24.7964 114.56 24.4107 114.897 24.0681H112.198ZM116.693 24.9774C116.281 25.4342 116.077 25.9793 116.077 26.6064C116.077 27.2355 116.286 27.7785 116.701 28.2353C117.119 28.6921 117.609 28.9227 118.178 28.9227C118.746 28.9227 119.239 28.6943 119.654 28.2353C120.072 27.7785 120.278 27.2355 120.278 26.6064C120.278 25.9772 120.067 25.4342 119.643 24.9774C119.219 24.5206 118.724 24.2922 118.156 24.2922C117.592 24.29 117.104 24.5184 116.693 24.9774Z" fill="white"/>
<path d="M131.541 23.9927C131.541 25.4751 131.968 26.6645 132.82 27.5587C133.672 28.4551 134.464 28.9765 135.2 29.1252C135.254 29.136 135.28 29.1554 135.28 29.1812C135.28 29.2071 135.269 29.2329 135.248 29.2523L134.258 30.4029C133.608 30.222 132.91 29.8363 132.166 29.2437C131.421 28.6512 130.919 28.0414 130.663 27.4122C130.642 27.3476 130.605 27.3152 130.551 27.3152C130.498 27.3152 130.457 27.3476 130.424 27.4122C130.157 28.0414 129.658 28.6512 128.922 29.2437C128.188 29.8363 127.489 30.222 126.83 30.4029L125.84 29.2523C125.818 29.2308 125.81 29.2071 125.816 29.1812C125.821 29.1554 125.846 29.136 125.887 29.1252C126.643 28.9442 127.441 28.4142 128.283 27.535C129.124 26.6559 129.544 25.4751 129.544 23.9927V22.1224C129.544 21.9522 129.488 21.7992 129.376 21.6678C129.264 21.5342 129.096 21.4674 128.873 21.4674H128.584V20.6831H131.539V23.9927H131.541ZM138.364 24.7598V19.9612H135.506V20.7606H135.825C136.038 20.7606 136.197 20.836 136.305 20.9847C136.41 21.1334 136.464 21.2885 136.464 21.448V34.6736H138.364V26.197H140.766V24.7576H138.364V24.7598Z" fill="white"/>
<path d="M86.3899 27.576C83.9836 27.576 82.0314 29.2373 82.0314 31.2864C82.0314 33.3355 83.9836 34.9968 86.3899 34.9968C88.7962 34.9968 90.7483 33.3355 90.7483 31.2864C90.7483 29.2373 88.7983 27.576 86.3899 27.576ZM86.4071 33.4842C85.1092 33.4842 84.0567 32.534 84.0567 31.3618C84.0567 30.1896 85.1092 29.2394 86.4071 29.2394C87.7049 29.2394 88.7574 30.1896 88.7574 31.3618C88.7574 32.534 87.7049 33.4842 86.4071 33.4842Z" fill="white"/>
<path d="M151.963 19.9612V20.7606H152.281C152.494 20.7606 152.654 20.836 152.761 20.9847C152.867 21.1334 152.921 21.2885 152.921 21.448V30.8468C152.697 30.9847 152.413 31.0925 152.066 31.1657C151.72 31.2411 151.27 31.2778 150.717 31.2778H148.495V29.7199C149.031 29.554 149.516 29.2803 149.948 28.8925C150.702 28.2159 151.078 27.4036 151.078 26.4555C151.078 25.5075 150.702 24.6951 149.948 24.0185C149.716 23.8117 149.468 23.6393 149.208 23.495H151.92V22.1353H148.224V19.9612H145.224V20.6658H145.385C145.575 20.6658 145.727 20.7218 145.842 20.8339C145.953 20.9459 146.012 21.0925 146.012 21.2734V22.1375H142.279V23.4971H145.232C144.972 23.6415 144.724 23.8139 144.492 24.0207C143.739 24.6973 143.362 25.5096 143.362 26.4577C143.362 27.4057 143.739 28.2181 144.492 28.8947C145.09 29.4312 145.788 29.7522 146.582 29.8621V31.2778H142.54V32.7171H150.079C150.803 32.7171 151.382 32.6934 151.812 32.646C152.243 32.5986 152.613 32.4887 152.923 32.3185V34.6736H154.84V19.9612H151.963ZM145.075 26.4577C145.075 25.8716 145.282 25.3868 145.697 25.0032C146.113 24.6197 146.619 24.4279 147.217 24.4279C147.815 24.4279 148.325 24.6197 148.745 25.0032C149.167 25.3868 149.378 25.8716 149.378 26.4577C149.378 27.0438 149.167 27.5286 148.745 27.9121C148.323 28.2956 147.815 28.4874 147.217 28.4874C146.619 28.4874 146.113 28.2956 145.697 27.9121C145.284 27.5286 145.075 27.0438 145.075 26.4577Z" fill="white"/>
<path d="M26.4992 24.2448C26.2366 22.9325 25.2121 21.9306 23.8841 21.6979C23.7593 21.6763 23.4902 21.6742 23.4902 21.6742C23.4902 21.6742 23.3675 21.4286 23.2857 21.3014C22.8531 20.627 22.2182 20.321 21.4175 20.4137C21.1614 20.4439 20.9139 20.5344 20.6621 20.6012C20.5695 20.6249 20.4791 20.6593 20.3672 20.6938C20.3672 20.5882 20.365 20.5171 20.3672 20.446C20.3866 19.3988 19.8678 18.6425 18.9337 18.3732C18.8067 18.3366 18.5786 18.3301 18.5786 18.3301C18.5786 18.3301 18.4645 18.0112 18.4043 17.8948C18.288 17.6643 18.1567 17.4337 17.9975 17.2333C17.3475 16.4232 16.5102 15.9793 15.4577 16.0202C14.1491 16.0698 13.1999 16.7076 12.608 17.8668C12.5349 18.0112 12.41 18.3279 12.41 18.3279C12.41 18.3279 12.141 18.3538 12.0032 18.3969C11.2779 18.6274 10.8496 19.1424 10.7118 19.8879C10.6645 20.1487 10.658 20.418 10.6322 20.7089C10.4901 20.6486 10.3739 20.5947 10.2534 20.5494C9.29129 20.1767 8.29046 20.446 7.77175 21.254C7.68996 21.3812 7.56943 21.6656 7.56943 21.6656C7.56943 21.6656 7.25734 21.6957 7.09161 21.7087C7.03565 21.713 6.97969 21.7345 6.92373 21.7496C5.39988 22.159 4.40335 23.4454 4.45715 24.9838C4.49159 25.9793 4.94143 26.7873 5.68829 27.4294C5.77869 27.507 5.96163 27.6492 5.96163 27.6492C5.96163 27.6492 5.9315 27.8496 5.93365 27.9509C5.95518 28.8149 6.45882 29.4979 7.2724 29.7931C7.4037 29.8405 7.53714 29.8815 7.6835 29.9289C7.64906 29.9741 7.63184 30.0065 7.60817 30.0323C6.83118 30.8748 6.87853 32.0168 7.46611 32.7365C7.50916 32.7903 7.60386 32.8744 7.60386 32.8744C7.60386 32.8744 7.54575 33.0532 7.54145 33.0985C7.47903 33.5639 7.41661 34.025 7.47688 34.499C7.64261 35.7681 8.61761 36.8735 9.85735 37.1579C10.6882 37.3497 11.4802 37.229 12.2357 36.852C12.3261 36.8067 12.4961 36.6688 12.4961 36.6688C12.4961 36.6688 12.6769 36.783 12.7738 36.8196C13.6907 37.1752 14.5903 36.908 15.1779 36.1172C15.2748 35.9858 15.3673 35.8522 15.4685 35.7057C15.5912 35.8866 15.6859 36.0569 15.8086 36.2055C16.3337 36.8433 16.9773 37.1364 17.821 36.9381C17.9846 36.8994 18.3591 36.7334 18.3591 36.7334C18.3591 36.7334 18.5334 36.8713 18.6755 36.9403C18.9596 37.0502 19.0866 37.0717 19.2953 37.1321C20.322 37.4316 21.3035 37.3605 22.1816 36.7054C23.346 35.8371 23.6667 34.6434 23.4278 33.2579C23.4127 33.1674 23.2965 32.9929 23.2965 32.9929C23.2965 32.9929 23.473 32.8485 23.529 32.7688C24.1381 31.8875 24.0929 30.9761 23.4127 30.153C23.3589 30.0883 23.3073 30.0237 23.2362 29.9397C23.3353 29.9116 23.402 29.8923 23.4687 29.8729C23.544 29.8513 23.6215 29.8319 23.6968 29.8039C24.4954 29.5066 25.0162 28.9657 25.0808 28.0909C25.0937 27.9185 25.0679 27.5587 25.0679 27.5587C25.0679 27.5587 25.3434 27.4208 25.4596 27.3152C26.3571 26.4878 26.7424 25.4665 26.4992 24.2448ZM12.3024 18.9657C12.3024 18.9657 12.6532 18.8968 12.961 18.9657C12.961 18.9657 12.9825 18.6404 13.1332 18.2461C13.2968 17.9078 13.5034 17.5953 13.7875 17.3368C14.9713 16.2529 16.7642 16.4878 17.6682 17.8496C17.7435 17.9616 17.8081 18.0823 17.8705 18.203C17.92 18.3107 18.1008 18.7115 18.09 18.9205C18.09 18.9205 18.415 18.8882 18.8024 18.9937C19.8463 19.3514 19.9023 20.5322 19.4955 21.282C16.8546 19.7436 14.2008 19.7263 11.5577 21.2713C10.9335 20.5365 11.3575 19.2566 12.3024 18.9657ZM6.59442 28.0284C6.59227 28.0047 6.59227 27.9832 6.59012 27.9616C6.58796 27.9142 6.58581 27.8668 6.58796 27.8173C6.59012 27.7849 6.58796 27.7548 6.58796 27.7246C6.6181 27.3777 6.77952 27.2506 6.77952 27.2506C6.50833 27.1838 6.31677 27.0868 6.18548 27.0006C5.52902 26.4986 5.13514 25.8285 5.10285 24.9881C5.0555 23.7686 5.7959 22.7645 6.98399 22.409C7.0335 22.3939 7.08515 22.3809 7.13681 22.368C7.28532 22.3335 7.61462 22.2732 7.99344 22.2969C7.99344 22.2969 8.01496 22.0556 8.32489 21.6203C8.97705 20.8145 10.1673 20.8252 10.8862 21.7625C8.62407 23.7858 7.79973 26.2939 8.43897 29.2652C7.58234 29.5389 6.68482 28.9054 6.59442 28.0284ZM14.2244 36.1387C13.7897 36.4146 13.3291 36.421 12.8878 36.1668C12.8469 36.1431 12.8082 36.1258 12.7716 36.1086C12.6575 36.0396 12.5176 35.9405 12.3734 35.8005C12.3734 35.8005 12.283 35.9362 11.9645 36.2616C11.2305 36.6473 10.46 36.7399 9.65504 36.4146C8.66712 36.0159 8.04079 35.0463 8.08599 33.9453C8.09675 33.6888 8.1484 33.4303 8.20006 33.1782C8.20436 33.1566 8.20867 33.1351 8.21082 33.1135C8.30983 32.7817 8.4239 32.7278 8.4239 32.7278C8.28615 32.6481 8.17854 32.5533 8.0946 32.4671C8.07953 32.4456 8.06446 32.424 8.04509 32.4046C7.33482 31.6009 7.72439 30.7326 8.29046 30.2736C8.40238 30.1831 8.52076 30.1013 8.66281 29.9957C9.89179 32.814 12.0183 34.4064 15.0897 34.7339C14.9799 35.3415 14.7259 35.8199 14.2244 36.1387ZM15.49 34.3116C11.6782 34.3008 8.63698 31.2066 8.64774 27.3497C8.65635 23.6027 11.76 20.5387 15.5352 20.5473C19.2996 20.5559 22.3904 23.6587 22.3861 27.4208C22.3839 31.2282 19.2889 34.3202 15.49 34.3116ZM22.9242 32.4844C22.8962 32.5145 22.8704 32.5469 22.8488 32.577C22.7391 32.6761 22.5992 32.7559 22.4334 32.7688C22.4334 32.7688 22.6809 32.9799 22.7993 33.4324C22.9694 34.1952 22.866 34.9256 22.3925 35.5893C21.665 36.6106 20.4296 36.9425 19.2566 36.4404C19.192 36.4124 19.1296 36.3844 19.0672 36.3521C18.5506 36.0763 18.4 35.7983 18.4 35.7983C18.1266 36.1474 17.9135 36.2314 17.9135 36.2314C17.3991 36.477 16.9149 36.3865 16.4973 35.9965C16.1379 35.6582 15.9226 35.2467 15.8602 34.736C18.9036 34.443 21.0538 32.9067 22.3129 30.1163C23.3008 30.487 23.6172 31.7302 22.9242 32.4844ZM25.0873 26.7895C25.0399 26.8347 24.7321 27.1278 24.321 27.1342C24.321 27.1342 24.4093 27.3648 24.4416 27.6169C24.4416 27.6427 24.4372 27.6664 24.4394 27.6923C24.5535 28.8235 23.6753 29.3902 22.6401 29.3148C22.6271 29.3148 22.6164 29.2997 22.5905 29.2803C22.8704 27.8991 22.8983 26.5158 22.4506 25.154C22.0051 23.8009 21.1829 22.6998 20.1218 21.7431C20.6233 21.2562 21.1765 20.9675 21.8674 21.0601C22.3732 21.1269 22.6939 21.4587 22.8876 21.9069C22.894 21.922 22.9005 21.9349 22.9091 21.95C22.95 22.0513 22.9952 22.2043 22.9607 22.3335C22.9607 22.3335 23.1674 22.2193 23.7593 22.3271C24.8074 22.5425 25.6038 23.2601 25.8492 24.2577C26.0967 25.2639 25.7738 26.0935 25.0873 26.7895Z" fill="white"/>
<path d="M16.0087 33.3656C18.3806 33.0877 20.0981 31.8789 21.0215 29.6617C22.4485 26.2314 20.393 22.3788 16.7599 21.6031C16.437 21.5341 16.1077 21.4954 15.7612 21.4393C15.7612 21.2368 15.7612 21.0386 15.7612 20.8339C15.5847 20.8339 15.4297 20.8339 15.2554 20.8339C15.2554 21.0429 15.2554 21.2346 15.2554 21.4242C11.9817 21.5729 9.70669 24.3784 9.57109 26.9942C9.50007 28.3667 9.8057 29.6315 10.5935 30.7714C11.7213 32.4025 13.3011 33.2342 15.2662 33.4001C15.2662 33.4885 15.2662 34.0487 15.2662 34.0487L15.772 34.0595L15.7698 33.3937C15.7677 33.3937 15.8107 33.3872 16.0087 33.3656ZM9.97789 27.4186C9.99295 24.3762 12.494 21.8767 15.5223 21.881C18.5356 21.8832 21.0366 24.3848 21.0559 27.4143C21.0753 30.4352 18.5614 32.9519 15.518 32.9541C12.4724 32.9541 9.96067 30.446 9.97789 27.4186Z" fill="white"/>
<path d="M21.0086 23.7513C19.8033 21.9565 18.1245 20.9804 15.9528 20.8166C15.9528 20.9696 15.9528 21.0903 15.9528 21.2282C17.5455 21.3725 18.9101 22.006 20.0077 23.1653C21.114 24.3331 21.6801 25.7358 21.7145 27.3411C21.7425 28.7395 21.3099 30.0064 20.4748 31.1247C19.3491 32.6309 17.8274 33.4518 15.9657 33.6458C15.9657 33.788 15.9657 33.9086 15.9657 34.0616C18.1955 33.7815 20.0228 32.8679 21.1592 30.8705C22.5152 28.4809 22.5798 26.0913 21.0086 23.7513Z" fill="white"/>
<path d="M9.30636 27.5846C9.20089 24.7059 11.4716 21.4738 15.0703 21.2023C15.0703 21.086 15.0703 20.9674 15.0703 20.8123C12.7092 21.0299 10.912 22.1159 9.76265 24.1737C8.34211 26.7162 8.60685 29.179 10.2986 31.4954C11.4695 33.0985 13.1203 33.8505 15.0725 34.0487C15.0725 33.8914 15.0725 33.7793 15.0725 33.6501C11.9021 33.4303 9.42043 30.7391 9.30636 27.5846Z" fill="white"/>
<path d="M15.4383 22.1331C12.5607 22.1504 10.2103 24.5464 10.2297 27.4423C10.2512 30.3792 12.6274 32.7429 15.5395 32.7257C18.4064 32.7085 20.8213 30.2866 20.8041 27.4488C20.7869 24.471 18.4129 22.1159 15.4383 22.1331ZM15.4599 32.2948C12.8297 32.2948 10.6408 30.0625 10.6473 27.382C10.6537 24.7382 12.8577 22.5576 15.5201 22.5598C18.1955 22.5619 20.3823 24.7597 20.3758 27.4423C20.3715 30.1228 18.1718 32.2926 15.4599 32.2948Z" fill="white"/>
<path d="M19.05 28.7266C18.74 27.5609 18.4107 26.4016 18.0879 25.2381C18.0491 25.1002 18.0125 24.9644 17.9781 24.8352C18.0061 24.8136 18.0168 24.7964 18.0276 24.7985C18.3461 24.8114 18.2601 24.5809 18.2816 24.3999C18.3096 24.1672 18.146 24.1866 18.0082 24.1629C17.2635 24.0336 16.5188 23.9065 15.7741 23.7772C15.759 23.6156 15.7461 23.4734 15.7332 23.329C15.5675 23.329 15.4211 23.329 15.2576 23.329C15.2576 23.482 15.2576 23.6177 15.2576 23.775C14.4784 23.9108 13.7251 24.0401 12.9739 24.178C12.9072 24.1909 12.7974 24.2361 12.7931 24.2792C12.7716 24.4279 12.7652 24.5874 12.8039 24.7296C12.8168 24.7791 12.9739 24.7899 13.0772 24.8222C13.0536 24.9127 13.032 25.0032 13.0084 25.0916C12.664 26.3068 12.3196 27.5221 11.9774 28.7395C11.8504 29.192 11.9107 29.6186 12.2228 29.9827C12.6296 30.4546 13.2925 30.571 13.8392 30.2758C14.3729 29.9892 14.6377 29.3773 14.4763 28.7804C14.2933 28.1038 14.1039 27.4316 13.9145 26.7572C13.738 26.1194 13.5594 25.4816 13.3743 24.8222C14.0135 24.8222 14.6226 24.8222 15.2403 24.8222C15.2597 24.9106 15.2791 24.9989 15.2984 25.0894C15.447 25.0894 15.5826 25.0894 15.7225 25.0894C15.7418 24.9946 15.7569 24.9106 15.7763 24.8179C16.3983 24.8179 17.0139 24.8179 17.6639 24.8179C17.5842 25.1066 17.5132 25.3781 17.4379 25.6453C17.1387 26.7076 16.8245 27.7656 16.5425 28.8343C16.3617 29.526 16.7836 30.2155 17.4486 30.3921C18.4753 30.6593 19.3298 29.7781 19.05 28.7266ZM13.0493 28.9528C12.7673 28.9528 12.4961 28.9528 12.1969 28.9528C12.4724 27.9983 12.7436 27.0653 13.0127 26.1323C13.0256 26.1323 13.0385 26.1344 13.0493 26.1344C13.0493 27.0696 13.0493 28.0047 13.0493 28.9528ZM13.3893 26.0504C13.4001 26.0461 13.413 26.0439 13.4238 26.0396C13.6993 27.0028 13.9748 27.9659 14.2546 28.9506C13.9511 28.9506 13.6777 28.9506 13.3893 28.9506C13.3893 27.9789 13.3893 27.0157 13.3893 26.0504ZM17.6402 28.9528C17.3625 28.9528 17.0978 28.9528 16.79 28.9528C17.0612 28.0112 17.3281 27.0868 17.595 26.1603C17.6101 26.1625 17.6251 26.1646 17.638 26.1689C17.6402 27.0868 17.6402 28.0069 17.6402 28.9528ZM17.9759 28.9506C17.9759 27.9681 17.9759 26.9899 17.9759 26.0116C17.9846 26.0073 17.9932 26.003 18.0039 26.0008C18.2837 26.9726 18.5614 27.9465 18.8498 28.9506C18.5377 28.9506 18.2665 28.9506 17.9759 28.9506Z" fill="white"/>
</svg>
