<svg width="324" height="46" viewBox="0 0 324 46" fill="none" xmlns="http://www.w3.org/2000/svg">
<path d="M68.3483 16.6036C68.3483 19.953 69.2672 22.6403 71.1048 24.6606C72.9425 26.6858 74.6502 27.864 76.2373 28.1999C76.3533 28.2242 76.4089 28.268 76.4089 28.3264C76.4089 28.3849 76.3857 28.4433 76.3393 28.4871L74.2047 31.0867C72.8033 30.6778 71.2997 29.8064 69.6941 28.4676C68.0885 27.1288 67.0072 25.7511 66.455 24.3296C66.4086 24.1835 66.3297 24.1105 66.2137 24.1105C66.0977 24.1105 66.0049 24.1835 65.9399 24.3296C65.3645 25.7511 64.2879 27.1288 62.7008 28.4676C61.1184 29.8064 59.6102 30.6778 58.1902 31.0867L56.0556 28.4871C56.0092 28.4384 55.9906 28.3849 56.0045 28.3264C56.0138 28.268 56.0695 28.2242 56.1577 28.1999C57.7865 27.7909 59.5081 26.5933 61.3226 24.6071C63.137 22.6208 64.0419 19.953 64.0419 16.6036V12.378C64.0419 11.9934 63.9213 11.6478 63.68 11.3508C63.4387 11.049 63.0767 10.898 62.5941 10.898H61.9722V9.12599H68.3437V16.6036H68.3483ZM79.8151 17.7233H72.2046V21.0825H79.8151V40.7405H83.9127V7.49998H77.7454V9.30611H78.4322C78.8916 9.30611 79.235 9.4765 79.4671 9.81241C79.6945 10.1483 79.8105 10.4988 79.8105 10.8591V17.7233H79.8151Z" fill="white"/>
<path d="M118.731 25.7463V22.5673H108.702C109.097 22.3044 109.477 22.022 109.839 21.6959C111.631 20.0796 112.526 18.1177 112.526 15.815C112.526 13.5123 111.631 11.5504 109.839 9.93412C108.048 8.31785 105.886 7.50485 103.352 7.50485C100.818 7.50485 98.6557 8.31298 96.8644 9.93412C95.0732 11.5553 94.1776 13.5123 94.1776 15.815C94.1776 18.1177 95.0732 20.0796 96.8644 21.6959C97.2264 22.022 97.6069 22.3093 98.0014 22.5673H88.4233V25.7463H101.268V27.8055H91.8666V30.9115H110.707V32.6835H91.5232V34.4897H91.8666C92.326 34.4897 92.6694 34.6357 92.9014 34.9229C93.1288 35.2102 93.2448 35.5607 93.2448 35.9696V37.7417C93.2448 38.8516 93.4536 39.6257 93.8666 40.0736C94.2797 40.5215 94.9896 40.7405 96.0013 40.7405H115.255V37.5615H97.825C97.709 37.5615 97.6255 37.5372 97.5652 37.4885C97.5095 37.4398 97.477 37.3668 97.477 37.2695V35.7505H114.215C114.466 35.7505 114.647 35.6824 114.749 35.551C114.851 35.4195 114.902 35.254 114.902 35.0641V28.1999C114.902 28.0295 114.874 27.9224 114.814 27.8737C114.758 27.825 114.67 27.8007 114.554 27.8007H105.876V25.7414H118.731V25.7463ZM100.317 12.5581C101.152 11.6526 102.164 11.1999 103.347 11.1999C104.531 11.1999 105.542 11.6526 106.378 12.5581C107.213 13.4636 107.63 14.5492 107.63 15.8101C107.63 17.071 107.213 18.1566 106.378 19.0621C105.542 19.9676 104.531 20.4204 103.347 20.4204C102.159 20.4204 101.152 19.9676 100.317 19.0621C99.4817 18.1566 99.064 17.0759 99.064 15.8101C99.064 14.5492 99.4817 13.4636 100.317 12.5581Z" fill="white"/>
<path d="M124.893 12.8843V9.66636H141.427V12.8843H135.437V17.2219C135.437 20.5226 136.3 23.1904 138.021 25.2254C139.743 27.2603 141.455 28.4822 143.154 28.8912C143.27 28.9155 143.325 28.9496 143.325 28.9983C143.325 29.0469 143.302 29.1054 143.256 29.1784L141.019 31.7099C139.641 31.301 138.184 30.4344 136.643 29.1102C135.102 27.7861 134.026 26.3158 133.404 24.7044C133.358 24.5584 133.283 24.4805 133.181 24.4708C133.079 24.461 132.991 24.5389 132.921 24.7044C132.323 26.3207 131.255 27.7861 129.719 29.1102C128.179 30.4344 126.712 31.301 125.311 31.7099L123.074 29.1784C123.051 29.1054 123.042 29.0469 123.042 28.9983C123.042 28.9496 123.088 28.9155 123.181 28.8912C124.879 28.4822 126.592 27.2554 128.313 25.2059C130.035 23.1612 130.898 20.4983 130.898 17.2219V12.8843H124.893ZM146.458 40.7405V10.8591C146.458 10.4988 146.342 10.1483 146.114 9.81241C145.882 9.4765 145.539 9.30611 145.08 9.30611H144.393V7.49998H150.555V40.7405H146.458Z" fill="white"/>
<path d="M171.623 13.9407V12.0177C171.623 11.6137 171.503 11.307 171.266 11.0928C171.025 10.8786 170.719 10.7715 170.338 10.7715H169.92V8.73652H176.157V21.6715C176.157 22.6792 175.893 23.4387 175.364 23.9547C174.835 24.4708 174.101 24.7288 173.173 24.7288H161.758C160.825 24.7288 160.096 24.4708 159.567 23.9547C159.038 23.4387 158.774 22.6792 158.774 21.6715V12.4315C158.774 12.0275 158.653 11.7208 158.416 11.5066C158.175 11.2924 157.869 11.1853 157.488 11.1853H157.071V9.11138H163.308V13.9407H171.623ZM163.308 17.3728V20.766C163.308 21.0435 163.349 21.2042 163.442 21.2577C163.53 21.3064 163.688 21.3307 163.915 21.3307H171.02C171.248 21.3307 171.405 21.2869 171.493 21.1993C171.582 21.1117 171.628 20.9559 171.628 20.7271V17.3728H163.308ZM190.993 18.1128H186.515V24.7288H182.38V10.5719C182.38 10.2408 182.264 9.91951 182.037 9.61281C181.805 9.30611 181.461 9.15033 181.002 9.15033H180.315V7.49512H186.515V14.8024H190.993V18.1128Z" fill="white"/>
<path d="M220.27 12.8113V10.8591C220.27 10.4988 220.154 10.1483 219.927 9.81241C219.695 9.4765 219.351 9.30611 218.892 9.30611H218.205V7.49998H224.405V31.3448H220.27V21.988H212.553V23.2537C212.553 24.2176 212.312 24.9479 211.829 25.4396C211.346 25.9313 210.678 26.1795 209.829 26.1795H199.773C198.924 26.1795 198.255 25.9313 197.777 25.4396C197.295 24.9479 197.054 24.2176 197.054 23.2537V12.4851C197.054 12.1005 196.942 11.8035 196.729 11.5991C196.511 11.3946 196.228 11.2924 195.884 11.2924H195.504V9.30611H201.188V15.1237H208.423V12.0908C208.423 11.7062 208.311 11.4092 208.093 11.2047C207.875 11.0003 207.592 10.898 207.249 10.898H206.868V8.94586H212.553V12.8113H220.27ZM205.838 37.0601C205.838 37.2256 205.889 37.3522 205.996 37.4447C206.103 37.5372 206.246 37.5859 206.432 37.5859H224.4V40.7405H204.167C203.082 40.7405 202.279 40.5117 201.75 40.059C201.221 39.6014 200.956 38.8857 200.956 37.9023V32.888C200.956 32.4888 200.822 32.1529 200.562 31.8705C200.297 31.5882 199.903 31.4519 199.374 31.4519H198.58V29.6993H205.838V37.0601ZM201.188 18.4098V22.3823C201.188 22.65 201.23 22.8058 201.309 22.8496C201.388 22.8983 201.532 22.9227 201.74 22.9227H207.871C208.075 22.9227 208.219 22.8788 208.302 22.7961C208.381 22.7133 208.423 22.5624 208.423 22.3433V18.4098H201.188ZM212.553 15.8831V18.9161H220.27V15.8831H212.553Z" fill="white"/>
<path d="M232.062 16.8032V13.5074H242.573V10.679C242.573 10.2408 242.447 9.88544 242.201 9.61281C241.955 9.34019 241.621 9.20388 241.204 9.20388H240.851V7.49998H247.417V13.5074H257.849V16.8032H252.025C252.754 17.5773 253.32 18.4487 253.724 19.4175C254.127 20.3863 254.332 21.4281 254.332 22.5381C254.332 24.5292 253.691 26.2964 252.415 27.8494C251.139 29.3975 249.524 30.4344 247.57 30.9504V37.3084H260.137V40.799H230.094V37.3084H242.726V31.0673C240.665 30.5756 238.962 29.5435 237.607 27.9662C236.252 26.3889 235.575 24.5827 235.575 22.5381C235.575 21.4281 235.774 20.3863 236.183 19.4175C236.586 18.4487 237.152 17.5773 237.881 16.8032H232.062ZM241.751 18.8577C240.865 19.8897 240.424 21.1214 240.424 22.5381C240.424 23.9596 240.874 25.1864 241.77 26.2185C242.67 27.2506 243.728 27.7715 244.953 27.7715C246.178 27.7715 247.241 27.2554 248.137 26.2185C249.037 25.1864 249.482 23.9596 249.482 22.5381C249.482 21.1165 249.028 19.8897 248.113 18.8577C247.199 17.8256 246.132 17.3095 244.907 17.3095C243.691 17.3047 242.638 17.8207 241.751 18.8577Z" fill="white"/>
<path d="M273.766 16.6329C273.766 19.9822 274.685 22.6695 276.523 24.6898C278.36 26.715 280.068 27.8932 281.655 28.2291C281.771 28.2534 281.827 28.2972 281.827 28.3556C281.827 28.4141 281.804 28.4725 281.757 28.5163L279.623 31.116C278.221 30.707 276.718 29.8356 275.112 28.4968C273.506 27.1581 272.425 25.7803 271.873 24.3588C271.826 24.2128 271.748 24.1397 271.632 24.1397C271.516 24.1397 271.427 24.2128 271.358 24.3588C270.782 25.7803 269.706 27.1581 268.119 28.4968C266.536 29.8356 265.028 30.707 263.608 31.116L261.473 28.5163C261.427 28.4676 261.408 28.4141 261.422 28.3556C261.432 28.2972 261.487 28.2534 261.576 28.2291C263.204 27.8201 264.926 26.6225 266.74 24.6363C268.555 22.65 269.46 19.9822 269.46 16.6329V12.4072C269.46 12.0226 269.339 11.677 269.098 11.38C268.857 11.0782 268.495 10.9272 268.012 10.9272H267.39V9.1552H273.762V16.6329H273.766ZM288.477 18.366V7.52433H282.314V9.33045H283.001C283.46 9.33045 283.804 9.50084 284.036 9.83675C284.263 10.1727 284.379 10.5232 284.379 10.8834V40.7649H288.477V21.6131H293.656V18.3611H288.477V18.366Z" fill="white"/>
<path d="M176.417 24.7288C171.229 24.7288 167.02 28.4822 167.02 33.112C167.02 37.7417 171.229 41.4951 176.417 41.4951C181.605 41.4951 185.814 37.7417 185.814 33.112C185.814 28.4822 181.61 24.7288 176.417 24.7288ZM176.454 38.0776C173.656 38.0776 171.387 35.9307 171.387 33.2823C171.387 30.634 173.656 28.4871 176.454 28.4871C179.252 28.4871 181.522 30.634 181.522 33.2823C181.522 35.9307 179.252 38.0776 176.454 38.0776Z" fill="white"/>
<path d="M317.796 7.52433V9.33045H318.482C318.942 9.33045 319.285 9.50084 319.517 9.83676C319.745 10.1727 319.861 10.5232 319.861 10.8834V32.1188C319.378 32.4304 318.766 32.6738 318.018 32.8393C317.271 33.0097 316.301 33.0925 315.109 33.0925H310.32V29.5727C311.475 29.1979 312.519 28.5796 313.452 27.7033C315.076 26.1747 315.888 24.3393 315.888 22.1973C315.888 20.0553 315.076 18.2199 313.452 16.6913C312.951 16.2239 312.417 15.8345 311.856 15.5083H317.703V12.4364H309.735V7.52433H303.266V9.11625H303.614C304.023 9.11625 304.352 9.24283 304.598 9.49598C304.839 9.74913 304.965 10.0802 304.965 10.4891V12.4413H296.918V15.5132H303.285C302.723 15.8393 302.19 16.2288 301.688 16.6961C300.064 18.2248 299.252 20.0601 299.252 22.2022C299.252 24.3442 300.064 26.1795 301.688 27.7082C302.978 28.9204 304.482 29.6457 306.194 29.894V33.0925H297.479V36.3445H313.735C315.294 36.3445 316.543 36.2909 317.471 36.1838C318.399 36.0767 319.197 35.8284 319.865 35.4439V40.7649H324V7.52433H317.796ZM302.946 22.2022C302.946 20.878 303.391 19.7826 304.287 18.9161C305.183 18.0495 306.273 17.6163 307.563 17.6163C308.853 17.6163 309.953 18.0495 310.858 18.9161C311.768 19.7826 312.222 20.878 312.222 22.2022C312.222 23.5263 311.768 24.6217 310.858 25.4882C309.949 26.3548 308.853 26.7881 307.563 26.7881C306.273 26.7881 305.183 26.3548 304.287 25.4882C303.396 24.6217 302.946 23.5263 302.946 22.2022Z" fill="white"/>
<path d="M47.8449 17.7809C47.275 14.9449 45.0514 12.7794 42.1691 12.2765C41.8981 12.2299 41.3142 12.2253 41.3142 12.2253C41.3142 12.2253 41.0479 11.6944 40.8704 11.4196C39.9315 9.96204 38.5534 9.30076 36.8156 9.501C36.2597 9.5662 35.7225 9.76179 35.1759 9.90615C34.975 9.95738 34.7788 10.0319 34.5359 10.1064C34.5359 9.87821 34.5313 9.72454 34.5359 9.57086C34.578 7.30761 33.4521 5.67305 31.4247 5.09094C31.1491 5.01177 30.6539 4.9978 30.6539 4.9978C30.6539 4.9978 30.4064 4.30858 30.2756 4.05711C30.0233 3.55883 29.7383 3.06054 29.3927 2.62745C27.9819 0.876462 26.1647 -0.0828576 23.8803 0.0056232C21.0401 0.112731 18.98 1.49117 17.6953 3.99657C17.5365 4.30858 17.2655 4.99314 17.2655 4.99314C17.2655 4.99314 16.6816 5.04903 16.3826 5.14216C14.8084 5.64045 13.8787 6.75345 13.5798 8.36473C13.477 8.92821 13.463 9.51032 13.4069 10.139C13.0986 10.0086 12.8463 9.89219 12.5847 9.79439C10.4966 8.98875 8.32437 9.57086 7.19855 11.3172C7.02104 11.5919 6.75943 12.2067 6.75943 12.2067C6.75943 12.2067 6.08207 12.2718 5.72237 12.2998C5.60091 12.3091 5.47945 12.3557 5.358 12.3883C2.0506 13.2731 -0.11228 16.0532 0.00450645 19.3783C0.0792498 21.5297 1.05559 23.2761 2.67658 24.6638C2.87278 24.8315 3.26986 25.1388 3.26986 25.1388C3.26986 25.1388 3.20446 25.5719 3.20913 25.7908C3.25584 27.6582 4.34896 29.1344 6.11477 29.7724C6.39973 29.8749 6.68936 29.9633 7.00702 30.0658C6.93228 30.1636 6.89491 30.2334 6.84352 30.2893C5.15712 32.1102 5.2599 34.5783 6.5352 36.1337C6.62863 36.2501 6.83418 36.4318 6.83418 36.4318C6.83418 36.4318 6.70805 36.8183 6.69871 36.9161C6.56323 37.922 6.42776 38.9185 6.55856 39.943C6.91827 42.6859 9.03444 45.0749 11.7252 45.6896C13.5284 46.1041 15.2475 45.8433 16.8872 45.0284C17.0834 44.9306 17.4524 44.6325 17.4524 44.6325C17.4524 44.6325 17.8448 44.8793 18.055 44.9585C20.0451 45.7269 21.9977 45.1494 23.273 43.4404C23.4833 43.1563 23.6841 42.8676 23.9037 42.5509C24.17 42.9421 24.3755 43.31 24.6418 43.6313C25.7816 45.0097 27.1784 45.6431 29.0096 45.2146C29.3646 45.1308 30.1775 44.7722 30.1775 44.7722C30.1775 44.7722 30.5558 45.0703 30.8642 45.2193C31.4808 45.4568 31.7564 45.5034 32.2095 45.6338C34.4378 46.2811 36.568 46.1274 38.474 44.7117C41.0012 42.835 41.6973 40.2551 41.1787 37.2607C41.146 37.0651 40.8938 36.6879 40.8938 36.6879C40.8938 36.6879 41.2768 36.3759 41.3983 36.2036C42.7203 34.2989 42.6222 32.329 41.146 30.5501C41.0293 30.4104 40.9171 30.2707 40.763 30.0891C40.9779 30.0285 41.1227 29.9866 41.2675 29.9447C41.431 29.8981 41.5992 29.8562 41.7627 29.7957C43.4958 29.153 44.6263 27.9842 44.7664 26.0935C44.7944 25.7209 44.7384 24.9432 44.7384 24.9432C44.7384 24.9432 45.3363 24.6452 45.5886 24.417C47.5366 22.6288 48.3728 20.4214 47.8449 17.7809ZM17.032 6.37158C17.032 6.37158 17.7934 6.22256 18.4614 6.37158C18.4614 6.37158 18.5082 5.66839 18.8352 4.81618C19.1902 4.08505 19.6386 3.4098 20.2553 2.85098C22.8246 0.508566 26.7159 1.01617 28.6779 3.95932C28.8414 4.20147 28.9816 4.46226 29.117 4.72305C29.2245 4.95589 29.6169 5.82207 29.5935 6.27379C29.5935 6.27379 30.2989 6.20393 31.1398 6.43212C33.4054 7.20516 33.5269 9.75713 32.644 11.3777C26.9121 8.05271 21.1522 8.01546 15.4156 11.3544C14.0609 9.76645 14.9812 7.00026 17.032 6.37158ZM4.64326 25.9584C4.63859 25.9072 4.63859 25.8606 4.63392 25.8141C4.62925 25.7116 4.62458 25.6092 4.62925 25.5021C4.63392 25.4322 4.62925 25.367 4.62925 25.3018C4.69465 24.552 5.04501 24.2773 5.04501 24.2773C4.45641 24.1329 4.04065 23.9234 3.75569 23.7371C2.33089 22.652 1.47602 21.2037 1.40594 19.3876C1.30317 16.7518 2.91015 14.5817 5.4888 13.8133C5.59624 13.7807 5.70836 13.7527 5.82047 13.7248C6.1428 13.6503 6.85754 13.5199 7.67971 13.5711C7.67971 13.5711 7.72643 13.0495 8.39912 12.1089C9.81457 10.3672 12.3979 10.3905 13.9582 12.4162C9.04845 16.789 7.25928 22.2096 8.6467 28.6315C6.78746 29.2229 4.83947 27.8538 4.64326 25.9584ZM21.2036 43.4869C20.2599 44.083 19.2603 44.097 18.3026 43.5475C18.2139 43.4962 18.1298 43.459 18.0504 43.4217C17.8028 43.2727 17.4991 43.0585 17.1861 42.7558C17.1861 42.7558 16.9899 43.0492 16.2986 43.7524C14.7056 44.586 13.0332 44.7862 11.2861 44.083C9.14188 43.2215 7.78249 41.1259 7.88059 38.7462C7.90394 38.1921 8.01606 37.6332 8.12817 37.0884C8.13752 37.0418 8.14686 36.9952 8.15153 36.9487C8.36642 36.2315 8.614 36.1151 8.614 36.1151C8.31503 35.9428 8.08146 35.7379 7.89927 35.5516C7.86657 35.505 7.83387 35.4585 7.79183 35.4166C6.25025 33.6795 7.09578 31.8028 8.32437 30.8109C8.56729 30.6153 8.82422 30.4384 9.13254 30.2102C11.7999 36.3014 16.4153 39.7428 23.0815 40.4506C22.8433 41.7639 22.292 42.7977 21.2036 43.4869ZM23.9504 39.5379C15.6772 39.5146 9.07648 32.8273 9.09984 24.4915C9.11852 16.3932 15.8548 9.77111 24.0485 9.78973C32.2189 9.80836 38.9271 16.5143 38.9178 24.6452C38.9131 32.8739 32.1955 39.5565 23.9504 39.5379ZM40.0856 35.5889C40.0249 35.6541 39.9688 35.7239 39.9221 35.7891C39.6839 36.0033 39.3802 36.1756 39.0205 36.2036C39.0205 36.2036 39.5577 36.6599 39.8147 37.6379C40.1837 39.2864 39.9595 40.8651 38.9318 42.2994C37.3528 44.5068 34.6714 45.2239 32.1255 44.1389C31.9853 44.0784 31.8498 44.0178 31.7144 43.948C30.5932 43.3519 30.2662 42.7511 30.2662 42.7511C29.6729 43.5056 29.2105 43.6872 29.2105 43.6872C28.094 44.2181 27.0429 44.0225 26.1366 43.1796C25.3565 42.4484 24.8894 41.559 24.7539 40.4553C31.3593 39.822 36.0261 36.5016 38.7589 30.4709C40.9031 31.2719 41.5898 33.9589 40.0856 35.5889ZM44.7804 23.2807C44.6777 23.3785 44.0096 24.0118 43.1174 24.0258C43.1174 24.0258 43.3089 24.5241 43.379 25.069C43.379 25.1248 43.3697 25.1761 43.3743 25.232C43.6219 27.6768 41.716 28.9016 39.469 28.7386C39.441 28.7386 39.4176 28.706 39.3615 28.6641C39.9688 25.679 40.0296 22.6893 39.0579 19.7461C38.0909 16.8216 36.3064 14.442 34.0034 12.3743C35.0918 11.3218 36.2924 10.6978 37.7919 10.8981C38.8897 11.0424 39.5858 11.7596 40.0062 12.7282C40.0202 12.7608 40.0342 12.7888 40.0529 12.8214C40.1417 13.0402 40.2398 13.3709 40.165 13.6503C40.165 13.6503 40.6135 13.4035 41.8981 13.6363C44.1731 14.102 45.9016 15.6527 46.4341 17.8089C46.9713 19.9836 46.2706 21.7765 44.7804 23.2807Z" fill="white"/>
<path d="M25.0762 37.4935C30.2242 36.8928 33.952 34.2803 35.956 29.4883C39.0532 22.0746 34.592 13.7481 26.7066 12.0716C26.0058 11.9226 25.2911 11.8388 24.539 11.7177C24.539 11.2799 24.539 10.8515 24.539 10.4091C24.1559 10.4091 23.8196 10.4091 23.4412 10.4091C23.4412 10.8608 23.4412 11.2753 23.4412 11.6851C16.3359 12.0064 11.3982 18.0697 11.1039 23.7231C10.9497 26.6896 11.6131 29.4231 13.3228 31.8866C15.7707 35.4119 19.1995 37.2094 23.4646 37.568C23.4646 37.759 23.4646 38.9698 23.4646 38.9698L24.5624 38.993L24.5577 37.5541C24.553 37.5541 24.6464 37.5401 25.0762 37.4935ZM11.9868 24.6405C12.0195 18.065 17.4477 12.663 24.0205 12.6723C30.5605 12.677 35.9887 18.0836 36.0308 24.6312C36.0728 31.1602 30.6166 36.5994 24.0111 36.6041C17.401 36.6041 11.9494 31.1834 11.9868 24.6405Z" fill="white"/>
<path d="M35.928 16.7145C33.312 12.8353 29.6683 10.7258 24.9548 10.3718C24.9548 10.7025 24.9548 10.9633 24.9548 11.2613C28.4116 11.5733 31.3733 12.9424 33.7558 15.4478C36.1569 17.9719 37.3855 21.0035 37.4603 24.4729C37.521 27.4952 36.582 30.2334 34.7695 32.6504C32.3263 35.9055 29.0236 37.6798 24.9828 38.0989C24.9828 38.4063 24.9828 38.6671 24.9828 38.9977C29.8224 38.3923 33.7885 36.4178 36.255 32.1009C39.198 26.9364 39.3382 21.7719 35.928 16.7145Z" fill="white"/>
<path d="M10.5293 24.9991C10.3004 18.7775 15.2288 11.7922 23.0395 11.2054C23.0395 10.954 23.0395 10.6978 23.0395 10.3625C17.9149 10.8329 14.0142 13.1799 11.5197 17.6273C8.43649 23.1224 9.01108 28.4452 12.6828 33.4513C15.2241 36.9161 18.8071 38.5413 23.0441 38.9698C23.0441 38.6298 23.0441 38.3876 23.0441 38.1082C16.1631 37.6332 10.7769 31.8168 10.5293 24.9991Z" fill="white"/>
<path d="M23.8383 13.2172C17.5925 13.2545 12.4913 18.4329 12.5334 24.6918C12.5801 31.0391 17.7374 36.1477 24.0578 36.1104C30.2802 36.0732 35.5216 30.8388 35.4842 24.7057C35.4469 18.2699 30.2942 13.1799 23.8383 13.2172ZM23.885 35.1791C18.1765 35.1791 13.4256 30.3545 13.4396 24.5614C13.4536 18.8474 18.2372 14.1346 24.0158 14.1393C29.8224 14.1439 34.5686 18.8939 34.5546 24.6918C34.5453 30.4849 29.771 35.1744 23.885 35.1791Z" fill="white"/>
<path d="M31.677 27.4673C31.0043 24.9479 30.2896 22.4425 29.5889 19.9278C29.5048 19.6297 29.4253 19.3363 29.3506 19.0569C29.4113 19.0104 29.4347 18.9731 29.4581 18.9778C30.1494 19.0057 29.9626 18.5074 30.0093 18.1162C30.07 17.6133 29.715 17.6552 29.416 17.604C27.7997 17.3246 26.1834 17.0498 24.567 16.7704C24.5343 16.4211 24.5063 16.1138 24.4783 15.8018C24.1186 15.8018 23.8009 15.8018 23.4459 15.8018C23.4459 16.1324 23.4459 16.4258 23.4459 16.7657C21.7548 17.0591 20.1198 17.3385 18.4895 17.6366C18.3447 17.6645 18.1064 17.7623 18.0971 17.8555C18.0504 18.1768 18.0363 18.5214 18.1204 18.8287C18.1485 18.9358 18.4895 18.9591 18.7137 19.029C18.6623 19.2246 18.6156 19.4202 18.5642 19.6111C17.8168 22.2376 17.0693 24.8641 16.3266 27.4952C16.051 28.4731 16.1818 29.3952 16.8591 30.1822C17.742 31.2021 19.1808 31.4535 20.3674 30.8156C21.5259 30.1962 22.1005 28.8736 21.7501 27.5837C21.3531 26.1214 20.942 24.6685 20.5309 23.2109C20.1478 21.8324 19.7601 20.454 19.3584 19.029C20.7458 19.029 22.0678 19.029 23.4085 19.029C23.4506 19.2199 23.4926 19.4109 23.5346 19.6064C23.857 19.6064 24.1513 19.6064 24.4549 19.6064C24.497 19.4015 24.5297 19.2199 24.5717 19.0197C25.9218 19.0197 27.2578 19.0197 28.6686 19.0197C28.4957 19.6437 28.3416 20.2305 28.1781 20.8079C27.5287 23.1038 26.8467 25.3903 26.2347 27.7001C25.8423 29.195 26.7579 30.6852 28.2014 31.067C30.4297 31.6445 32.2843 29.7398 31.677 27.4673ZM18.653 27.9562C18.041 27.9562 17.4524 27.9562 16.8031 27.9562C17.401 25.8932 17.9896 23.8768 18.5736 21.8604C18.6016 21.8604 18.6296 21.865 18.653 21.865C18.653 23.8861 18.653 25.9072 18.653 27.9562ZM19.3911 21.6834C19.4144 21.6741 19.4424 21.6694 19.4658 21.6601C20.0637 23.7417 20.6617 25.8234 21.269 27.9516C20.6103 27.9516 20.017 27.9516 19.3911 27.9516C19.3911 25.8513 19.3911 23.7697 19.3911 21.6834ZM28.6172 27.9562C28.0146 27.9562 27.44 27.9562 26.772 27.9562C27.3606 25.9212 27.9398 23.9234 28.5191 21.9209C28.5518 21.9256 28.5845 21.9302 28.6125 21.9395C28.6172 23.9234 28.6172 25.9119 28.6172 27.9562ZM29.3459 27.9516C29.3459 25.828 29.3459 23.7138 29.3459 21.5996C29.3646 21.5903 29.3833 21.581 29.4067 21.5763C30.014 23.6766 30.6166 25.7815 31.2425 27.9516C30.5652 27.9516 29.9766 27.9516 29.3459 27.9516Z" fill="white"/>
</svg>
