<svg width="25" height="24" viewBox="0 0 25 24" fill="none" xmlns="http://www.w3.org/2000/svg">
<path d="M24.8775 8.94572C24.5926 7.52169 23.4808 6.43438 22.0396 6.18184C21.9042 6.15846 21.6122 6.15612 21.6122 6.15612C21.6122 6.15612 21.479 5.88956 21.3903 5.7516C20.9208 5.01971 20.2318 4.68766 19.3629 4.78821C19.0849 4.82095 18.8163 4.91916 18.543 4.99165C18.4426 5.01737 18.3445 5.05478 18.223 5.09219C18.223 4.97762 18.2207 4.90045 18.223 4.82329C18.2441 3.68687 17.6812 2.86612 16.6674 2.57383C16.5296 2.53408 16.2821 2.52707 16.2821 2.52707C16.2821 2.52707 16.1583 2.181 16.0929 2.05473C15.9667 1.80453 15.8242 1.55433 15.6514 1.33687C14.946 0.457666 14.0374 -0.0240262 12.8952 0.0204016C11.4751 0.0741827 10.4451 0.766322 9.80274 2.02433C9.72332 2.181 9.58785 2.52473 9.58785 2.52473C9.58785 2.52473 9.29588 2.55279 9.1464 2.59956C8.35926 2.84975 7.89445 3.40861 7.74496 4.21767C7.69357 4.5006 7.68657 4.79289 7.65854 5.10856C7.50438 5.04309 7.37825 4.98463 7.24745 4.93553C6.20338 4.531 5.11727 4.82329 4.55435 5.70015C4.4656 5.83811 4.3348 6.14677 4.3348 6.14677C4.3348 6.14677 3.99612 6.17951 3.81626 6.19354C3.75554 6.19821 3.69481 6.2216 3.63408 6.23796C1.98038 6.68224 0.898938 8.07821 0.957331 9.74776C0.994703 10.8281 1.48287 11.7049 2.29337 12.4017C2.39147 12.4859 2.59001 12.6403 2.59001 12.6403C2.59001 12.6403 2.55731 12.8577 2.55964 12.9676C2.583 13.9053 3.12956 14.6465 4.01247 14.9669C4.15494 15.0183 4.29976 15.0627 4.45859 15.1142C4.42122 15.1633 4.40253 15.1984 4.37684 15.2264C3.53364 16.1407 3.58503 17.38 4.22268 18.161C4.2694 18.2195 4.37217 18.3107 4.37217 18.3107C4.37217 18.3107 4.3091 18.5047 4.30443 18.5538C4.2367 19.0589 4.16896 19.5593 4.23436 20.0737C4.41421 21.451 5.4723 22.6506 6.81768 22.9592C7.71927 23.1673 8.57882 23.0364 9.39866 22.6272C9.49676 22.5781 9.68128 22.4284 9.68128 22.4284C9.68128 22.4284 9.87748 22.5523 9.98259 22.5921C10.9776 22.9779 11.9539 22.688 12.5916 21.8298C12.6967 21.6872 12.7971 21.5422 12.9069 21.3832C13.0401 21.5796 13.1428 21.7643 13.276 21.9257C13.8459 22.6178 14.5443 22.9358 15.4599 22.7207C15.6374 22.6786 16.0438 22.4986 16.0438 22.4986C16.0438 22.4986 16.233 22.6482 16.3872 22.723C16.6955 22.8423 16.8333 22.8657 17.0598 22.9311C18.174 23.2562 19.2391 23.179 20.1921 22.4682C21.4557 21.5258 21.8037 20.2304 21.5444 18.7269C21.5281 18.6287 21.402 18.4393 21.402 18.4393C21.402 18.4393 21.5935 18.2826 21.6542 18.1961C22.3152 17.2397 22.2662 16.2506 21.5281 15.3574C21.4697 15.2872 21.4136 15.2171 21.3366 15.1259C21.444 15.0955 21.5164 15.0744 21.5888 15.0534C21.6706 15.03 21.7547 15.009 21.8364 14.9786C22.703 14.6559 23.2682 14.069 23.3383 13.1196C23.3523 12.9325 23.3243 12.542 23.3243 12.542C23.3243 12.542 23.6232 12.3924 23.7494 12.2778C24.7234 11.3799 25.1415 10.2715 24.8775 8.94572ZM9.47106 3.21687C9.47106 3.21687 9.85179 3.14204 10.1858 3.21687C10.1858 3.21687 10.2092 2.86379 10.3727 2.43587C10.5502 2.06876 10.7744 1.72971 11.0827 1.44911C12.3674 0.272939 14.313 0.527814 15.294 2.00563C15.3758 2.12722 15.4459 2.25816 15.5136 2.38911C15.5673 2.50602 15.7635 2.94095 15.7518 3.16776C15.7518 3.16776 16.1045 3.13269 16.525 3.24727C17.6578 3.63543 17.7185 4.91682 17.2771 5.73055C14.4111 4.061 11.5312 4.04229 8.6629 5.71886C7.98554 4.9215 8.44568 3.53254 9.47106 3.21687ZM3.27671 13.0518C3.27437 13.0261 3.27437 13.0027 3.27204 12.9793C3.2697 12.9279 3.26737 12.8764 3.2697 12.8226C3.27204 12.7876 3.2697 12.7548 3.2697 12.7221C3.3024 12.3456 3.47758 12.2077 3.47758 12.2077C3.18328 12.1352 2.9754 12.03 2.83292 11.9364C2.12052 11.3916 1.69309 10.6644 1.65805 9.75244C1.60666 8.42896 2.41015 7.33931 3.69948 6.95349C3.7532 6.93712 3.80926 6.92309 3.86531 6.90906C4.02648 6.87164 4.38385 6.80617 4.79493 6.83189C4.79493 6.83189 4.81829 6.57 5.15464 6.09766C5.86236 5.22314 7.15402 5.23483 7.93415 6.25199C5.4793 8.44767 4.58472 11.1695 5.27843 14.394C4.34881 14.6909 3.37481 14.0035 3.27671 13.0518ZM11.5569 21.8532C11.0851 22.1525 10.5852 22.1595 10.1064 21.8836C10.062 21.8579 10.02 21.8392 9.98025 21.8204C9.85646 21.7456 9.70464 21.6381 9.54814 21.4861C9.54814 21.4861 9.45004 21.6334 9.10435 21.9865C8.30787 22.405 7.47168 22.5056 6.59812 22.1525C5.52602 21.7199 4.84632 20.6677 4.89537 19.4728C4.90705 19.1945 4.96311 18.9139 5.01916 18.6404C5.02384 18.617 5.02851 18.5936 5.03084 18.5702C5.13829 18.2101 5.26208 18.1516 5.26208 18.1516C5.11259 18.0651 4.99581 17.9622 4.90471 17.8687C4.88836 17.8453 4.87201 17.8219 4.85099 17.8009C4.0802 16.9287 4.50297 15.9864 5.11727 15.4883C5.23872 15.3901 5.36719 15.3012 5.52135 15.1867C6.85505 18.2452 9.16275 19.9732 12.4958 20.3286C12.3767 20.988 12.1011 21.5071 11.5569 21.8532ZM12.9303 19.8703C8.7937 19.8586 5.49332 16.5008 5.505 12.3152C5.51434 8.24891 8.88246 4.92383 12.9793 4.93319C17.0645 4.94254 20.4186 8.3097 20.414 12.3924C20.4116 16.5242 17.0528 19.8797 12.9303 19.8703ZM20.9979 17.8874C20.9675 17.9202 20.9395 17.9552 20.9161 17.988C20.797 18.0955 20.6452 18.182 20.4653 18.1961C20.4653 18.1961 20.7339 18.4252 20.8624 18.9163C21.0469 19.744 20.9348 20.5367 20.421 21.2569C19.6315 22.3653 18.2908 22.7254 17.0178 22.1805C16.9477 22.1502 16.88 22.1198 16.8123 22.0847C16.2517 21.7854 16.0882 21.4837 16.0882 21.4837C15.7915 21.8625 15.5603 21.9537 15.5603 21.9537C15.0021 22.2203 14.4765 22.1221 14.0234 21.6989C13.6333 21.3317 13.3998 20.8851 13.332 20.3309C16.6347 20.0129 18.9681 18.3457 20.3345 15.3176C21.4066 15.7198 21.75 17.069 20.9979 17.8874ZM23.3453 11.7073C23.2939 11.7564 22.9599 12.0744 22.5138 12.0814C22.5138 12.0814 22.6095 12.3316 22.6446 12.6052C22.6446 12.6332 22.6399 12.659 22.6422 12.687C22.766 13.9146 21.8131 14.5296 20.6896 14.4478C20.6756 14.4478 20.6639 14.4314 20.6358 14.4104C20.9395 12.9115 20.9699 11.4103 20.484 9.93249C20.0005 8.46403 19.1083 7.26916 17.9568 6.23095C18.501 5.70249 19.1013 5.38916 19.851 5.48971C20.3999 5.56219 20.748 5.92229 20.9582 6.40866C20.9652 6.42503 20.9722 6.43906 20.9815 6.45543C21.0259 6.56533 21.075 6.73135 21.0376 6.87165C21.0376 6.87165 21.2618 6.74772 21.9042 6.86463C23.0416 7.09846 23.9059 7.87712 24.1721 8.95975C24.4408 10.0517 24.0904 10.952 23.3453 11.7073Z" fill="white"/>
<path d="M13.4932 18.8438C16.0672 18.5421 17.9311 17.2304 18.9331 14.8242C20.4817 11.1016 18.2511 6.92075 14.3084 6.07896C13.958 6.00413 13.6006 5.96204 13.2246 5.90125C13.2246 5.68145 13.2246 5.46632 13.2246 5.24418C13.0331 5.24418 12.8649 5.24418 12.6757 5.24418C12.6757 5.471 12.6757 5.67911 12.6757 5.88488C9.12304 6.04622 6.65418 9.0907 6.50702 11.9294C6.42994 13.4189 6.76162 14.7915 7.6165 16.0285C8.84042 17.7986 10.5548 18.7011 12.6874 18.8812C12.6874 18.9771 12.6874 19.585 12.6874 19.585L13.2363 19.5967L13.2339 18.8742C13.2316 18.8742 13.2783 18.8672 13.4932 18.8438ZM6.94848 12.3901C6.96483 9.08836 9.67894 6.37592 12.9653 6.3806C16.2353 6.38294 18.9495 9.09772 18.9705 12.3854C18.9915 15.6637 16.2634 18.3948 12.9606 18.3972C9.65559 18.3972 6.92979 15.6754 6.94848 12.3901Z" fill="white"/>
<path d="M18.9191 8.41025C17.6111 6.46244 15.7892 5.40319 13.4325 5.22548C13.4325 5.3915 13.4325 5.52244 13.4325 5.67209C15.1609 5.82876 16.6418 6.51622 17.833 7.77423C19.0335 9.0416 19.6478 10.5638 19.6852 12.3059C19.7156 13.8234 19.2461 15.1984 18.3398 16.4119C17.1182 18.0464 15.4669 18.9373 13.4465 19.1478C13.4465 19.3021 13.4465 19.433 13.4465 19.5991C15.8663 19.2951 17.8493 18.3036 19.0826 16.136C20.5541 13.5428 20.6242 10.9497 18.9191 8.41025Z" fill="white"/>
<path d="M6.21973 12.5701C6.10528 9.44612 8.56947 5.93866 12.4748 5.64403C12.4748 5.51777 12.4748 5.38916 12.4748 5.2208C9.91252 5.45697 7.96218 6.63548 6.7149 8.86856C5.17332 11.6278 5.46062 14.3005 7.2965 16.8141C8.56714 18.5538 10.3586 19.3699 12.4771 19.585C12.4771 19.4143 12.4771 19.2927 12.4771 19.1524C9.03662 18.9139 6.34352 15.9934 6.21973 12.5701Z" fill="white"/>
<path d="M12.8742 6.65418C9.75135 6.67289 7.20074 9.27309 7.22176 12.4158C7.24511 15.6029 9.82376 18.168 12.984 18.1493C16.0952 18.1306 18.7159 15.5023 18.6972 12.4228C18.6785 9.19125 16.1022 6.63548 12.8742 6.65418ZM12.8976 17.6816C10.0433 17.6816 7.66788 15.2592 7.67489 12.3503C7.6819 9.4812 10.0737 7.11483 12.963 7.11717C15.8663 7.11951 18.2394 9.50458 18.2324 12.4158C18.2277 15.3246 15.8406 17.6793 12.8976 17.6816Z" fill="white"/>
<path d="M16.7936 13.8094C16.4572 12.5444 16.0999 11.2864 15.7495 10.0237C15.7075 9.87403 15.6678 9.72672 15.6304 9.58642C15.6607 9.56304 15.6724 9.54433 15.6841 9.54667C16.0298 9.5607 15.9364 9.3105 15.9597 9.11408C15.9901 8.86155 15.8126 8.88259 15.6631 8.85687C14.8549 8.71657 14.0468 8.57861 13.2386 8.43831C13.2222 8.26294 13.2082 8.10861 13.1942 7.95194C13.0144 7.95194 12.8555 7.95194 12.678 7.95194C12.678 8.11796 12.678 8.26528 12.678 8.43597C11.8325 8.58329 11.015 8.72359 10.1998 8.87324C10.1274 8.88727 10.0083 8.93637 10.0036 8.98314C9.98025 9.14448 9.97325 9.31752 10.0153 9.47184C10.0293 9.52563 10.1998 9.53732 10.3119 9.57239C10.2862 9.6706 10.2629 9.76881 10.2372 9.86468C9.86347 11.1835 9.48975 12.5023 9.11837 13.8234C8.98056 14.3145 9.04596 14.7775 9.38464 15.1726C9.82609 15.6847 10.5455 15.811 11.1388 15.4906C11.718 15.1797 12.0053 14.5156 11.8302 13.8679C11.6316 13.1336 11.4261 12.4041 11.2205 11.6722C11.029 10.9801 10.8351 10.2879 10.6343 9.57239C11.328 9.57239 11.989 9.57239 12.6593 9.57239C12.6804 9.66826 12.7014 9.76413 12.7224 9.86234C12.8836 9.86234 13.0307 9.86234 13.1825 9.86234C13.2036 9.75946 13.2199 9.66826 13.2409 9.56772C13.916 9.56772 14.584 9.56772 15.2894 9.56772C15.2029 9.88105 15.1259 10.1757 15.0441 10.4656C14.7194 11.6184 14.3784 12.7665 14.0724 13.9263C13.8762 14.6769 14.3341 15.4252 15.0558 15.6169C16.1699 15.9069 17.0972 14.9505 16.7936 13.8094ZM10.2816 14.0549C9.97558 14.0549 9.68128 14.0549 9.35661 14.0549C9.65559 13.0191 9.94989 12.0066 10.2419 10.9941C10.2559 10.9941 10.2699 10.9964 10.2816 10.9964C10.2816 12.0112 10.2816 13.0261 10.2816 14.0549ZM10.6506 10.9052C10.6623 10.9006 10.6763 10.8982 10.688 10.8935C10.987 11.9388 11.2859 12.984 11.5896 14.0526C11.2602 14.0526 10.9636 14.0526 10.6506 14.0526C10.6506 12.998 10.6506 11.9528 10.6506 10.9052ZM15.2637 14.0549C14.9624 14.0549 14.6751 14.0549 14.3411 14.0549C14.6354 13.0331 14.925 12.03 15.2146 11.0245C15.231 11.0268 15.2473 11.0292 15.2613 11.0338C15.2637 12.03 15.2637 13.0284 15.2637 14.0549ZM15.628 14.0526C15.628 12.9863 15.628 11.9247 15.628 10.8631C15.6374 10.8585 15.6467 10.8538 15.6584 10.8514C15.9621 11.906 16.2634 12.9629 16.5764 14.0526C16.2377 14.0526 15.9434 14.0526 15.628 14.0526Z" fill="white"/>
</svg>
