<svg width="13" height="13" viewBox="0 0 13 13" fill="none" xmlns="http://www.w3.org/2000/svg">
<path d="M7.4122 6.30976L12.1338 1.59567C12.2749 1.45455 12.3542 1.26314 12.3542 1.06356C12.3542 0.863977 12.2749 0.67257 12.1338 0.531444C11.9927 0.390319 11.8012 0.311035 11.6017 0.311035C11.4021 0.311035 11.2107 0.390319 11.0696 0.531444L6.35547 5.25302L1.64139 0.531444C1.50026 0.390319 1.30885 0.311035 1.10927 0.311035C0.90969 0.311035 0.718282 0.390319 0.577157 0.531444C0.436031 0.67257 0.356748 0.863977 0.356748 1.06356C0.356748 1.26314 0.436031 1.45455 0.577157 1.59567L5.29874 6.30976L0.577157 11.0238C0.506911 11.0935 0.451156 11.1764 0.413107 11.2677C0.375058 11.3591 0.355469 11.457 0.355469 11.556C0.355469 11.6549 0.375058 11.7528 0.413107 11.8442C0.451156 11.9355 0.506911 12.0184 0.577157 12.0881C0.646829 12.1583 0.729719 12.2141 0.821047 12.2521C0.912376 12.2902 1.01033 12.3098 1.10927 12.3098C1.20821 12.3098 1.30617 12.2902 1.39749 12.2521C1.48882 12.2141 1.57171 12.1583 1.64139 12.0881L6.35547 7.36649L11.0696 12.0881C11.1392 12.1583 11.2221 12.2141 11.3134 12.2521C11.4048 12.2902 11.5027 12.3098 11.6017 12.3098C11.7006 12.3098 11.7986 12.2902 11.8899 12.2521C11.9812 12.2141 12.0641 12.1583 12.1338 12.0881C12.204 12.0184 12.2598 11.9355 12.2978 11.8442C12.3359 11.7528 12.3555 11.6549 12.3555 11.556C12.3555 11.457 12.3359 11.3591 12.2978 11.2677C12.2598 11.1764 12.204 11.0935 12.1338 11.0238L7.4122 6.30976Z" fill="#FF4E4E"/>
</svg>
