<svg width="16" height="16" viewBox="0 0 16 16" fill="none" xmlns="http://www.w3.org/2000/svg">
<path d="M14 11.3333V6C14 2.69133 11.3087 0 8 0C4.69133 0 2 2.69133 2 6V11.3333C0.897333 11.3333 0 12.2307 0 13.3333V16H16V13.3333C16 12.2307 15.1027 11.3333 14 11.3333ZM3.33333 6C3.33333 3.42733 5.42733 1.33333 8 1.33333C10.5727 1.33333 12.6667 3.42733 12.6667 6V11.3333H3.33333V6ZM14.6667 14.6667H1.33333V13.3333C1.33333 12.9653 1.632 12.6667 2 12.6667H14C14.368 12.6667 14.6667 12.9653 14.6667 13.3333V14.6667ZM8 3.33333V4.66667C7.26467 4.66667 6.66667 5.26467 6.66667 6H5.33333C5.33333 4.52933 6.52933 3.33333 8 3.33333Z" fill="#FF4F4F"/>
</svg>
