<svg width="83" height="77" viewBox="0 0 83 77" fill="none" xmlns="http://www.w3.org/2000/svg">
<path d="M42.2734 76.1624V58.6447L51.6313 59.6712L46.2106 43.8271C42.318 32.1896 32.2909 31.6875 32.2909 31.6875H22.208C22.208 31.6875 12.1696 32.1896 8.28816 43.8271L2.64441 60.0729L11.0097 58.6447V76.1624" fill="#1C4EBA"/>
<path d="M42.2733 76.9985C41.816 76.9985 41.4368 76.6191 41.4368 76.1616V58.6439C41.4368 58.4096 41.5372 58.1753 41.7156 58.0191C41.8941 57.8629 42.1283 57.7848 42.3626 57.8071L50.4155 58.6885L45.4187 44.083C41.7714 33.1484 32.6366 32.5235 32.2462 32.5012H22.2079C21.8621 32.5235 12.7273 33.1484 9.08 44.0718L3.89353 58.9898L10.8646 57.7959C11.11 57.7513 11.3553 57.8294 11.545 57.9856C11.7346 58.1418 11.8461 58.3761 11.8461 58.6216V76.1393C11.8461 76.5968 11.4669 76.9762 11.0096 76.9762C10.5523 76.9762 10.1731 76.5968 10.1731 76.1393V59.6146L2.78933 60.8755C2.49934 60.9313 2.19819 60.8197 2.00858 60.5854C1.81897 60.3622 1.7632 60.0498 1.85243 59.7708L7.49618 43.5251C11.5115 31.497 22.0629 30.8276 22.1633 30.8164H32.2796C32.4246 30.8164 42.976 31.4859 46.9913 43.5251L52.412 59.3692C52.5012 59.637 52.4566 59.9382 52.2782 60.1614C52.0997 60.3845 51.8209 60.4961 51.5309 60.4738L43.0987 59.5477V76.1393C43.0987 76.5968 42.7195 76.9762 42.2622 76.9762L42.2733 76.9985Z" fill="#1F2023"/>
<path d="M36.9083 19.3913C36.9083 24.9256 32.5807 29.3999 27.2492 29.3999C21.9178 29.3999 17.579 24.9144 17.579 19.3913C17.579 13.8682 21.9066 9.38281 27.2492 9.38281C32.5918 9.38281 36.9083 13.8682 36.9083 19.3913Z" fill="white"/>
<path d="M27.2492 30.2376C21.4604 30.2376 16.7424 25.3728 16.7424 19.3922C16.7424 13.4117 21.4493 8.54688 27.2492 8.54688C33.0491 8.54688 37.7448 13.4117 37.7448 19.3922C37.7448 25.3728 33.0379 30.2376 27.2492 30.2376ZM27.2492 10.2205C22.375 10.2205 18.4155 14.3378 18.4155 19.3922C18.4155 24.4467 22.375 28.5639 27.2492 28.5639C32.1233 28.5639 36.0717 24.4467 36.0717 19.3922C36.0717 14.3378 32.1122 10.2205 27.2492 10.2205Z" fill="#1F2023"/>
<path d="M38.5815 74.3781C38.5815 75.36 37.7227 76.1634 36.6519 76.1634H16.4638C15.393 76.1634 14.5342 75.36 14.5342 74.3781V39.3204C14.5342 38.3385 15.393 37.5352 16.4638 37.5352H36.6519C37.7227 37.5352 38.5815 38.3274 38.5815 39.3204V74.3781Z" fill="white"/>
<path d="M36.6519 77.0011H16.4637C14.9357 77.0011 13.6976 75.8296 13.6976 74.379V39.3213C13.6976 37.882 14.9357 36.6992 16.4637 36.6992H36.6519C38.1799 36.6992 39.418 37.8708 39.418 39.3213V74.379C39.418 75.8296 38.1799 77.0011 36.6519 77.0011ZM16.4637 38.3729C15.8614 38.3729 15.3707 38.7969 15.3707 39.3213V74.379C15.3707 74.9035 15.8614 75.3275 16.4637 75.3275H36.6519C37.2542 75.3275 37.7449 74.9035 37.7449 74.379V39.3213C37.7449 38.7969 37.2542 38.3729 36.6519 38.3729H16.4637Z" fill="#1F2023"/>
<path d="M46.8241 55.7085L41.4481 49.4825C39.775 47.5522 36.8528 47.3402 34.9232 49.0027C32.9936 50.6764 32.7817 53.5997 34.4547 55.53L45.5861 68.4061C47.2591 70.3364 50.1814 70.5484 52.111 68.8859C54.0406 67.2122 54.0517 64.0099 52.7914 61.7114L51.2298 58.9443" fill="#1C4EBA"/>
<path d="M49.0771 70.8602C47.5491 70.8602 46.021 70.2242 44.9391 68.9745L33.8077 56.0984C31.8335 53.8222 32.0901 50.3634 34.3654 48.3884C36.6519 46.4135 40.1096 46.6701 42.0726 48.9463L47.4487 55.1723C47.7498 55.5182 47.7164 56.0538 47.3594 56.3551C47.0137 56.6563 46.4783 56.6229 46.1772 56.2658L40.8011 50.0398C39.4403 48.4554 37.0311 48.288 35.4585 49.6492C33.8747 51.0216 33.7074 53.4206 35.0681 54.9938L46.1995 67.8699C47.5714 69.4543 49.9694 69.6217 51.5421 68.2604C53.1817 66.8434 53.0813 64.0316 52.044 62.1237L50.4936 59.3565C50.2706 58.9548 50.4044 58.4416 50.8171 58.2184C51.2186 57.9841 51.7317 58.1403 51.9548 58.542L53.5163 61.3091C54.8659 63.7638 55.022 67.4682 52.6574 69.5213C51.6313 70.4139 50.3598 70.849 49.0883 70.849L49.0771 70.8602Z" fill="#1F2023"/>
<path d="M7.66346 55.7085L13.0395 49.4825C14.7126 47.5522 17.6348 47.3402 19.5644 49.0027C21.494 50.6764 21.7059 53.5997 20.0329 55.53L8.90152 68.4061C7.22847 70.3364 4.3062 70.5484 2.37662 68.8859C0.447032 67.2122 0.435895 64.0099 1.69626 61.7114L3.14622 58.5761" fill="#1C4EBA"/>
<path d="M5.4104 70.8602C4.15004 70.8602 2.87852 70.425 1.84123 69.5324C-0.523348 67.4794 -0.37835 63.775 0.971245 61.3203L2.38777 58.2407C2.57738 57.8167 3.07928 57.6382 3.49197 57.8279C3.91581 58.0176 4.09428 58.5197 3.90467 58.9437L2.46583 62.079C1.39508 64.0316 1.29469 66.8434 2.93428 68.2604C4.51811 69.6328 6.91615 69.4543 8.2769 67.8699L19.4083 54.9938C20.0663 54.2239 20.3898 53.2532 20.3229 52.2378C20.2448 51.2336 19.7875 50.3075 19.0179 49.6492C17.4341 48.2768 15.036 48.4554 13.6753 50.0398L8.29921 56.2658C7.99807 56.6117 7.46267 56.6563 7.11691 56.3551C6.77115 56.0538 6.72655 55.5182 7.0277 55.1723L12.4038 48.9463C14.378 46.6701 17.8356 46.4135 20.1109 48.3884C21.2152 49.348 21.8844 50.6757 21.9848 52.1263C22.0851 53.5768 21.6167 54.9938 20.6686 56.0984L9.53727 68.9745C8.45537 70.2242 6.92731 70.8602 5.39925 70.8602H5.4104Z" fill="#1F2023"/>
<path d="M45.8313 0.824219V24.2556V32.7466L53.6389 24.2556H81.8242V0.824219H45.8313Z" fill="#B4D200"/>
<path d="M44.9948 34.8904V0H82.6607V25.105H54.0069L44.9948 34.8904ZM46.6678 1.67367V30.6058L53.2708 23.4313H80.9877V1.67367H46.6678Z" fill="#1F2023"/>
<path d="M60.3534 11.3711H57.6096V13.0448H60.3534V11.3711Z" fill="#1F2023"/>
<path d="M66.2984 11.3711H63.5546V13.0448H66.2984V11.3711Z" fill="#1F2023"/>
<path d="M72.2321 11.3711H69.4883V13.0448H72.2321V11.3711Z" fill="#1F2023"/>
<path d="M26.5689 47.5089C25.3309 47.5089 24.327 46.5046 24.327 45.2661C24.327 44.0276 25.3309 43.0234 26.5689 43.0234C27.807 43.0234 28.8108 44.0276 28.8108 45.2661C28.8108 46.5046 27.807 47.5089 26.5689 47.5089ZM26.5689 44.1392C25.9443 44.1392 25.4424 44.6413 25.4424 45.2661C25.4424 45.891 25.9443 46.3931 26.5689 46.3931C27.1935 46.3931 27.6954 45.891 27.6954 45.2661C27.6954 44.6413 27.1935 44.1392 26.5689 44.1392Z" fill="#1F2023"/>
</svg>
