<svg width="16" height="22" viewBox="0 0 16 22" fill="none" xmlns="http://www.w3.org/2000/svg">
<path d="M16 7.92988C15.96 3.53988 12.4 -0.00012207 8 -0.00012207C3.6 -0.00012207 0.04 3.53988 0 7.92988V13.9299C0 18.3499 3.58 21.9299 8 21.9299C12.42 21.9299 16 18.3499 16 13.9299V7.92988ZM14 7.92988H9V2.08988C11.81 2.55988 13.96 4.98988 14 7.92988ZM7 2.08988V7.92988H2C2.04 4.98988 4.19 2.55988 7 2.08988ZM14 13.9299C14 17.2399 11.31 19.9299 8 19.9299C4.69 19.9299 2 17.2399 2 13.9299V9.92988H14V13.9299Z" fill="#728199"/>
</svg>
