<svg width="37" height="50" viewBox="0 0 37 50" fill="none" xmlns="http://www.w3.org/2000/svg">
<g id="Group 4098">
<path id="Vector" d="M36 38.5287C36 37.3723 35.077 36.4329 33.9407 36.4329H32.8276C33.9639 36.4329 34.887 35.4935 34.887 34.3371C34.887 33.1806 33.9639 32.2412 32.8276 32.2412H25.2613L26.9871 28.7442C27.1887 28.3377 27.2973 27.8877 27.3012 27.4338L27.309 26.8734C27.3284 25.5985 26.5566 24.446 25.3815 24L24.9627 24.9236C24.0086 27.0273 22.5659 28.8626 20.7548 30.2678L14.8755 34.8265H9V46.4187H14.8755L22.0695 49H31.7689C32.9052 49 33.8282 48.0606 33.8282 46.9042C33.8282 45.7477 32.9052 44.8083 31.7689 44.8083H32.8238C33.9601 44.8083 34.8831 43.869 34.8831 42.7125C34.8831 41.556 33.9601 40.6167 32.8238 40.6167H33.9368C35.0731 40.6167 35.9961 39.6773 35.9961 38.5208L36 38.5287Z" fill="white" stroke="#333366" stroke-linecap="round" stroke-linejoin="round"/>
<path id="Vector_2" d="M9 48H12L12 33H9L9 48Z" fill="white" stroke="#333366" stroke-linecap="round" stroke-linejoin="round"/>
<g id="Vector_3">
<path d="M1 32H9V49H1" fill="white"/>
<path d="M1 32H9V49H1" stroke="#333366" stroke-linecap="round" stroke-linejoin="round"/>
</g>
<g id="Vector_4" style="mix-blend-mode:darken">
<path d="M1 47H9L9 32H1L1 47Z" fill="#1C4EBA"/>
</g>
<path id="Vector_5" d="M25 32H23" stroke="#333366" stroke-linecap="round" stroke-linejoin="round"/>
<path id="Vector_6" d="M32.8539 10.7906L33.3865 11.8103C33.606 12.2282 34.0289 12.5195 34.5168 12.5847L35.7121 12.7495C36.944 12.9182 37.4359 14.348 36.5456 15.1683L35.6796 15.9619C35.3258 16.2877 35.1632 16.7554 35.2486 17.2154L35.4519 18.3386C35.6633 19.4962 34.3745 20.3779 33.2686 19.8336L32.1993 19.3046C31.7602 19.0861 31.2398 19.0861 30.8007 19.3046L29.7314 19.8336C28.6296 20.3817 27.3408 19.4962 27.5481 18.3386L27.7514 17.2154C27.8368 16.7554 27.6742 16.2877 27.3204 15.9619L26.4544 15.1683C25.564 14.348 26.056 12.9182 27.2879 12.7495L28.4832 12.5847C28.9711 12.5157 29.398 12.2282 29.6135 11.8103L30.1461 10.7906C30.6991 9.73646 32.2928 9.73646 32.8417 10.7906H32.8539Z" fill="#B4D200"/>
<path id="Vector_7" d="M20.8539 10.7906L21.3865 11.8103C21.606 12.2282 22.0289 12.5195 22.5168 12.5847L23.7121 12.7495C24.944 12.9182 25.4359 14.348 24.5456 15.1683L23.6796 15.9619C23.3258 16.2877 23.1632 16.7554 23.2486 17.2154L23.4519 18.3386C23.6633 19.4962 22.3745 20.3779 21.2686 19.8336L20.1993 19.3046C19.7602 19.0861 19.2398 19.0861 18.8007 19.3046L17.7314 19.8336C16.6296 20.3817 15.3408 19.4962 15.5481 18.3386L15.7514 17.2154C15.8368 16.7554 15.6742 16.2877 15.3204 15.9619L14.4544 15.1683C13.564 14.348 14.056 12.9182 15.2879 12.7495L16.4832 12.5847C16.9711 12.5157 17.398 12.2282 17.6135 11.8103L18.1461 10.7906C18.6991 9.73646 20.2928 9.73646 20.8417 10.7906H20.8539Z" fill="#B4D200"/>
<path id="Vector_8" d="M8.47696 10.7906L9.058 11.8103C9.2975 12.2282 9.75878 12.5195 10.291 12.5847L11.595 12.7495C12.9389 12.9182 13.4756 14.348 12.5042 15.1683L11.5595 15.9619C11.1736 16.2877 10.9962 16.7554 11.0894 17.2154L11.3111 18.3386C11.5418 19.4962 10.1358 20.3779 8.92937 19.8336L7.76287 19.3046C7.28386 19.0861 6.71614 19.0861 6.23712 19.3046L5.07063 19.8336C3.86865 20.3817 2.46266 19.4962 2.68886 18.3386L2.91063 17.2154C3.00377 16.7554 2.82636 16.2877 2.44048 15.9619L1.49575 15.1683C0.524418 14.348 1.0611 12.9182 2.405 12.7495L3.70898 12.5847C4.24122 12.5157 4.70694 12.2282 4.94201 11.8103L5.52304 10.7906C6.12624 9.73646 7.86488 9.73646 8.46365 10.7906H8.47696Z" fill="#B4D200"/>
<path id="Vector_9" d="M26.8539 0.790634L27.3865 1.81031C27.606 2.22815 28.0289 2.51948 28.5168 2.58465L29.7121 2.74949C30.944 2.91816 31.436 4.34801 30.5456 5.16835L29.6796 5.96185C29.3258 6.28769 29.1632 6.75536 29.2486 7.21537L29.4519 8.33855C29.6633 9.49623 28.3745 10.3779 27.2686 9.83357L26.1993 9.30456C25.7602 9.08606 25.2398 9.08606 24.8007 9.30456L23.7314 9.83357C22.6296 10.3817 21.3408 9.49623 21.5481 8.33855L21.7514 7.21537C21.8368 6.75536 21.6742 6.28769 21.3204 5.96185L20.4544 5.16835C19.5641 4.34801 20.056 2.91816 21.2879 2.74949L22.4832 2.58465C22.9711 2.51565 23.398 2.22815 23.6135 1.81031L24.1461 0.790634C24.699 -0.263545 26.2928 -0.263545 26.8417 0.790634H26.8539Z" fill="#B4D200"/>
<path id="Vector_10" d="M14.2308 0.790634L14.715 1.81031C14.9146 2.22815 15.299 2.51948 15.7425 2.58465L16.8292 2.74949C17.9491 2.91816 18.3963 4.34801 17.5869 5.16835L16.7996 5.96185C16.478 6.28769 16.3302 6.75536 16.4078 7.21537L16.5926 8.33855C16.7848 9.49623 15.6131 10.3779 14.6078 9.83357L13.6357 9.30456C13.2366 9.08606 12.7635 9.08606 12.3643 9.30456L11.3922 9.83357C10.3906 10.3817 9.21889 9.49623 9.40739 8.33855L9.59219 7.21537C9.66981 6.75536 9.52197 6.28769 9.20041 5.96185L8.41313 5.16835C7.60368 4.34801 8.05091 2.91816 9.17083 2.74949L10.2575 2.58465C10.701 2.51565 11.0891 2.22815 11.285 1.81031L11.7692 0.790634C12.2719 -0.263545 13.7207 -0.263545 14.2197 0.790634H14.2308Z" fill="#B4D200"/>
</g>
</svg>
