<svg width="12" height="13" viewBox="0 0 12 13" fill="none" xmlns="http://www.w3.org/2000/svg">
<path d="M7.05673 6.49872L11.7783 1.78464C11.9194 1.64351 11.9987 1.4521 11.9987 1.25252C11.9987 1.05294 11.9194 0.861535 11.7783 0.720409C11.6372 0.579284 11.4458 0.5 11.2462 0.5C11.0466 0.5 10.8552 0.579284 10.7141 0.720409L6 5.44199L1.28592 0.720409C1.14479 0.579284 0.953384 0.5 0.753802 0.5C0.554221 0.5 0.362814 0.579284 0.221688 0.720409C0.0805626 0.861535 0.0012792 1.05294 0.0012792 1.25252C0.0012792 1.4521 0.0805626 1.64351 0.221688 1.78464L4.94327 6.49872L0.221688 11.2128C0.151443 11.2825 0.0956875 11.3654 0.0576386 11.4567C0.0195897 11.548 0 11.646 0 11.7449C0 11.8439 0.0195897 11.9418 0.0576386 12.0331C0.0956875 12.1245 0.151443 12.2074 0.221688 12.277C0.29136 12.3473 0.37425 12.403 0.465579 12.4411C0.556907 12.4791 0.654865 12.4987 0.753802 12.4987C0.85274 12.4987 0.950698 12.4791 1.04203 12.4411C1.13335 12.403 1.21625 12.3473 1.28592 12.277L6 7.55545L10.7141 12.277C10.7838 12.3473 10.8666 12.403 10.958 12.4411C11.0493 12.4791 11.1473 12.4987 11.2462 12.4987C11.3451 12.4987 11.4431 12.4791 11.5344 12.4411C11.6258 12.403 11.7086 12.3473 11.7783 12.277C11.8486 12.2074 11.9043 12.1245 11.9424 12.0331C11.9804 11.9418 12 11.8439 12 11.7449C12 11.646 11.9804 11.548 11.9424 11.4567C11.9043 11.3654 11.8486 11.2825 11.7783 11.2128L7.05673 6.49872Z" fill="#FF4E4E"/>
</svg>
