<svg width="36" height="45" viewBox="0 0 36 45" fill="none" xmlns="http://www.w3.org/2000/svg">
<circle cx="28.5" cy="3.5" r="3.5" fill="white"/>
<path d="M25.729 31.6415H24.1029L23.5266 31.0858C25.5437 28.7393 26.7581 25.693 26.7581 22.3791C26.7581 14.9897 20.7684 9 13.3791 9C5.98971 9 0 14.9897 0 22.3791C0 29.7684 5.98971 35.7581 13.3791 35.7581C16.693 35.7581 19.7393 34.5437 22.0858 32.5266L22.6415 33.1029V34.729L32.9331 45L36 41.9331L25.729 31.6415ZM13.3791 31.6415C8.25386 31.6415 4.11664 27.5043 4.11664 22.3791C4.11664 17.2539 8.25386 13.1166 13.3791 13.1166C18.5043 13.1166 22.6415 17.2539 22.6415 22.3791C22.6415 27.5043 18.5043 31.6415 13.3791 31.6415Z" fill="white"/>
</svg>
