<svg width="17" height="19" viewBox="0 0 17 19" fill="none" xmlns="http://www.w3.org/2000/svg">
<path id="Vector" d="M14.625 2.5H13.75V0.75H12V2.5H5V0.75H3.25V2.5H2.375C1.40375 2.5 0.63375 3.2875 0.63375 4.25L0.625 16.5C0.625 17.4625 1.40375 18.25 2.375 18.25H14.625C15.5875 18.25 16.375 17.4625 16.375 16.5V4.25C16.375 3.2875 15.5875 2.5 14.625 2.5ZM14.625 16.5H2.375V7.75H14.625V16.5ZM14.625 6H2.375V4.25H14.625V6ZM5.875 11.25H4.125V9.5H5.875V11.25ZM9.375 11.25H7.625V9.5H9.375V11.25ZM12.875 11.25H11.125V9.5H12.875V11.25ZM5.875 14.75H4.125V13H5.875V14.75ZM9.375 14.75H7.625V13H9.375V14.75ZM12.875 14.75H11.125V13H12.875V14.75Z" fill="#F6F9FF"/>
</svg>
