<svg width="18" height="19" viewBox="0 0 18 19" fill="none" xmlns="http://www.w3.org/2000/svg">
<path d="M3.75 3.5H3.885C4.1925 4.37 5.0175 5 6 5H7.5C8.475 5 9.3 4.37 9.615 3.5H9.75C10.7775 3.5 11.67 4.19 11.9325 5.1875C12.0375 5.5925 12.4425 5.8325 12.8475 5.7275C13.245 5.6225 13.4925 5.2175 13.3875 4.8125C12.96 3.155 11.4675 2 9.7575 2H9.63C9.3225 1.13 8.49 0.5 7.5075 0.5H6.0075C5.0325 0.5 4.1925 1.13 3.885 2H3.7575C1.68 2 0 3.68 0 5.75V14.75C0 16.82 1.68 18.5 3.75 18.5H6C6.4125 18.5 6.75 18.1625 6.75 17.75C6.75 17.3375 6.4125 17 6 17H3.75C2.5125 17 1.5 15.9875 1.5 14.75V5.75C1.5 4.5125 2.5125 3.5 3.75 3.5ZM6 2H7.5C7.9125 2 8.25 2.3375 8.25 2.75C8.25 3.1625 7.9125 3.5 7.5 3.5H6C5.5875 3.5 5.25 3.1625 5.25 2.75C5.25 2.3375 5.5875 2 6 2ZM15 7.25H11.25C9.5925 7.25 8.25 8.5925 8.25 10.25V15.5C8.25 17.1575 9.5925 18.5 11.25 18.5H15C16.6575 18.5 18 17.1575 18 15.5V10.25C18 8.5925 16.6575 7.25 15 7.25ZM16.5 15.5C16.5 16.325 15.825 17 15 17H11.25C10.425 17 9.75 16.325 9.75 15.5V10.25C9.75 9.425 10.425 8.75 11.25 8.75H15C15.825 8.75 16.5 9.425 16.5 10.25V15.5ZM15 11C15 11.4125 14.6625 11.75 14.25 11.75H12C11.5875 11.75 11.25 11.4125 11.25 11C11.25 10.5875 11.5875 10.25 12 10.25H14.25C14.6625 10.25 15 10.5875 15 11ZM15 14C15 14.4125 14.6625 14.75 14.25 14.75H12C11.5875 14.75 11.25 14.4125 11.25 14C11.25 13.5875 11.5875 13.25 12 13.25H14.25C14.6625 13.25 15 13.5875 15 14Z" fill="white"/>
</svg>
