<svg width="30" height="30" viewBox="0 0 30 30" fill="none" xmlns="http://www.w3.org/2000/svg">
<path fill-rule="evenodd" clip-rule="evenodd" d="M25.9375 25C25.9375 25.9113 25.575 26.7863 24.9312 27.4313C24.2862 28.075 23.4112 28.4375 22.5 28.4375H7.5C6.58875 28.4375 5.71375 28.075 5.06875 27.4313C4.425 26.7863 4.0625 25.9113 4.0625 25V5C4.0625 4.08875 4.425 3.21375 5.06875 2.56875C5.71375 1.925 6.58875 1.5625 7.5 1.5625H18.2325C18.8125 1.5625 19.3687 1.7925 19.7787 2.20375L25.2962 7.72125C25.7075 8.13125 25.9375 8.6875 25.9375 9.2675V25ZM24.0625 25V9.2675C24.0625 9.185 24.03 9.105 23.9713 9.04625L18.4537 3.52875C18.395 3.47 18.315 3.4375 18.2325 3.4375H7.5C7.085 3.4375 6.68875 3.6025 6.395 3.895C6.1025 4.18875 5.9375 4.585 5.9375 5V25C5.9375 25.415 6.1025 25.8113 6.395 26.105C6.68875 26.3975 7.085 26.5625 7.5 26.5625H22.5C22.915 26.5625 23.3113 26.3975 23.605 26.105C23.8975 25.8113 24.0625 25.415 24.0625 25Z" fill="#1C4EBA"/>
<path fill-rule="evenodd" clip-rule="evenodd" d="M17.8125 3.125C17.8125 2.6075 18.2325 2.1875 18.75 2.1875C19.2675 2.1875 19.6875 2.6075 19.6875 3.125V7.5C19.6875 7.6725 19.8275 7.8125 20 7.8125H24.375C24.8925 7.8125 25.3125 8.2325 25.3125 8.75C25.3125 9.2675 24.8925 9.6875 24.375 9.6875H20C18.7912 9.6875 17.8125 8.70875 17.8125 7.5V3.125Z" fill="#1C4EBA"/>
<path fill-rule="evenodd" clip-rule="evenodd" d="M10 14.0625C9.4825 14.0625 9.0625 13.6425 9.0625 13.125C9.0625 12.6075 9.4825 12.1875 10 12.1875H20C20.5175 12.1875 20.9375 12.6075 20.9375 13.125C20.9375 13.6425 20.5175 14.0625 20 14.0625H10Z" fill="#1C4EBA"/>
<path fill-rule="evenodd" clip-rule="evenodd" d="M10 18.4375C9.4825 18.4375 9.0625 18.0175 9.0625 17.5C9.0625 16.9825 9.4825 16.5625 10 16.5625H20C20.5175 16.5625 20.9375 16.9825 20.9375 17.5C20.9375 18.0175 20.5175 18.4375 20 18.4375H10Z" fill="#1C4EBA"/>
<path fill-rule="evenodd" clip-rule="evenodd" d="M10 22.8125C9.4825 22.8125 9.0625 22.3925 9.0625 21.875C9.0625 21.3575 9.4825 20.9375 10 20.9375H15.625C16.1425 20.9375 16.5625 21.3575 16.5625 21.875C16.5625 22.3925 16.1425 22.8125 15.625 22.8125H10Z" fill="#1C4EBA"/>
</svg>
