<svg width="20" height="20" viewBox="0 0 20 20" fill="none" xmlns="http://www.w3.org/2000/svg">
<path d="M0 14.8815C0.0526674 14.6214 0.0928197 14.3582 0.160609 14.1023C0.363457 13.3334 0.73265 12.6517 1.29426 12.0872C2.71576 10.6579 4.12318 9.21358 5.57805 7.81823C7.66962 5.81199 11.1968 6.28892 12.7027 8.7476C12.7262 8.78565 12.7481 8.82474 12.7481 8.82526C12.4707 9.12445 12.2313 9.4398 11.9357 9.68739C11.4867 10.0637 10.8563 10.0012 10.4094 9.57949C9.93223 9.12914 9.36697 8.90345 8.71306 8.91387C8.09565 8.92378 7.55438 9.13748 7.11479 9.57533C5.74179 10.9425 4.3667 12.3087 3.00465 13.6868C2.10878 14.5938 2.12651 16.0574 3.02133 16.9566C3.92659 17.8661 5.3825 17.8927 6.30705 16.9936C7.18831 16.1367 8.05133 15.2615 8.91539 14.3874C9.04888 14.2519 9.15161 14.2112 9.34768 14.2805C10.1883 14.5771 11.0575 14.6553 11.9425 14.5412C11.9737 14.537 12.0061 14.5375 12.0801 14.5339C12.0097 14.6074 11.9159 14.7053 11.9159 14.7053C11.9159 14.7053 9.35498 17.2579 8.08105 18.5406C7.2827 19.3444 6.33469 19.8338 5.20416 19.9615C5.1734 19.9652 4.71034 20.0486 4.12735 19.9579C2.20421 19.6649 0.905253 18.6032 0.242478 16.7788C0.122021 16.4468 0.0787403 16.0872 0 15.74C0 15.4538 0 15.1677 0 14.8815Z" fill="white"/>
<path d="M7.20031 11.1432C7.47564 10.8685 7.71238 10.6178 7.96477 10.3838C8.42469 9.95739 9.09842 9.96417 9.5719 10.4046C9.96039 10.7664 10.4052 10.9983 10.9334 11.0635C11.6989 11.1583 12.3617 10.9394 12.9108 10.3984C13.5548 9.76349 14.191 9.12133 14.8308 8.48177C15.5442 7.76924 16.2643 7.06348 16.9683 6.34156C18.2005 5.07808 17.6754 2.97645 15.9989 2.46772C15.1234 2.20189 14.3297 2.39162 13.6742 3.02649C12.7768 3.89487 11.9033 4.78827 11.0195 5.67073C10.9522 5.73797 10.9021 5.80521 10.7749 5.7583C9.86705 5.42419 8.93051 5.33401 7.93713 5.46745C7.93713 5.46745 10.6664 2.68404 12.0061 1.38407C13.3311 0.0981749 14.9236 -0.307348 16.6836 0.233176C18.4211 0.766402 19.5093 1.98193 19.8864 3.76091C20.2133 5.30482 19.8353 6.71477 18.7454 7.85732C17.3359 9.33503 15.8873 10.7768 14.4116 12.1888C12.5802 13.9412 9.54739 13.8151 7.82554 11.9543C7.59766 11.7077 7.41306 11.4221 7.20031 11.1432Z" fill="white"/>
</svg>
