<svg width="12" height="13" viewBox="0 0 12 13" fill="none" xmlns="http://www.w3.org/2000/svg">
<path d="M4.54487 10.6972L4.87112 11.431C4.96811 11.6494 5.12639 11.835 5.32677 11.9652C5.52715 12.0955 5.76101 12.1648 6 12.1647C6.23899 12.1648 6.47285 12.0955 6.67323 11.9652C6.87361 11.835 7.03189 11.6494 7.12888 11.431L7.45513 10.6972C7.57127 10.4368 7.76663 10.2197 8.01337 10.0769C8.26167 9.93369 8.5489 9.87269 8.83398 9.90262L9.63226 9.9876C9.86988 10.0127 10.1097 9.96839 10.3226 9.85995C10.5355 9.7515 10.7124 9.58362 10.8318 9.37664C10.9514 9.16979 11.0084 8.93269 10.9958 8.6941C10.9833 8.45551 10.9017 8.2257 10.7611 8.03253L10.2885 7.38312C10.1202 7.15016 10.0303 6.86975 10.0317 6.58236C10.0317 6.29575 10.1224 6.0165 10.291 5.7847L10.7636 5.13529C10.9042 4.94213 10.9857 4.71231 10.9983 4.47372C11.0108 4.23513 10.9539 3.99803 10.8343 3.79118C10.7149 3.58421 10.538 3.41632 10.3251 3.30787C10.1122 3.19943 9.87236 3.15509 9.63474 3.18022L8.83646 3.2652C8.55139 3.29514 8.26415 3.23413 8.01585 3.0909C7.76862 2.94727 7.57321 2.72906 7.45762 2.46754L7.12888 1.73377C7.03189 1.51535 6.87361 1.32976 6.67323 1.19951C6.47285 1.06927 6.23899 0.999961 6 1C5.76101 0.999961 5.52715 1.06927 5.32677 1.19951C5.12639 1.32976 4.96811 1.51535 4.87112 1.73377L4.54487 2.46754C4.42927 2.72906 4.23386 2.94727 3.98663 3.0909C3.73833 3.23413 3.4511 3.29514 3.16602 3.2652L2.36526 3.18022C2.12764 3.15509 1.88783 3.19943 1.6749 3.30787C1.46198 3.41632 1.28509 3.58421 1.16568 3.79118C1.04611 3.99803 0.989153 4.23513 1.0017 4.47372C1.01426 4.71231 1.09578 4.94213 1.23639 5.13529L1.70903 5.7847C1.87758 6.0165 1.96835 6.29575 1.9683 6.58236C1.96835 6.86897 1.87758 7.14822 1.70903 7.38002L1.23639 8.02943C1.09578 8.22259 1.01426 8.45241 1.0017 8.691C0.989153 8.92959 1.04611 9.16669 1.16568 9.37354C1.2852 9.58041 1.46212 9.7482 1.67501 9.85663C1.8879 9.96506 2.12766 10.0095 2.36526 9.9845L3.16354 9.89952C3.44862 9.86958 3.73585 9.93059 3.98415 10.0738C4.2323 10.217 4.42862 10.4353 4.54487 10.6972Z" stroke="white" stroke-width="1.3" stroke-linecap="round" stroke-linejoin="round"/>
<path d="M5.999 8.25707C6.92392 8.25707 7.67371 7.50728 7.67371 6.58236C7.67371 5.65744 6.92392 4.90765 5.999 4.90765C5.07409 4.90765 4.32429 5.65744 4.32429 6.58236C4.32429 7.50728 5.07409 8.25707 5.999 8.25707Z" stroke="white" stroke-width="1.3" stroke-linecap="round" stroke-linejoin="round"/>
</svg>
