<svg width="18" height="19" viewBox="0 0 18 19" fill="none" xmlns="http://www.w3.org/2000/svg">
<path d="M18 7.25C18 6.65326 17.7629 6.08097 17.341 5.65901C16.919 5.23705 16.3467 5 15.75 5H14.25V0.5H3.75V5H2.25C1.65326 5 1.08097 5.23705 0.65901 5.65901C0.237053 6.08097 0 6.65326 0 7.25V16.25H3.75V18.5H14.25V16.25H18V7.25ZM5.25 2H12.75V5H5.25V2ZM12.75 17H5.25V12.5H12.75V17ZM16.5 14.75H14.25V11H3.75V14.75H1.5V7.25C1.5 7.05109 1.57902 6.86032 1.71967 6.71967C1.86032 6.57902 2.05109 6.5 2.25 6.5H15.75C15.9489 6.5 16.1397 6.57902 16.2803 6.71967C16.421 6.86032 16.5 7.05109 16.5 7.25V14.75Z" fill="white"/>
<path d="M14.25 8H11.25V9.5H14.25V8Z" fill="white"/>
</svg>
