<svg width="22" height="20" viewBox="0 0 22 20" fill="none" xmlns="http://www.w3.org/2000/svg">
<path d="M14.6066 0.58084C14.2912 -0.304786 12.9591 -0.130938 12.8408 0.785636C12.6758 2.25561 12.0616 3.61636 8.70969 3.61636H3.66724C1.64476 3.61727 0 5.25018 0 7.25808V9.07849C0 10.4702 0.799458 11.6671 1.95739 12.2797L4.65373 18.3116C5.11213 19.3374 6.13804 20 7.26939 20C8.23754 20 9.13234 19.5203 9.66226 18.7157C10.1922 17.9111 10.2784 16.9062 9.89146 16.0242L8.44107 12.7175H8.70878C12.0606 12.7175 12.6749 14.0782 12.8399 15.5482C12.9839 16.6541 14.6405 16.5558 14.668 15.4481V0.886668C14.6488 0.784725 14.635 0.680962 14.6057 0.58084H14.6066ZM8.21095 16.7524C8.35214 17.0737 8.32188 17.4259 8.12844 17.719C7.71404 18.3498 6.63862 18.2633 6.33057 17.5734L4.16048 12.7193H6.44151L8.21095 16.7524ZM8.70969 10.898H3.66724C2.656 10.898 1.83362 10.0815 1.83362 9.07757V7.25717C1.83362 6.25322 2.656 5.43677 3.66724 5.43677H8.70969C10.4727 5.43677 11.8461 5.07542 12.8353 4.3691V11.9666C11.8461 11.2602 10.4727 10.8989 8.70969 10.8989V10.898ZM19.8554 13.3164C19.6766 13.4939 19.4419 13.5831 19.2072 13.5831C18.9725 13.5831 18.7378 13.4939 18.559 13.3164C18.2005 12.9605 18.2005 12.3852 18.559 12.0294C20.7034 9.9004 20.7034 6.43526 18.559 4.3063C18.2005 3.95041 18.2005 3.37516 18.559 3.01927C18.9175 2.66338 19.4969 2.66338 19.8554 3.01927C22.7149 5.85819 22.7149 10.4775 19.8554 13.3164ZM17.1599 11.0081C16.9812 11.1856 16.7465 11.2748 16.5117 11.2748C16.277 11.2748 16.0423 11.1856 15.8636 11.0081C15.5051 10.6522 15.5051 10.077 15.8636 9.72109C16.7263 8.86459 16.7263 7.47016 15.8636 6.61366C15.5051 6.25777 15.5051 5.68252 15.8636 5.32663C16.222 4.97074 16.8015 4.97074 17.1599 5.32663C18.7378 6.89309 18.7378 9.44166 17.1599 11.0081Z" fill="white"/>
</svg>
