<svg width="14" height="20" viewBox="0 0 14 20" fill="none" xmlns="http://www.w3.org/2000/svg">
<path fill-rule="evenodd" clip-rule="evenodd" d="M4 5C4 2.23858 6.2386 0 9 0C11.7614 0 14 2.23858 14 5V13C14 16.866 10.866 20 7 20C3.13401 20 0 16.866 0 13V7C0 6.44772 0.44772 6 1 6C1.55228 6 2 6.44772 2 7V13C2 15.7614 4.23858 18 7 18C9.7614 18 12 15.7614 12 13V5C12 3.34315 10.6569 2 9 2C7.3431 2 6 3.34315 6 5V13C6 13.5523 6.4477 14 7 14C7.5523 14 8 13.5523 8 13V7C8 6.44772 8.4477 6 9 6C9.5523 6 10 6.44772 10 7V13C10 14.6569 8.6569 16 7 16C5.3431 16 4 14.6569 4 13V5Z" fill="#0F3966"/>
</svg>
