<svg width="24" height="25" viewBox="0 0 24 25" fill="none" xmlns="http://www.w3.org/2000/svg">
<g id="receipt">
<path id="Vector" d="M19.5 4.36438L18 2.86719L16.5 4.36438L15 2.86719L13.5 4.36438L12 2.86719L10.5 4.36438L9 2.86719L7.5 4.36438L6 2.86719L4.5 4.36438L3 2.86719V22.8298L4.5 21.3326L6 22.8298L7.5 21.3326L9 22.8298L10.5 21.3326L12 22.8298L13.5 21.3326L15 22.8298L16.5 21.3326L18 22.8298L19.5 21.3326L21 22.8298V2.86719L19.5 4.36438ZM19 19.9252H5V5.77174H19V19.9252ZM6 15.8429H18V17.8391H6V15.8429ZM6 11.8503H18V13.8466H6V11.8503ZM6 7.85783H18V9.85409H6V7.85783Z" fill="#202632"/>
</g>
</svg>
