<svg width="58" height="45" viewBox="0 0 58 45" fill="none" xmlns="http://www.w3.org/2000/svg">
<g id="Group">
<g id="Group_2">
<path id="Vector" d="M41.0819 19.2216L39.0819 18.3141L40.9969 14.0859H36.1321V2.04736H57.637V14.0859H46.9968V11.889H55.441V4.24651H38.3281V11.889H44.402L41.0819 19.2216Z" fill="white"/>
<g id="Group_3">
<path id="Vector_2" d="M51.3062 6.84912H48.6091V9.04609H51.3062V6.84912Z" fill="white"/>
<path id="Vector_3" d="M46.5523 6.84912H43.8552V9.04609H46.5523V6.84912Z" fill="white"/>
</g>
</g>
<g id="Group_4">
<path id="Vector_4" d="M20.9952 44.4959C9.51394 44.4959 0.973834 42.8575 0.888869 42.84L0 42.6677V36.0571C0 32.9831 1.82131 30.2102 4.63824 28.9928L13.4049 25.0811L14.2982 27.0882L5.52057 31.0065C3.49665 31.8814 2.19603 33.8624 2.19603 36.0571V40.8394C4.63388 41.2452 11.8559 42.299 20.9952 42.299C30.1344 42.299 37.3608 41.2452 39.7943 40.8394V36.0571C39.7943 33.8624 38.4937 31.8814 36.4807 31.0109L27.6835 27.1428L28.5658 25.129L37.3564 28.995C40.169 30.2102 41.9882 32.9831 41.9882 36.0571V42.6677L41.0993 42.84C41.0143 42.8553 32.472 44.4959 20.993 44.4959H20.9952Z" fill="white"/>
<path id="Vector_5" d="M12.9735 12.6962C12.6097 12.6962 12.2437 12.6853 11.8733 12.6656L10.8777 12.6111L10.8385 11.6141C10.8276 11.3501 10.6228 5.09736 14.6706 2.14335C19.03 -1.03755 24.7445 -0.319775 27.91 1.96882L28.5222 2.4117L28.3283 3.14257C27.069 7.87466 20.9167 12.6984 12.9735 12.6984V12.6962ZM21.3437 2.20445C19.5659 2.20445 17.6596 2.67787 15.9625 3.91707C13.7055 5.56425 13.1804 8.83023 13.0628 10.497C19.2958 10.4534 24.4612 6.99107 25.9536 3.32583C24.7662 2.67568 23.1192 2.20445 21.3437 2.20445Z" fill="white"/>
<path id="Vector_6" d="M31.2693 13.342H30.2498C27.7269 13.342 25.4568 12.3842 24.1802 10.7785L25.8969 9.40838C26.6028 10.2942 27.8141 10.8898 29.2454 11.0796C29.3936 9.01569 29.3936 5.61224 26.6551 3.76872L27.8794 1.94482C32.0014 4.71775 31.5656 9.76182 31.3783 11.9151L31.2693 13.3442V13.342Z" fill="white"/>
<path id="Vector_7" d="M20.9952 25.9186C15.3941 25.9186 10.8364 21.3545 10.8364 15.7453V13.9629H13.0325V15.7453C13.0325 20.1436 16.6054 23.7194 20.9952 23.7194C25.3851 23.7194 28.9602 20.1415 28.9602 15.7453V14.6632H31.154V15.7453C31.154 21.3545 26.5964 25.9186 20.9952 25.9186Z" fill="white"/>
</g>
</g>
</svg>
