<svg width="12" height="11" viewBox="0 0 12 11" fill="none" xmlns="http://www.w3.org/2000/svg">
<path fill-rule="evenodd" clip-rule="evenodd" d="M8.64834 1.52668L9.80039 0.375832C10.0424 0.133623 10.3724 -0.00178235 10.7164 1.77207e-05C11.0565 0.00181779 11.3845 0.139422 11.6245 0.382632L11.6284 0.386035C12.1285 0.896455 12.1225 1.71428 11.6185 2.2191L11.1324 2.70353C11.1764 2.84653 11.2004 2.99814 11.2004 3.15494C11.2004 4.26139 11.2004 6.04926 11.1984 7.1549C11.1984 7.92253 10.6284 8.56876 9.86841 8.66116L9.86641 8.66136C8.44635 8.82677 7.02428 8.90938 5.60022 8.90898C5.39222 8.90898 5.18418 8.90717 4.97617 8.90357L2.85212 10.332C2.73011 10.4144 2.57209 10.4226 2.44009 10.353C2.31008 10.2836 2.22807 10.1478 2.22807 10V8.75417C1.93206 8.72696 1.63405 8.69617 1.33604 8.66157C1.33404 8.66157 1.33404 8.66136 1.33404 8.66136C0.574007 8.56976 0 7.92273 0 7.1541C0 6.04766 1.95322e-06 4.25999 0.00200203 3.15414C0.00200203 2.38611 0.574005 1.73969 1.33204 1.64788C1.33404 1.64788 1.33404 1.64768 1.33404 1.64768C2.76209 1.48168 4.18417 1.39947 5.60022 1.39967C6.61826 1.39987 7.6343 1.44268 8.64834 1.52668ZM6.00024 5.19983H3.00012C2.78011 5.19983 2.6001 5.37903 2.6001 5.59984C2.6001 5.82065 2.78011 5.99986 3.00012 5.99986H6.79226C6.58625 5.99786 6.38424 5.91585 6.23423 5.76545C6.08223 5.61344 6.00024 5.40903 6.00024 5.19983ZM9.38236 1.9241L7.29228 4.00958C7.14628 4.15599 7.04027 4.33779 6.98426 4.5374L6.80027 5.19983L7.46431 5.01542C7.66432 4.96002 7.84431 4.85441 7.99231 4.70841L10.0784 2.62532C10.0144 2.45311 9.92641 2.30751 9.8104 2.19031C9.6944 2.0733 9.55036 1.9857 9.38236 1.9241ZM10.6784 2.0253L11.0524 1.65288C11.2445 1.46007 11.2485 1.14906 11.0625 0.952055L11.0564 0.945658C10.9644 0.853254 10.8404 0.800653 10.7124 0.800053C10.5824 0.799453 10.4564 0.850453 10.3664 0.942057L9.98238 1.32387C10.1304 1.40847 10.2624 1.50968 10.3784 1.62648C10.4944 1.74309 10.5944 1.87589 10.6784 2.0253Z" fill="white"/>
</svg>
