<svg width="21" height="21" viewBox="0 0 21 21" fill="none" xmlns="http://www.w3.org/2000/svg">
<path d="M16.625 3.5H15.75V1.75H14V3.5H7V1.75H5.25V3.5H4.375C3.40375 3.5 2.63375 4.2875 2.63375 5.25L2.625 17.5C2.625 18.4625 3.40375 19.25 4.375 19.25H16.625C17.5875 19.25 18.375 18.4625 18.375 17.5V5.25C18.375 4.2875 17.5875 3.5 16.625 3.5ZM16.625 17.5H4.375V8.75H16.625V17.5ZM16.625 7H4.375V5.25H16.625V7ZM7.875 12.25H6.125V10.5H7.875V12.25ZM11.375 12.25H9.625V10.5H11.375V12.25ZM14.875 12.25H13.125V10.5H14.875V12.25ZM7.875 15.75H6.125V14H7.875V15.75ZM11.375 15.75H9.625V14H11.375V15.75ZM14.875 15.75H13.125V14H14.875V15.75Z" fill="#728199"/>
</svg>
