<svg width="12" height="10" viewBox="0 0 12 10" fill="none" xmlns="http://www.w3.org/2000/svg">
<path d="M11.9966 5.13472C12.0592 2.48597 11.2379 0.0742859 10.2497 0.00294412C8.57061 -0.116533 9.56993 3.44344 1.32537 2.85248C0.612522 2.80229 0.015313 3.62567 0.000299023 4.27543C-0.0147719 4.92372 0.541677 5.83078 1.25394 5.88216C1.37757 5.89067 1.81534 5.95254 1.81534 5.95254C1.98143 6.67556 2.5862 6.56818 2.57932 6.97542L2.5438 8.8913C2.53739 9.253 2.72112 9.67464 2.99444 9.69993L4.55056 9.84461C4.90586 9.87754 5.10099 9.66302 5.10523 9.42672C5.11033 9.17119 4.73212 8.92296 4.73715 8.62455C4.74223 8.32762 4.75235 7.36909 4.76632 7.07186C4.78508 6.66786 5.23804 6.53838 5.71958 6.70522C9.03694 7.848 8.73681 9.90745 10.0147 9.99845C11.0022 10.068 11.9343 7.7814 11.9966 5.13472ZM9.87718 8.50766C9.65758 8.49092 8.85902 7.02444 8.90844 4.96601C8.95662 2.90846 9.82895 1.4059 10.0485 1.42116C10.2675 1.43761 10.9427 3.07658 10.8938 5.13382C10.8457 7.19137 10.0967 8.52292 9.87718 8.50766Z" fill="white"/>
</svg>
