<svg width="20" height="20" viewBox="0 0 20 20" fill="none" xmlns="http://www.w3.org/2000/svg">
<path d="M16.75 13.75V7.75C16.75 4.02775 13.7222 1 10 1C6.27775 1 3.25 4.02775 3.25 7.75V13.75C2.0095 13.75 1 14.7595 1 16V19H19V16C19 14.7595 17.9905 13.75 16.75 13.75ZM4.75 7.75C4.75 4.85575 7.10575 2.5 10 2.5C12.8942 2.5 15.25 4.85575 15.25 7.75V13.75H4.75V7.75ZM17.5 17.5H2.5V16C2.5 15.586 2.836 15.25 3.25 15.25H16.75C17.164 15.25 17.5 15.586 17.5 16V17.5ZM10 4.75V6.25C9.17275 6.25 8.5 6.92275 8.5 7.75H7C7 6.0955 8.3455 4.75 10 4.75Z" fill="white" stroke="white" stroke-width="0.5"/>
</svg>
