<svg width="22" height="21" viewBox="0 0 22 21" fill="none" xmlns="http://www.w3.org/2000/svg">
<path d="M21 9L20.5256 5.20463C20.3395 3.71602 20.2465 2.97169 19.8961 2.4108C19.5875 1.91662 19.1416 1.52301 18.613 1.27804C18.013 1 17.2629 1 15.7626 1H6.23735C4.73714 1 3.98704 1 3.38702 1.27804C2.85838 1.52301 2.4125 1.91662 2.10386 2.4108C1.75354 2.97169 1.6605 3.71601 1.47442 5.20463L1 9M4.5 13H17.5M4.5 13C2.567 13 1 11.433 1 9.5C1 7.567 2.567 6 4.5 6H17.5C19.433 6 21 7.567 21 9.5C21 11.433 19.433 13 17.5 13M4.5 13C2.567 13 1 14.567 1 16.5C1 18.433 2.567 20 4.5 20H17.5C19.433 20 21 18.433 21 16.5C21 14.567 19.433 13 17.5 13M5 9.5H5.01M5 16.5H5.01M11 9.5H17M11 16.5H17" stroke="white" stroke-width="2" stroke-linecap="round" stroke-linejoin="round"/>
</svg>
