<svg width="18" height="18" viewBox="0 0 18 18" fill="none" xmlns="http://www.w3.org/2000/svg">
<path d="M2.64082 15.3378C6.15444 18.8466 11.8512 18.8466 15.3648 15.3378C18.8784 11.8291 18.8784 6.14029 15.3648 2.63155C11.8512 -0.877184 6.15444 -0.877184 2.64082 2.63155C-0.872807 6.14029 -0.872807 11.8291 2.64082 15.3378Z" fill="#FAA037"/>
<path d="M17.9944 9.0101C17.7436 11.2939 16.6262 13.3951 14.8719 14.8816C13.1176 16.368 10.8597 17.1269 8.56232 17.0022C6.26498 16.8774 4.10278 15.8785 2.5202 14.2109C0.937632 12.5432 0.0549493 10.3335 0.0536123 8.03595C-0.0797113 9.25007 0.0362615 10.4786 0.394445 11.6465C0.752628 12.8143 1.3455 13.897 2.13683 14.8283C2.92817 15.7596 3.90135 16.52 4.99691 17.0631C6.09247 17.6061 7.28741 17.9204 8.50871 17.9867C9.73002 18.0531 10.952 17.87 12.1001 17.4488C13.2482 17.0276 14.2982 16.377 15.186 15.5368C16.0738 14.6967 16.7807 13.6846 17.2636 12.5624C17.7464 11.4402 17.9951 10.2315 17.9944 9.0101Z" fill="#F5732D"/>
<path d="M4.33735 13.6436C6.91401 16.2167 11.0916 16.2167 13.6683 13.6436C16.2449 11.0706 16.2449 6.8988 13.6683 4.32572C11.0916 1.75265 6.91401 1.75265 4.33735 4.32572C1.76069 6.8988 1.76069 11.0706 4.33735 13.6436Z" fill="#E6E6EB"/>
<path d="M15.5429 9.78094C15.2722 10.9743 14.6711 12.0676 13.8082 12.9363C12.8387 13.9071 11.5901 14.5516 10.2364 14.7801C8.88265 15.0087 7.49126 14.8098 6.25608 14.2113C5.0209 13.6127 4.00346 12.6443 3.34555 11.441C2.68763 10.2376 2.422 8.85929 2.58568 7.49805C2.37575 8.37181 2.34701 9.27922 2.50123 10.1645C2.65544 11.0497 2.98936 11.8941 3.48244 12.6458C3.97552 13.3974 4.61734 14.0404 5.36845 14.5352C6.11956 15.0299 6.96407 15.3661 7.85007 15.5229C8.73607 15.6797 9.64483 15.6539 10.5205 15.447C11.3961 15.2402 12.2201 14.8567 12.9419 14.32C13.6636 13.7834 14.2678 13.105 14.7173 12.3266C15.1668 11.5482 15.4521 10.6862 15.5556 9.79365L15.5429 9.78094Z" fill="#A5C3DC"/>
<path d="M6.29687 4.9043H8.95312C9.48047 4.9043 9.93131 5.00358 10.3057 5.20215C10.68 5.40072 10.9632 5.67741 11.1553 6.03223C11.3473 6.38379 11.4434 6.78906 11.4434 7.24805C11.4434 7.70378 11.3457 8.10905 11.1504 8.46387C10.9583 8.81543 10.6735 9.09049 10.2959 9.28906C9.91829 9.48437 9.46419 9.58203 8.93359 9.58203H7.56641V11.9746H6.29687V4.9043ZM8.75781 8.53711C9.22005 8.53711 9.56673 8.42155 9.79785 8.19043C10.029 7.95605 10.1445 7.64193 10.1445 7.24805C10.1445 6.85091 10.029 6.53841 9.79785 6.31055C9.56673 6.08268 9.22005 5.96875 8.75781 5.96875H7.56641V8.53711H8.75781Z" fill="#FAA037"/>
</svg>
