<svg width="30" height="46" viewBox="0 0 30 46" fill="none" xmlns="http://www.w3.org/2000/svg">
<path d="M17.9026 45.59H13.7026C7.05258 45.59 1.64258 40.18 1.64258 33.53V19.56C1.64258 12.91 7.05258 7.5 13.7026 7.5H17.9026C24.5526 7.5 29.9626 12.91 29.9626 19.56V33.53C29.9626 40.18 24.5526 45.59 17.9026 45.59ZM13.7026 10C8.43258 10 4.14258 14.29 4.14258 19.56V33.53C4.14258 38.8 8.43258 43.09 13.7026 43.09H17.9026C23.1726 43.09 27.4626 38.8 27.4626 33.53V19.56C27.4626 14.29 23.1726 10 17.9026 10H13.7026Z" fill="white"/>
<path d="M24.1129 23.0098H7.71289V25.5098H24.1129V23.0098Z" fill="white"/>
<path d="M17.1631 19.9697H14.6631V24.2597H17.1631V19.9697Z" fill="white"/>
<path d="M17.1631 12.3398H14.6631V17.1798H17.1631V12.3398Z" fill="white"/>
<path d="M17.1631 0H14.6631V9.44H17.1631V0Z" fill="white"/>
<path d="M7.06073 2.85425L6.30273 5.34131L8.69413 6.07015L9.45213 3.5831L7.06073 2.85425Z" fill="white"/>
<path d="M3.47203 3.91943L1.71045 5.69336L3.96688 7.9341L5.72847 6.16017L3.47203 3.91943Z" fill="white"/>
<path d="M2.79351 8.38926L0 8.7749L0.341883 11.2514L3.13539 10.8658L2.79351 8.38926Z" fill="white"/>
</svg>
