<svg width="39" height="45" viewBox="0 0 39 45" fill="none" xmlns="http://www.w3.org/2000/svg">
<g clip-path="url(#clip0_4334_2371)">
<path d="M35.8571 1.55334H9.75598V43.618H35.8571C37.0298 43.618 37.9816 42.6663 37.9816 41.4935V3.6778C37.9816 2.50508 37.0298 1.55334 35.8571 1.55334Z" fill="white"/>
<path d="M35.8571 44.6224H9.75593C9.20096 44.6224 8.75146 44.1729 8.75146 43.6179V1.5533C8.75146 0.998328 9.20096 0.548828 9.75593 0.548828H35.8571C37.5822 0.548828 38.986 1.95257 38.986 3.67775V41.4935C38.986 43.2187 37.5822 44.6224 35.8571 44.6224ZM10.7604 42.6135H35.8571C36.4748 42.6135 36.977 42.1112 36.977 41.4935V3.67775C36.977 3.06 36.4748 2.55777 35.8571 2.55777H10.7604V42.6135Z" fill="#728199"/>
<path d="M20.7122 27.9031C20.2954 27.9031 19.9036 27.6394 19.7605 27.2225L16.8174 18.5992C16.6391 18.0743 16.9178 17.5043 17.4427 17.3235C17.9675 17.1452 18.5376 17.4239 18.7184 17.9488L21.6614 26.5721C21.8397 27.097 21.561 27.667 21.0362 27.8478C20.9282 27.8855 20.8202 27.9031 20.7122 27.9031Z" fill="#728199"/>
<path d="M20.7147 27.903C20.6067 27.903 20.4987 27.8855 20.3907 27.8503C19.8659 27.672 19.5846 27.0995 19.7629 26.5746L22.7035 17.9513C22.8818 17.4264 23.4544 17.1452 23.9792 17.3235C24.504 17.5018 24.7853 18.0743 24.607 18.5991L21.6664 27.2225C21.5233 27.6394 21.134 27.903 20.7147 27.903Z" fill="#728199"/>
<path d="M26.5958 27.9031C26.179 27.9031 25.7872 27.6394 25.6441 27.2225L22.7035 18.5992C22.5252 18.0743 22.804 17.5043 23.3288 17.3235C23.8536 17.1452 24.4237 17.4239 24.6045 17.9488L27.545 26.5721C27.7233 27.097 27.4446 27.667 26.9198 27.8478C26.8118 27.8855 26.7038 27.9031 26.5958 27.9031Z" fill="#728199"/>
<path d="M26.5959 27.903C26.4879 27.903 26.3799 27.8855 26.2719 27.8503C25.7471 27.672 25.4659 27.0995 25.6442 26.5746L28.5847 17.9513C28.763 17.4264 29.3356 17.1452 29.8604 17.3235C30.3852 17.5018 30.6665 18.0743 30.4882 18.5991L27.5476 27.2225C27.4045 27.6394 27.0153 27.903 26.5959 27.903Z" fill="#728199"/>
<path d="M30.2396 22.4463H17.071C16.516 22.4463 16.0665 21.9968 16.0665 21.4418C16.0665 20.8869 16.516 20.4374 17.071 20.4374H30.2396C30.7946 20.4374 31.2441 20.8869 31.2441 21.4418C31.2441 21.9968 30.7946 22.4463 30.2396 22.4463Z" fill="#728199"/>
<path d="M5.79584 1.55334C4.62312 1.55334 3.67139 2.50508 3.67139 3.6778V41.4935C3.67139 42.6663 4.62312 43.618 5.79584 43.618H9.75596V1.55334H5.79584Z" fill="#1C4EBA"/>
<path d="M9.75591 44.6224H5.79579C4.07062 44.6224 2.66687 43.2187 2.66687 41.4935V3.67775C2.66687 1.95257 4.07062 0.548828 5.79579 0.548828H9.75591C10.3109 0.548828 10.7604 0.998328 10.7604 1.5533V43.6179C10.7604 44.1729 10.3109 44.6224 9.75591 44.6224ZM5.79579 2.55777C5.17804 2.55777 4.67581 3.06 4.67581 3.67775V41.4935C4.67581 42.1112 5.17804 42.6135 5.79579 42.6135H8.75144V2.55777H5.79579Z" fill="#728199"/>
<path d="M6.53412 10.2018H1.00452V14.0464H6.53412V10.2018Z" fill="white"/>
<path d="M6.53407 15.0534H1.00447C0.4495 15.0534 0 14.6039 0 14.0489V10.2043C0 9.64933 0.4495 9.19983 1.00447 9.19983H6.53407C7.08904 9.19983 7.53854 9.64933 7.53854 10.2043V14.0489C7.53854 14.6039 7.08904 15.0534 6.53407 15.0534ZM2.00894 13.0444H5.5296V11.2088H2.00894V13.0444Z" fill="#728199"/>
<path d="M6.53412 18.4811H1.00452V22.3257H6.53412V18.4811Z" fill="white"/>
<path d="M6.53407 23.3327H1.00447C0.4495 23.3327 0 22.8832 0 22.3282V18.4836C0 17.9286 0.4495 17.4791 1.00447 17.4791H6.53407C7.08904 17.4791 7.53854 17.9286 7.53854 18.4836V22.3282C7.53854 22.8832 7.08904 23.3327 6.53407 23.3327ZM2.00894 21.3237H5.5296V19.4881H2.00894V21.3237Z" fill="#728199"/>
</g>
<defs>
<clipPath id="clip0_4334_2371">
<rect width="38.9885" height="44.0736" fill="white" transform="translate(0 0.548828)"/>
</clipPath>
</defs>
</svg>
