<svg width="30" height="33" viewBox="0 0 30 33" fill="none" xmlns="http://www.w3.org/2000/svg">
<path d="M23.125 13.375V10.125C23.125 5.63769 19.4873 2 15 2C10.5127 2 6.875 5.63769 6.875 10.125V13.375M15 20.6875V23.9375M9.8 31.25H20.2C22.9303 31.25 24.2954 31.25 25.3382 30.7187C26.2555 30.2513 27.0013 29.5055 27.4687 28.5882C28 27.5454 28 26.1803 28 23.45V21.175C28 18.4447 28 17.0796 27.4687 16.0368C27.0013 15.1195 26.2555 14.3737 25.3382 13.9063C24.2954 13.375 22.9303 13.375 20.2 13.375H9.8C7.06974 13.375 5.70462 13.375 4.6618 13.9063C3.74451 14.3737 2.99873 15.1195 2.53134 16.0368C2 17.0796 2 18.4447 2 21.175V23.45C2 26.1803 2 27.5454 2.53134 28.5882C2.99873 29.5055 3.74451 30.2513 4.6618 30.7187C5.70462 31.25 7.06974 31.25 9.8 31.25Z" stroke="white" stroke-width="3" stroke-linecap="round" stroke-linejoin="round"/>
</svg>
