<svg width="27" height="33" viewBox="0 0 27 33" fill="none" xmlns="http://www.w3.org/2000/svg">
<g id="Group 3567">
<circle id="Ellipse 67" cx="20.9" cy="2.56667" r="2.56667" fill="#1C4EBA"/>
<path id="Vector" d="M18.8679 23.2037H17.6755L17.2528 22.7962C18.7321 21.0754 19.6226 18.8415 19.6226 16.4113C19.6226 10.9924 15.2302 6.59998 9.81132 6.59998C4.39245 6.59998 0 10.9924 0 16.4113C0 21.8302 4.39245 26.2226 9.81132 26.2226C12.2415 26.2226 14.4755 25.3321 16.1962 23.8528L16.6038 24.2754V25.4679L24.1509 33L26.4 30.7509L18.8679 23.2037ZM9.81132 23.2037C6.05283 23.2037 3.01887 20.1698 3.01887 16.4113C3.01887 12.6528 6.05283 9.61884 9.81132 9.61884C13.5698 9.61884 16.6038 12.6528 16.6038 16.4113C16.6038 20.1698 13.5698 23.2037 9.81132 23.2037Z" fill="#1C4EBA"/>
</g>
</svg>
