<svg width="78" height="78" viewBox="0 0 78 78" fill="none" xmlns="http://www.w3.org/2000/svg">
<g id="folder 1" clip-path="url(#clip0_6448_6571)">
<g id="Group">
<g id="Folder Pin">
<path id="Vector" d="M68.25 60.125V29.25C68.2502 28.3963 68.0822 27.551 67.7557 26.7623C67.4291 25.9736 66.9503 25.257 66.3467 24.6533C65.743 24.0497 65.0264 23.5709 64.2377 23.2443C63.449 22.9178 62.6037 22.7498 61.75 22.75H36.27C35.4119 22.7502 34.569 22.5233 33.8269 22.0924C33.0848 21.6614 32.4701 21.0417 32.045 20.2963L28.8112 14.6575C28.2446 13.6615 27.4244 12.8331 26.4341 12.2566C25.4437 11.6801 24.3184 11.3759 23.1725 11.375H6.5C5.64635 11.3748 4.80102 11.5428 4.01231 11.8693C3.22359 12.1959 2.50695 12.6747 1.90333 13.2783C1.29971 13.882 0.820928 14.5986 0.494348 15.3873C0.167768 16.176 -0.00021329 17.0213 2.03245e-07 17.875V60.125C-0.00021329 60.9787 0.167768 61.824 0.494348 62.6127C0.820928 63.4014 1.29971 64.118 1.90333 64.7217C2.50695 65.3253 3.22359 65.8041 4.01231 66.1307C4.80102 66.4572 5.64635 66.6252 6.5 66.625H20.2475C17.1763 61.6363 14.625 55.8513 14.625 50.375C14.625 45.2033 16.6795 40.2434 20.3364 36.5864C23.9934 32.9295 28.9533 30.875 34.125 30.875C39.2967 30.875 44.2566 32.9295 47.9136 36.5864C51.5705 40.2434 53.625 45.2033 53.625 50.375C53.625 55.8513 51.0738 61.6363 48.0025 66.625H74.75C73.8963 66.6252 73.051 66.4572 72.2623 66.1307C71.4736 65.8041 70.757 65.3253 70.1533 64.7217C69.5497 64.118 69.0709 63.4014 68.7443 62.6127C68.4178 61.824 68.2498 60.9787 68.25 60.125Z" fill="#1C4EBA"/>
<path id="Vector_2" d="M71.5 0H14.625C12.9011 0 11.2478 0.68482 10.0288 1.90381C8.80982 3.12279 8.125 4.77609 8.125 6.5V8.125H23.1725C24.8902 8.12829 26.5768 8.58351 28.0629 9.44492C29.5489 10.3063 30.7822 11.5436 31.6387 13.0325L34.8563 18.6875C34.9999 18.935 35.2062 19.1404 35.4543 19.283C35.7025 19.4256 35.9838 19.5005 36.27 19.5H61.75C64.3359 19.5 66.8158 20.5272 68.6443 22.3557C70.4728 24.1842 71.5 26.6641 71.5 29.25V60.125C71.5 60.987 71.8424 61.8136 72.4519 62.4231C73.0614 63.0326 73.888 63.375 74.75 63.375C75.612 63.375 76.4386 63.0326 77.0481 62.4231C77.6576 61.8136 78 60.987 78 60.125V6.5C78 4.77609 77.3152 3.12279 76.0962 1.90381C74.8772 0.68482 73.2239 0 71.5 0Z" fill="#1C4EBA"/>
<path id="Vector_3" d="M34.125 56.875C37.7149 56.875 40.625 53.9649 40.625 50.375C40.625 46.7851 37.7149 43.875 34.125 43.875C30.5351 43.875 27.625 46.7851 27.625 50.375C27.625 53.9649 30.5351 56.875 34.125 56.875Z" fill="#1C4EBA"/>
<path id="Vector_4" d="M34.125 34.125C29.8167 34.1297 25.6862 35.8433 22.6397 38.8897C19.5933 41.9362 17.8797 46.0667 17.875 50.375C17.875 62.2863 32.3602 76.908 32.9761 77.5239C33.2809 77.8285 33.6941 77.9997 34.125 77.9997C34.5559 77.9997 34.9691 77.8285 35.2739 77.5239C35.8914 76.908 50.375 62.2863 50.375 50.375C50.3698 46.0668 48.6561 41.9366 45.6098 38.8902C42.5634 35.8439 38.4332 34.1302 34.125 34.125ZM34.125 60.125C32.1966 60.125 30.3116 59.5532 28.7082 58.4818C27.1048 57.4105 25.8551 55.8877 25.1172 54.1062C24.3792 52.3246 24.1861 50.3642 24.5623 48.4729C24.9385 46.5816 25.8671 44.8443 27.2307 43.4807C28.5943 42.1171 30.3316 41.1885 32.2229 40.8123C34.1142 40.4361 36.0746 40.6292 37.8562 41.3672C39.6377 42.1051 41.1605 43.3548 42.2318 44.9582C43.3032 46.5616 43.875 48.4466 43.875 50.375C43.872 52.9599 42.8438 55.4381 41.016 57.266C39.1881 59.0938 36.7099 60.122 34.125 60.125Z" fill="#1C4EBA"/>
</g>
</g>
</g>
<defs>
<clipPath id="clip0_6448_6571">
<rect width="78" height="78" fill="white"/>
</clipPath>
</defs>
</svg>
