<svg width="83" height="89" viewBox="0 0 83 89" fill="none" xmlns="http://www.w3.org/2000/svg">
<path d="M1.01855 54.7139V37.0494C2.43907 24.2159 15.4113 22.0078 15.4113 22.0078H27.3517C27.3517 22.0078 39.7343 23.9081 41.7445 37.0494V54.7139" fill="#B4D200"/>
<path d="M41.731 55.7213C41.1816 55.7213 40.7259 55.2663 40.7259 54.7176V37.12C38.89 25.3169 28.3299 23.1891 27.2579 23.0017H15.4917C14.3392 23.2159 3.28327 25.6247 2.01016 37.1601V54.7176C2.01016 55.2663 1.56793 55.7213 1.00508 55.7213C0.442236 55.7213 0 55.2663 0 54.7176V37.0531C1.48752 23.5103 15.0896 21.048 15.237 21.0212C15.2906 21.0212 15.3442 21.0078 15.3978 21.0078H27.3383C27.3383 21.0078 27.4454 21.0078 27.4857 21.0078C27.6197 21.0212 40.6187 23.1757 42.7227 36.8925C42.7227 36.946 42.7227 36.9995 42.7227 37.0397V54.7042C42.7227 55.2529 42.2671 55.7079 41.7176 55.7079L41.731 55.7213Z" fill="#1F2023"/>
<path d="M34.7759 37.0391H32.7657V54.8909H34.7759V37.0391Z" fill="#1F2023"/>
<path d="M9.95706 37.0391H7.9469V54.8909H9.95706V37.0391Z" fill="#1F2023"/>
<path d="M30.0452 9.92595C30.0452 14.864 26.1858 18.8519 21.415 18.8519C16.6442 18.8519 12.7847 14.864 12.7847 9.92595C12.7847 4.98792 16.6576 1 21.415 1C26.1724 1 30.0452 5.0013 30.0452 9.92595Z" fill="white"/>
<path d="M21.4284 19.8592C16.1081 19.8592 11.793 15.4029 11.793 9.92962C11.793 4.45629 16.1215 0 21.4284 0C26.7352 0 31.0637 4.45629 31.0637 9.92962C31.0637 15.4029 26.7486 19.8592 21.4284 19.8592ZM21.4284 2.00733C17.2204 2.00733 13.8031 5.55364 13.8031 9.92962C13.8031 14.3056 17.2204 17.8519 21.4284 17.8519C25.6363 17.8519 29.0536 14.2922 29.0536 9.92962C29.0536 5.56702 25.6363 2.00733 21.4284 2.00733Z" fill="#1F2023"/>
<path d="M23.2778 25.9609H20.5975V29.0255H23.2778V25.9609Z" fill="white"/>
<path d="M23.2778 32.7031H20.5975V42.9673H23.2778V32.7031Z" fill="white"/>
<path d="M56.577 25.46L55.6019 24L54.6268 25.46C49.7038 32.85 40.0243 37.08 30 36.22V62.62C30 69.97 34.6138 76.77 42.141 80.51L55.59 87.19L69.0391 80.51C76.5662 76.77 81.18 69.97 81.18 62.62V36.22C71.1557 37.08 61.4762 32.85 56.5532 25.46H56.577Z" fill="white" stroke="#333366" stroke-width="2.5" stroke-linecap="round" stroke-linejoin="round"/>
<g style="mix-blend-mode:darken">
<path d="M46.3862 74.4784C41.4157 72.0084 38.3358 67.4684 38.3358 62.6184V42.9084C44.8403 41.9584 50.8454 39.4084 55.6138 35.6484C60.3822 39.4184 66.3873 41.9584 72.8919 42.9084V62.6184C72.8919 67.4684 69.812 72.0084 64.8415 74.4784L55.6257 79.0584L46.41 74.4784H46.3862Z" fill="#1C4EBA"/>
</g>
<path d="M55.6138 45.9688C58.0396 45.9688 60.0016 47.6188 60.0016 49.6588V55.0988H51.214V49.6588C51.214 47.6188 53.1761 45.9688 55.6019 45.9688H55.6138Z" stroke="#333366" stroke-width="2.5" stroke-linecap="round" stroke-linejoin="round"/>
<path d="M64.3777 55.1094H46.85V68.1494H64.3777V55.1094Z" fill="white" stroke="#333366" stroke-width="2.5" stroke-linecap="round" stroke-linejoin="round"/>
<path d="M55.6138 61.2372C56.1458 61.2372 56.577 60.8745 56.577 60.4272C56.577 59.9798 56.1458 59.6172 55.6138 59.6172C55.0819 59.6172 54.6506 59.9798 54.6506 60.4272C54.6506 60.8745 55.0819 61.2372 55.6138 61.2372Z" stroke="#333366" stroke-width="2.5" stroke-linecap="round" stroke-linejoin="round"/>
<path d="M55.6139 61.2422V64.4722" stroke="#333366" stroke-width="2.5" stroke-linecap="round" stroke-linejoin="round"/>
</svg>
