<svg width="26" height="22" viewBox="0 0 26 22" fill="none" xmlns="http://www.w3.org/2000/svg">
<path id="Vector" d="M14.8571 0C8.70381 0 3.71429 4.92556 3.71429 11H0L4.81619 15.7544L4.90286 15.9256L9.90476 11H6.19048C6.19048 6.27 10.0657 2.44444 14.8571 2.44444C19.6486 2.44444 23.5238 6.27 23.5238 11C23.5238 15.73 19.6486 19.5556 14.8571 19.5556C12.4676 19.5556 10.301 18.59 8.74095 17.0378L6.98286 18.7733C9.00095 20.7656 11.7743 22 14.8571 22C21.0105 22 26 17.0744 26 11C26 4.92556 21.0105 0 14.8571 0ZM13.619 6.11111V12.2222L18.881 15.3022L19.8343 13.7378L15.4762 11.1833V6.11111H13.619Z" fill="#1C4EBA"/>
</svg>
