<svg width="22" height="20" viewBox="0 0 22 20" fill="none" xmlns="http://www.w3.org/2000/svg">
<path d="M10.0387 12.6757H7.02583C5.15404 12.6757 4.21815 12.6757 3.4799 12.9719C2.49556 13.3669 1.71352 14.1246 1.30579 15.0782C1 15.7934 1 16.7001 1 18.5135M11.0429 19L13.0767 18.606C13.2541 18.5716 13.3427 18.5544 13.4254 18.523C13.4988 18.4951 13.5685 18.459 13.6332 18.4153C13.706 18.366 13.77 18.3041 13.8978 18.1802L20.584 11.7028C21.1387 11.1654 21.1387 10.2941 20.584 9.75673C20.0293 9.21938 19.13 9.21939 18.5753 9.75675L11.8892 16.2343C11.7613 16.3582 11.6974 16.4201 11.6466 16.4907C11.6015 16.5533 11.5642 16.6209 11.5354 16.692C11.503 16.7721 11.4852 16.8579 11.4498 17.0297L11.0429 19ZM12.5495 4.89189C12.5495 7.04133 10.7509 8.78379 8.53229 8.78379C6.31364 8.78379 4.51507 7.04133 4.51507 4.89189C4.51507 2.74246 6.31364 1 8.53229 1C10.7509 1 12.5495 2.74246 12.5495 4.89189Z" stroke="white" stroke-width="2" stroke-linecap="round" stroke-linejoin="round"/>
</svg>
