<svg width="64" height="64" viewBox="0 0 64 64" fill="none" xmlns="http://www.w3.org/2000/svg">
<circle cx="32" cy="32" r="32" transform="matrix(-1 0 0 1 64 0)" fill="#0F3966"/>
<path d="M52.6532 33.5938C51.6082 32.1661 50.555 30.7446 49.5182 29.3106C49.3997 29.1457 49.3139 28.9203 49.3006 28.7178C49.0146 24.2478 47.5284 20.3027 44.3883 17.1028C41.8642 14.5313 38.8089 12.9699 35.3134 12.3009C34.6545 12.1747 31.5727 11.6956 28.7391 12.2947C23.5437 13.3926 19.6743 16.2794 17.1176 21.0124C16.7621 21.6699 16.4852 22.3723 16.1747 23.0538C16.1543 23.0977 16.1502 23.1488 16.1298 23.2313C16.5598 23.2313 16.9643 23.2313 17.3688 23.2313C19.1534 23.2313 20.9369 23.2386 22.7214 23.2208C22.9104 23.2187 23.1413 23.1227 23.2792 22.9902C23.8829 22.4109 24.4641 21.8077 25.0423 21.2013C25.3538 20.8747 25.7073 20.7077 26.1618 20.7202C26.9004 20.74 27.6399 20.715 28.3795 20.7306C28.6287 20.7359 28.7523 20.668 28.8596 20.4186C29.5103 18.9 30.9158 18.0735 32.5145 18.2373C34.0876 18.398 35.294 19.4928 35.6597 21.0907C36.198 23.4379 34.344 25.6776 31.9802 25.5378C30.5073 25.4501 29.4643 24.7164 28.8586 23.3471C28.7574 23.1185 28.64 23.0413 28.404 23.0486C27.7594 23.0455 26.6716 23.0371 26.5132 23.1196C25.9667 23.3471 25.5765 23.9691 25.124 24.4242C23.8543 25.7016 24.2036 25.5722 22.4017 25.5743C20.2229 25.5764 18.043 25.5868 15.8642 25.5639C15.4903 25.5597 15.3504 25.6755 15.3075 26.0356C15.2217 26.7547 15.1093 27.4706 15 28.2377C15.2023 28.2471 15.3371 28.2586 15.4709 28.2586C22.225 28.2597 28.9791 28.2586 35.7332 28.2628C35.9794 28.2628 36.1336 28.2294 36.2521 27.9507C36.9457 26.3236 38.5975 25.4699 40.2564 25.8477C42.0389 26.2537 43.1482 27.67 43.1237 29.5079C43.1002 31.2832 41.9316 32.6775 40.1808 33.0209C38.5117 33.3475 36.9324 32.5105 36.248 30.9137C36.1469 30.6789 36.0458 30.5808 35.7812 30.5818C28.976 30.5902 22.1709 30.5881 15.3657 30.5881C15.2789 30.5881 15.191 30.5881 15.0163 30.5881C15.094 31.2216 15.1451 31.8227 15.2441 32.4155C15.3933 33.3058 15.4076 33.3027 16.2881 33.3027C18.6334 33.3027 20.9778 33.311 23.3231 33.2964C23.8053 33.2933 24.1801 33.4498 24.5111 33.8005C25.0862 34.41 25.6725 35.008 26.2722 35.5914C26.3937 35.7094 26.5949 35.7908 26.7635 35.7991C27.2977 35.8252 27.834 35.7949 28.3682 35.8148C28.6318 35.8242 28.7625 35.7448 28.8749 35.4839C29.5011 34.0186 30.9342 33.1597 32.4307 33.3183C34.0774 33.4926 35.2715 34.5394 35.6464 36.1373C36.0764 37.971 35.1101 39.7943 33.3776 40.4184C31.5972 41.0592 29.7197 40.3036 28.9321 38.5857C28.7677 38.2277 28.5858 38.1265 28.2222 38.1432C27.5449 38.1578 26.8718 38.1463 26.1966 38.1547C25.7512 38.1599 25.3845 38.0127 25.0709 37.6808C24.4866 37.063 23.8911 36.4556 23.2843 35.8607C23.1689 35.7469 22.985 35.6426 22.8318 35.6415C20.6785 35.6279 18.5241 35.6321 16.3708 35.6332C16.2983 35.6332 16.2258 35.6509 16.1196 35.6645C16.5455 36.8501 17.1012 37.9407 17.759 38.976C18.5252 40.1825 19.422 41.2794 20.464 42.2479C20.6417 42.4139 20.6734 42.5662 20.6172 42.7927C19.9982 45.2965 19.4118 47.8086 18.7611 50.303C18.4894 51.3435 19.1942 52.0062 20.0462 52C25.2323 51.9655 30.4194 51.9822 35.6065 51.9822C36.4728 51.9822 36.8017 51.7276 37.0141 50.877C37.3247 49.635 37.6291 48.391 37.9468 47.1072C38.6547 47.2064 39.3442 47.2993 40.0327 47.4005C41.8693 47.6698 43.7049 47.9495 45.5436 48.2114C46.1596 48.2991 46.6764 47.891 46.846 47.2064C47.2117 45.7213 47.5702 44.234 47.9318 42.7478C48.318 41.1615 48.7 39.573 49.1004 37.9898C49.1423 37.8238 49.2751 37.6454 49.4161 37.5462C50.3814 36.8689 51.361 36.2134 52.3345 35.5476C53.0955 35.0268 53.2068 34.3505 52.6532 33.5938Z" fill="white"/>
<path d="M33.4706 21.8818C33.4686 21.1596 32.8649 20.5365 32.1641 20.5323C31.4245 20.5282 30.828 21.1345 30.8321 21.8881C30.8351 22.6531 31.4174 23.2375 32.1702 23.2313C32.8771 23.226 33.4726 22.6071 33.4706 21.8818Z" fill="white"/>
<path d="M40.8498 29.44C40.855 28.7011 40.2676 28.0874 39.5515 28.0833C38.7956 28.0791 38.2185 28.6677 38.2236 29.44C38.2277 30.1915 38.7946 30.7738 39.5321 30.7853C40.2329 30.7968 40.8447 30.1717 40.8498 29.44Z" fill="white"/>
<path d="M33.4706 36.9722C33.4686 36.2354 32.8751 35.6332 32.1539 35.6363C31.4062 35.6394 30.8454 36.202 30.8331 36.9607C30.8208 37.7257 31.4 38.3154 32.1621 38.3133C32.8822 38.3123 33.4737 37.7059 33.4706 36.9722Z" fill="white"/>
</svg>
