<svg width="22" height="20" viewBox="0 0 22 20" fill="none" xmlns="http://www.w3.org/2000/svg">
<path d="M7 19V5C7 4.07003 7 3.60504 7.10222 3.22354C7.37962 2.18827 8.18827 1.37962 9.22354 1.10222C9.60504 1 10.07 1 11 1C11.93 1 12.395 1 12.7765 1.10222C13.8117 1.37962 14.6204 2.18827 14.8978 3.22354C15 3.60504 15 4.07003 15 5V11.5M15 15.5V19M5.8 19H16.2C17.8802 19 18.7202 19 19.362 18.673C19.9265 18.3854 20.3854 17.9265 20.673 17.362C21 16.7202 21 15.8802 21 14.2V9.8C21 8.11984 21 7.27976 20.673 6.63803C20.3854 6.07354 19.9265 5.6146 19.362 5.32698C18.7202 5 17.8802 5 16.2 5H5.8C4.11984 5 3.27976 5 2.63803 5.32698C2.07354 5.6146 1.6146 6.07354 1.32698 6.63803C1 7.27976 1 8.11984 1 9.8V14.2C1 15.8802 1 16.7202 1.32698 17.362C1.6146 17.9265 2.07354 18.3854 2.63803 18.673C3.27976 19 4.11984 19 5.8 19ZM11.8 15.5H16.7C16.98 15.5 17.12 15.5 17.227 15.4455C17.3211 15.3976 17.3976 15.3211 17.4455 15.227C17.5 15.12 17.5 14.98 17.5 14.7V12.3C17.5 12.02 17.5 11.88 17.4455 11.773C17.3976 11.6789 17.3211 11.6024 17.227 11.5545C17.12 11.5 16.98 11.5 16.7 11.5H11.8C11.52 11.5 11.38 11.5 11.273 11.5545C11.1789 11.6024 11.1024 11.6789 11.0545 11.773C11 11.88 11 12.02 11 12.3V14.7C11 14.98 11 15.12 11.0545 15.227C11.1024 15.3211 11.1789 15.3976 11.273 15.4455C11.38 15.5 11.52 15.5 11.8 15.5Z" stroke="white" stroke-width="2" stroke-linecap="round" stroke-linejoin="round"/>
</svg>
