<svg width="22" height="18" viewBox="0 0 22 18" fill="none" xmlns="http://www.w3.org/2000/svg">
<path d="M19.2559 0.0750122H3.0809C1.7509 0.0750122 0.670898 1.16001 0.670898 2.49001V12.425C0.67222 13.0664 0.927607 13.6812 1.38116 14.1348C1.83471 14.5883 2.44948 14.8437 3.0909 14.845H5.1809V17.45C5.1809 17.63 5.2809 17.79 5.4409 17.875C5.51929 17.9148 5.60732 17.9317 5.69487 17.9237C5.78243 17.9158 5.86597 17.8833 5.9359 17.83L9.9859 14.845H19.2559C20.5859 14.845 21.6709 13.76 21.6709 12.425V2.49501C21.6709 1.16001 20.5859 0.0750122 19.2559 0.0750122ZM6.2559 8.83501C5.4009 8.83501 4.7109 8.14001 4.7109 7.28501C4.7109 6.43501 5.4009 5.74001 6.2559 5.74001C7.1109 5.74001 7.8009 6.43501 7.8009 7.28501C7.8009 7.69523 7.63828 8.08873 7.34868 8.37926C7.05908 8.6698 6.66612 8.83369 6.2559 8.83501ZM11.1709 8.83501C10.3159 8.83501 9.6259 8.14001 9.6259 7.28501C9.6259 6.43501 10.3159 5.74001 11.1709 5.74001C12.0259 5.74001 12.7159 6.43501 12.7159 7.28501C12.7159 7.69523 12.5533 8.08873 12.2637 8.37926C11.9741 8.6698 11.5811 8.83369 11.1709 8.83501ZM16.0859 8.83501C15.2309 8.83501 14.5409 8.14001 14.5409 7.28501C14.5409 6.43501 15.2309 5.74001 16.0859 5.74001C16.9409 5.74001 17.6309 6.43501 17.6309 7.28501C17.6309 7.69523 17.4683 8.08873 17.1787 8.37926C16.8891 8.6698 16.4961 8.83369 16.0859 8.83501Z" fill="white"/>
</svg>
