<svg width="14" height="14" viewBox="0 0 14 14" fill="none" xmlns="http://www.w3.org/2000/svg">
<path d="M6.57821 2.30958C7.48271 2.30958 8.22276 3.00601 8.22276 3.8572C8.22276 4.70839 7.48271 5.40482 6.57821 5.40482C5.6737 5.40482 4.93365 4.70839 4.93365 3.8572C4.93365 3.00601 5.6737 2.30958 6.57821 2.30958ZM6.57821 9.27387C8.79835 9.27387 11.3474 10.2721 11.5119 10.8215V11.5953H1.64455V10.8292C1.80901 10.2721 4.35806 9.27387 6.57821 9.27387ZM6.57821 0.761963C4.76098 0.761963 3.2891 2.14708 3.2891 3.8572C3.2891 5.56732 4.76098 6.95244 6.57821 6.95244C8.39544 6.95244 9.86731 5.56732 9.86731 3.8572C9.86731 2.14708 8.39544 0.761963 6.57821 0.761963ZM6.57821 7.72625C4.38273 7.72625 0 8.76315 0 10.8215V13.1429H13.1564V10.8215C13.1564 8.76315 8.77368 7.72625 6.57821 7.72625Z" fill="#728199"/>
</svg>
