<svg width="12" height="12" viewBox="0 0 12 12" fill="none" xmlns="http://www.w3.org/2000/svg">
<path d="M7.05673 5.99872L11.7783 1.28464C11.9194 1.14351 11.9987 0.952105 11.9987 0.752523C11.9987 0.552942 11.9194 0.361535 11.7783 0.220409C11.6372 0.0792835 11.4458 0 11.2462 0C11.0466 0 10.8552 0.0792835 10.7141 0.220409L6 4.94199L1.28592 0.220409C1.14479 0.0792835 0.953384 1.77197e-07 0.753802 1.78684e-07C0.554221 1.80171e-07 0.362814 0.0792835 0.221688 0.220409C0.0805626 0.361535 0.0012792 0.552942 0.0012792 0.752523C0.0012792 0.952105 0.0805626 1.14351 0.221688 1.28464L4.94327 5.99872L0.221688 10.7128C0.151443 10.7825 0.0956875 10.8654 0.0576386 10.9567C0.0195897 11.048 0 11.146 0 11.2449C0 11.3439 0.0195897 11.4418 0.0576386 11.5331C0.0956875 11.6245 0.151443 11.7074 0.221688 11.777C0.29136 11.8473 0.37425 11.903 0.465579 11.9411C0.556907 11.9791 0.654865 11.9987 0.753802 11.9987C0.85274 11.9987 0.950698 11.9791 1.04203 11.9411C1.13335 11.903 1.21625 11.8473 1.28592 11.777L6 7.05545L10.7141 11.777C10.7838 11.8473 10.8666 11.903 10.958 11.9411C11.0493 11.9791 11.1473 11.9987 11.2462 11.9987C11.3451 11.9987 11.4431 11.9791 11.5344 11.9411C11.6257 11.903 11.7086 11.8473 11.7783 11.777C11.8486 11.7074 11.9043 11.6245 11.9424 11.5331C11.9804 11.4418 12 11.3439 12 11.2449C12 11.146 11.9804 11.048 11.9424 10.9567C11.9043 10.8654 11.8486 10.7825 11.7783 10.7128L7.05673 5.99872Z" fill="#FF4E4E"/>
</svg>
