<svg width="24" height="25" viewBox="0 0 24 25" fill="none" xmlns="http://www.w3.org/2000/svg">
<g id="receipt">
<path id="Vector" d="M19.5 4.36243L18 2.86523L16.5 4.36243L15 2.86523L13.5 4.36243L12 2.86523L10.5 4.36243L9 2.86523L7.5 4.36243L6 2.86523L4.5 4.36243L3 2.86523V22.8278L4.5 21.3306L6 22.8278L7.5 21.3306L9 22.8278L10.5 21.3306L12 22.8278L13.5 21.3306L15 22.8278L16.5 21.3306L18 22.8278L19.5 21.3306L21 22.8278V2.86523L19.5 4.36243ZM19 19.9233H5V5.76979H19V19.9233ZM6 15.8409H18V17.8372H6V15.8409ZM6 11.8484H18V13.8446H6V11.8484ZM6 7.85588H18V9.85213H6V7.85588Z" fill="#202632"/>
</g>
</svg>
