<svg width="18" height="19" viewBox="0 0 18 19" fill="none" xmlns="http://www.w3.org/2000/svg">
<ellipse cx="9" cy="10.4706" rx="9" ry="8.47059" fill="#332525"/>
<circle cx="9" cy="9" r="9" fill="#FF5050"/>
<path d="M10.0029 10.8799H8.34766L8.17188 3.39453H10.1641L10.0029 10.8799ZM9.18262 14.1172C8.97754 14.1172 8.78711 14.0659 8.61133 13.9634C8.43555 13.8608 8.29639 13.7217 8.19385 13.5459C8.09131 13.3701 8.04004 13.1797 8.04004 12.9746C8.04004 12.7744 8.09131 12.5889 8.19385 12.418C8.29639 12.2422 8.43555 12.103 8.61133 12.0005C8.78711 11.8979 8.97754 11.8467 9.18262 11.8467C9.37793 11.8467 9.56104 11.8979 9.73193 12.0005C9.90771 12.103 10.0469 12.2422 10.1494 12.418C10.2568 12.5889 10.3105 12.7744 10.3105 12.9746C10.3105 13.1797 10.2568 13.3701 10.1494 13.5459C10.0469 13.7217 9.90771 13.8608 9.73193 13.9634C9.56104 14.0659 9.37793 14.1172 9.18262 14.1172Z" fill="white"/>
</svg>
