<svg width="24" height="22" viewBox="0 0 24 22" fill="none" xmlns="http://www.w3.org/2000/svg">
<path d="M20.4 6.11111H19.2V0H4.8V6.11111H3.6C1.608 6.11111 0 7.74889 0 9.77778V17.1111H4.8V22H19.2V17.1111H24V9.77778C24 7.74889 22.392 6.11111 20.4 6.11111ZM7.2 2.44444H16.8V6.11111H7.2V2.44444ZM16.8 19.5556H7.2V14.6667H16.8V19.5556ZM19.2 14.6667V12.2222H4.8V14.6667H2.4V9.77778C2.4 9.10556 2.94 8.55556 3.6 8.55556H20.4C21.06 8.55556 21.6 9.10556 21.6 9.77778V14.6667H19.2Z" fill="#4E5968"/>
<path d="M19.2 11.6111C19.8627 11.6111 20.4 11.0639 20.4 10.3889C20.4 9.71387 19.8627 9.16667 19.2 9.16667C18.5373 9.16667 18 9.71387 18 10.3889C18 11.0639 18.5373 11.6111 19.2 11.6111Z" fill="#4E5968"/>
</svg>
