<svg width="47" height="54" viewBox="0 0 47 54" fill="none" xmlns="http://www.w3.org/2000/svg">
<g id="Group">
<path id="Vector" d="M46.1483 53.7902H41.392V24.8614H30.8089V43.9239H17.5267V7.63262H4.91454V53.7902H0V51.4632H2.58758V5.30566H19.8536V41.5969H28.482V22.5345H43.7189V51.4632H46.1483V53.7902Z" fill="#333D4B"/>
<path id="Vector_2" d="M29.6455 30.9673H18.6902V33.2942H29.6455V30.9673Z" fill="#333D4B"/>
<path id="Vector_3" d="M38.5252 27.793H33.6758V30.1199H38.5252V27.793Z" fill="#333D4B"/>
<path id="Vector_4" d="M38.5252 32.5312H33.6758V34.8582H38.5252V32.5312Z" fill="#333D4B"/>
<path id="Vector_5" d="M38.5252 37.2593H33.6758V39.5862H38.5252V37.2593Z" fill="#333D4B"/>
<path id="Vector_6" d="M38.5252 41.9971H33.6758V44.324H38.5252V41.9971Z" fill="#333D4B"/>
<path id="Vector_7" d="M38.5252 46.7256H33.6758V49.0525H38.5252V46.7256Z" fill="#333D4B"/>
<path id="Vector_8" d="M38.5252 51.4629H33.6758V53.7899H38.5252V51.4629Z" fill="#333D4B"/>
<path id="Vector_9" d="M29.6548 53.7898H27.3279V50.2249H21.0171V53.7898H18.6902V47.8979H29.6548V53.7898Z" fill="#333D4B"/>
<path id="Vector_10" d="M12.3887 10.6206H10.0618V13.8225H12.3887V10.6206Z" fill="#333D4B"/>
<path id="Vector_11" d="M12.3887 17.2568H10.0618V20.4587H12.3887V17.2568Z" fill="#333D4B"/>
<path id="Vector_12" d="M12.3887 23.8931H10.0618V27.0949H12.3887V23.8931Z" fill="#333D4B"/>
<path id="Vector_13" d="M12.3887 30.5293H10.0618V33.7312H12.3887V30.5293Z" fill="#333D4B"/>
<path id="Vector_14" d="M12.3887 37.1665H10.0618V40.3684H12.3887V37.1665Z" fill="#333D4B"/>
<path id="Vector_15" d="M12.3887 43.812H10.0618V47.0139H12.3887V43.812Z" fill="#333D4B"/>
<path id="Vector_16" d="M12.3887 50.4487H10.0618V53.6506H12.3887V50.4487Z" fill="#333D4B"/>
<path id="Vector_17" d="M12.3887 0H10.0618V6.46896H12.3887V0Z" fill="#333D4B"/>
</g>
</svg>
