<svg width="11" height="12" viewBox="0 0 11 12" fill="none" xmlns="http://www.w3.org/2000/svg">
<path d="M6.24675 4.80836C4.1995 5.61327 2.26306 3.78765 2.85799 1.7579C3.08546 0.970491 3.72122 0.334734 4.50863 0.107261C6.54421 -0.481835 8.364 1.4546 7.55909 3.49602C7.32579 4.09095 6.84168 4.57506 6.24675 4.80836ZM3.69206 6.16737H2.91632C1.30651 6.16737 0 7.47388 0 9.08368V12H4.08284L4.89358 7.96382L3.69789 6.16737H3.69206ZM7.58242 6.16737H6.80668L5.61099 7.96382L6.42173 12H10.5046V9.08368C10.5046 7.47388 9.19806 6.16737 7.58826 6.16737H7.58242Z" fill="white"/>
</svg>
