<svg width="18" height="18" viewBox="0 0 18 18" fill="none" xmlns="http://www.w3.org/2000/svg">
<path d="M16.182 3.99846L11.3077 0.709712C9.906 -0.236571 8.09325 -0.236571 6.693 0.709712L1.818 3.99846C0.6795 4.76628 0 6.04474 0 7.41692V13.8759C0 16.1494 1.851 18 4.125 18H13.875C16.149 18 18 16.1494 18 13.8759V7.41692C18 6.04474 17.3205 4.76703 16.182 3.99846ZM15.75 13.8759C15.75 14.91 14.9093 15.7505 13.875 15.7505H12.75C12.75 13.6802 11.0708 12.0014 9 12.0014C6.92925 12.0014 5.25 13.6802 5.25 15.7505H4.125C3.09075 15.7505 2.25 14.91 2.25 13.8759V7.41692C2.25 6.79307 2.559 6.2127 3.0765 5.86328L7.95225 2.57454C8.27025 2.35933 8.6355 2.25136 9 2.25136C9.3645 2.25136 9.7305 2.35933 10.0485 2.57454L14.9235 5.86328C15.4403 6.2127 15.75 6.79307 15.75 7.41692V13.8759ZM11.25 8.25223C11.25 9.4932 10.2413 10.5017 9 10.5017C7.75875 10.5017 6.75 9.4932 6.75 8.25223C6.75 7.01127 7.75875 6.00275 9 6.00275C10.2413 6.00275 11.25 7.01127 11.25 8.25223Z" fill="white"/>
</svg>
