<svg width="25" height="25" viewBox="0 0 25 25" fill="none" xmlns="http://www.w3.org/2000/svg">
<g id="refresh">
<path id="Vector" d="M9.03674 6.57265C7.537 7.43852 6.36788 8.86511 5.88483 10.6679C4.91874 14.2734 7.05874 17.968 10.6643 18.9341C14.2698 19.9002 17.9704 17.7706 18.9365 14.1651C19.7518 11.1224 18.3514 8.0281 15.7317 6.54802L15.2771 8.24474C16.9985 9.42292 17.8755 11.5989 17.305 13.7279C16.5816 16.428 13.7993 18.0343 11.0992 17.3108C8.39916 16.5874 6.79281 13.8051 7.51629 11.105C7.87913 9.75091 8.76547 8.69445 9.89067 8.0517L11.8135 11.3822L13.3435 5.67205L7.63343 4.14204L9.03674 6.57265Z" fill="#747B90"/>
</g>
</svg>
