<svg width="24" height="24" viewBox="0 0 24 24" fill="none" xmlns="http://www.w3.org/2000/svg">
<path d="M7.0494 11.0119C8.1112 11.0119 8.97196 10.1397 8.97196 9.06369C8.97196 7.98772 8.1112 7.11548 7.0494 7.11548C5.9876 7.11548 5.12684 7.98772 5.12684 9.06369C5.12684 10.1397 5.9876 11.0119 7.0494 11.0119Z" fill="white"/>
<path d="M20.251 9.19357C19.8665 8.93381 19.2256 9.19357 19.2256 9.7131V11.0119C18.713 10.882 18.2003 10.6223 17.8158 10.1027L15.8932 7.76488L17.8158 5.42702C18.2003 5.03738 18.713 4.64774 19.2256 4.51786V5.81667C19.2256 6.33619 19.8665 6.59595 20.251 6.33619L23.7116 3.73857C24.0961 3.47881 24.0961 2.95929 23.7116 2.69952L20.251 0.101906C19.8665 -0.157856 19.2256 0.101906 19.2256 0.62143V1.92024C17.9439 2.05012 16.6622 2.69953 15.765 3.73857L14.0988 5.81667L12.4326 3.73857C11.4072 2.56964 9.99733 1.92024 8.45928 1.92024H3.84513C1.66622 1.92024 0 3.60869 0 5.81667V20.1036C0 22.3116 1.66622 24 3.84513 24H19.2256C21.4045 24 23.0708 22.3116 23.0708 20.1036V18.8048C23.0708 18.0255 22.5581 17.506 21.7891 17.506C21.02 17.506 20.5073 18.0255 20.5073 18.8048V20.1036C20.5073 20.8829 19.9947 21.4024 19.2256 21.4024H17.8158L10.2537 14.3888C8.71562 12.9601 6.40855 12.9601 4.87049 14.5187L2.56342 16.9864V5.81667C2.56342 5.03738 3.0761 4.51786 3.84513 4.51786H8.45928C9.2283 4.51786 9.86916 4.9075 10.3818 5.42702L15.765 11.7912C16.6622 12.8302 17.9439 13.4796 19.2256 13.6095V14.9083C19.2256 15.4279 19.8665 15.6876 20.251 15.4279L23.7116 12.8302C24.0961 12.5705 24.0961 12.051 23.7116 11.7912L20.251 9.19357ZM6.79306 16.337C7.30574 15.8175 8.07477 15.8175 8.58745 16.337L14.0988 21.5323H3.84513C3.33244 21.5323 2.81976 21.1426 2.69159 20.6231C2.81976 20.6231 2.81976 20.4932 2.94793 20.4932L6.79306 16.337Z" fill="white"/>
</svg>
