<svg width="19" height="24" viewBox="0 0 19 24" fill="none" xmlns="http://www.w3.org/2000/svg">
<path fill-rule="evenodd" clip-rule="evenodd" d="M9.5 2.18182C5.47647 2.18182 2.23529 5.34545 2.23529 9.27273C2.23529 11.7818 3.57647 13.9636 5.47647 15.2727H13.5235C15.5353 13.9636 16.7647 11.7818 16.7647 9.27273C16.7647 5.34545 13.5235 2.18182 9.5 2.18182ZM12.7412 17.4545H6.25882V18.5455H12.6294V17.4545H12.7412ZM11.4 20.7273H7.48823C7.82353 21.3818 8.60588 21.8182 9.38824 21.8182C10.1706 21.8182 11.0647 21.3818 11.4 20.7273ZM5.14118 20.7273C5.58824 22.5818 7.37647 24 9.5 24C11.6235 24 13.3 22.5818 13.8588 20.7273C14.4176 20.7273 14.9765 20.1818 14.9765 19.6364V16.9091C17.4353 15.2727 19 12.4364 19 9.27273C19 4.14545 14.7529 0 9.5 0C4.24706 0 0 4.14545 0 9.27273C0 12.4364 1.56471 15.2727 4.02353 16.9091V19.6364C4.02353 20.1818 4.58235 20.7273 5.14118 20.7273Z" fill="white"/>
</svg>
