<svg width="24" height="24" viewBox="0 0 24 24" fill="none" xmlns="http://www.w3.org/2000/svg">
<path d="M16.5001 24C16.1312 23.9995 15.7754 23.8631 15.5007 23.6168C15.226 23.3706 15.0517 23.0317 15.0111 22.665C14.922 21.9296 14.5667 21.2523 14.0123 20.7611C13.458 20.2698 12.7429 19.9985 12.0021 19.9985C11.2614 19.9985 10.5463 20.2698 9.99188 20.7611C9.43749 21.2523 9.0822 21.9296 8.99311 22.665C8.94935 23.0604 8.7503 23.4223 8.43974 23.671C8.12918 23.9196 7.73255 24.0348 7.33711 23.991C6.94167 23.9472 6.57982 23.7482 6.33114 23.4376C6.08247 23.1271 5.96735 22.7304 6.01111 22.335C6.18122 20.8654 6.88558 19.5095 7.99021 18.5254C9.09484 17.5412 10.5227 16.9975 12.0021 16.9975C13.4816 16.9975 14.9094 17.5412 16.014 18.5254C17.1186 19.5095 17.823 20.8654 17.9931 22.335C18.0148 22.5308 17.9977 22.729 17.9428 22.9182C17.8879 23.1073 17.7962 23.2839 17.6731 23.4377C17.55 23.5914 17.3978 23.7194 17.2252 23.8144C17.0525 23.9093 16.8629 23.9693 16.6671 23.991C16.6116 23.997 16.5559 24 16.5001 24ZM22.6671 14.991C22.8629 14.9693 23.0525 14.9093 23.2252 14.8144C23.3978 14.7194 23.55 14.5914 23.6731 14.4377C23.7962 14.2839 23.8879 14.1073 23.9428 13.9182C23.9977 13.729 24.0148 13.5308 23.9931 13.335C23.8788 11.9314 23.2589 10.6169 22.2487 9.63573C21.2385 8.65456 19.9065 8.07334 18.5001 8C18.1023 8 17.7208 8.15804 17.4395 8.43934C17.1581 8.72065 17.0001 9.10218 17.0001 9.5C17.0001 9.89783 17.1581 10.2794 17.4395 10.5607C17.7208 10.842 18.1023 11 18.5001 11C19.1658 11.0761 19.783 11.3855 20.2423 11.8733C20.7016 12.3612 20.9733 12.9959 21.0091 13.665C21.0497 14.032 21.2243 14.3712 21.4994 14.6175C21.7745 14.8638 22.1308 15 22.5001 15C22.5552 14.9999 22.6103 14.9969 22.6651 14.991H22.6671ZM2.99111 13.665C3.02696 12.9959 3.29861 12.3612 3.7579 11.8733C4.21719 11.3855 4.83442 11.0761 5.50011 11C5.89794 11 6.27947 10.842 6.56077 10.5607C6.84208 10.2794 7.00011 9.89783 7.00011 9.5C7.00011 9.10218 6.84208 8.72065 6.56077 8.43934C6.27947 8.15804 5.89794 8 5.50011 8C4.09409 8.0738 2.76259 8.65523 1.75277 9.63636C0.742949 10.6175 0.123397 11.9317 0.00911268 13.335C-0.0125692 13.5308 0.00453101 13.729 0.0594367 13.9182C0.114342 14.1073 0.205978 14.2839 0.329111 14.4377C0.452244 14.5914 0.604462 14.7194 0.777073 14.8144C0.949684 14.9093 1.13931 14.9693 1.33511 14.991C1.38991 14.9969 1.44499 14.9999 1.50011 15C1.86939 15 2.22569 14.8638 2.5008 14.6175C2.77591 14.3712 2.95049 14.032 2.99111 13.665ZM12.0771 16C12.7693 16 13.446 15.7947 14.0216 15.4101C14.5972 15.0256 15.0458 14.4789 15.3107 13.8394C15.5756 13.1999 15.6449 12.4961 15.5099 11.8172C15.3748 11.1383 15.0415 10.5146 14.552 10.0251C14.0625 9.53564 13.4389 9.2023 12.7599 9.06725C12.081 8.93221 11.3773 9.00152 10.7377 9.26642C10.0982 9.53133 9.55155 9.97993 9.16697 10.5555C8.78238 11.1311 8.57711 11.8078 8.57711 12.5C8.57711 13.4283 8.94586 14.3185 9.60224 14.9749C10.2586 15.6313 11.1489 16 12.0771 16ZM18.0771 7C18.7693 7 19.446 6.79473 20.0216 6.41015C20.5972 6.02556 21.0458 5.47894 21.3107 4.83939C21.5756 4.19985 21.6449 3.49612 21.5099 2.81719C21.3748 2.13825 21.0415 1.51461 20.552 1.02513C20.0625 0.535644 19.4389 0.202301 18.7599 0.0672531C18.081 -0.0677952 17.3773 0.00151652 16.7377 0.266423C16.0982 0.53133 15.5516 0.979934 15.167 1.55551C14.7824 2.13108 14.5771 2.80777 14.5771 3.5C14.5771 3.95963 14.6676 4.41475 14.8435 4.83939C15.0194 5.26403 15.2772 5.64987 15.6022 5.97487C15.9272 6.29988 16.3131 6.55769 16.7377 6.73358C17.1624 6.90947 17.6175 7 18.0771 7ZM6.07711 7C6.76935 7 7.44604 6.79473 8.02161 6.41015C8.59718 6.02556 9.04578 5.47894 9.31069 4.83939C9.5756 4.19985 9.64491 3.49612 9.50986 2.81719C9.37481 2.13825 9.04147 1.51461 8.55199 1.02513C8.0625 0.535644 7.43886 0.202301 6.75993 0.0672531C6.081 -0.0677952 5.37726 0.00151652 4.73772 0.266423C4.09818 0.53133 3.55155 0.979934 3.16697 1.55551C2.78238 2.13108 2.57711 2.80777 2.57711 3.5C2.57711 4.42826 2.94586 5.3185 3.60224 5.97487C3.92724 6.29988 4.31308 6.55769 4.73772 6.73358C5.16236 6.90947 5.61749 7 6.07711 7Z" fill="white"/>
</svg>
