<svg width="24" height="18" viewBox="0 0 24 18" fill="none" xmlns="http://www.w3.org/2000/svg">
<path fill-rule="evenodd" clip-rule="evenodd" d="M5.54203 4.59106C3.87325 6.04124 2.75554 7.7415 2.2057 8.6971C2.09463 8.8902 2.09463 9.1098 2.2057 9.3029C2.75554 10.2585 3.87325 11.9588 5.54203 13.4089C7.20547 14.8545 9.35309 16 12 16C14.647 16 16.7945 14.8545 18.4579 13.4089C20.1268 11.9588 21.2444 10.2585 21.7944 9.3029C21.9054 9.1098 21.9054 8.8902 21.7944 8.6971C21.2444 7.7415 20.1268 6.04124 18.4579 4.59105C16.7945 3.1455 14.647 2 12 2C9.35309 2 7.20547 3.1455 5.54203 4.59106ZM4.10318 3.1208C6.01548 1.45899 8.65279 0 12 0C15.3473 0 17.9845 1.45899 19.8968 3.1208C21.8038 4.77798 23.0526 6.68799 23.6602 7.7438C24.1133 8.5315 24.1133 9.4685 23.6602 10.2562C23.0526 11.312 21.8038 13.222 19.8968 14.8792C17.9845 16.541 15.3473 18 12 18C8.65279 18 6.01548 16.541 4.10318 14.8792C2.19623 13.222 0.947399 11.312 0.339905 10.2562C-0.113301 9.4685 -0.113302 8.5315 0.339905 7.7438C0.947399 6.688 2.19623 4.77798 4.10318 3.1208ZM12 6.5C10.5348 6.5 9.34701 7.6193 9.34701 9C9.34701 10.3807 10.5348 11.5 12 11.5C13.4652 11.5 14.653 10.3807 14.653 9C14.653 7.6193 13.4652 6.5 12 6.5ZM7.22461 9C7.22461 6.51472 9.36263 4.5 12 4.5C14.6374 4.5 16.7754 6.51472 16.7754 9C16.7754 11.4853 14.6374 13.5 12 13.5C9.36263 13.5 7.22461 11.4853 7.22461 9Z" fill="white"/>
</svg>
