<svg width="18" height="18" viewBox="0 0 18 18" fill="none" xmlns="http://www.w3.org/2000/svg">
<path d="M12.6729 0.914213C13.8918 -0.304738 15.8682 -0.304738 17.0871 0.914213C18.3061 2.13316 18.3061 4.10947 17.0871 5.32842L11.1499 11.2656C10.3849 12.0306 9.3925 12.5268 8.3215 12.6798L6.14142 12.9912C5.82983 13.0357 5.51546 12.931 5.29289 12.7084C5.07033 12.4858 4.96554 12.1714 5.01005 11.8599L5.32149 9.67984C5.47449 8.60884 5.97072 7.61634 6.7357 6.8514L12.6729 0.914213ZM15.6729 2.32842C15.235 1.89052 14.525 1.89052 14.0871 2.32842L8.1499 8.26564C7.6909 8.72464 7.3932 9.32004 7.3014 9.96264L7.1785 10.8228L8.0386 10.6999C8.6812 10.6081 9.2767 10.3104 9.7357 9.85144L15.6729 3.91421C16.1108 3.47631 16.1108 2.76633 15.6729 2.32842ZM8 1.00063C8.0004 1.55291 7.5531 2.00097 7.0008 2.00141C6.00227 2.00218 5.29769 2.00961 4.74651 2.06198C4.20685 2.11325 3.88488 2.20251 3.63803 2.32829C3.07354 2.61591 2.6146 3.07485 2.32698 3.63933C2.19279 3.90269 2.10062 4.25038 2.05118 4.85554C2.00078 5.47239 2 6.2647 2 7.40134V10.6013C2 11.7379 2.00078 12.5302 2.05118 13.147C2.10062 13.7522 2.19279 14.0999 2.32698 14.3632C2.6146 14.9277 3.07354 15.3867 3.63803 15.6743C3.90138 15.8085 4.24907 15.9006 4.85424 15.9501C5.47108 16.0005 6.26339 16.0013 7.4 16.0013H10.6C11.7366 16.0013 12.5289 16.0005 13.1458 15.9501C13.7509 15.9006 14.0986 15.8085 14.362 15.6743C14.9265 15.3867 15.3854 14.9277 15.673 14.3632C15.7988 14.1164 15.8881 13.7944 15.9393 13.2548C15.9917 12.7036 15.9991 11.999 15.9999 11.0005C16.0003 10.4482 16.4484 10.0008 17.0007 10.0013C17.553 10.0017 18.0003 10.4498 17.9999 11.002C17.9991 11.9802 17.9932 12.7821 17.9304 13.4439C17.8664 14.1173 17.7385 14.7149 17.455 15.2712C16.9757 16.212 16.2108 16.9769 15.27 17.4563C14.6777 17.7581 14.0375 17.8839 13.3086 17.9434C12.6008 18.0013 11.7266 18.0013 10.6428 18.0013H7.3572C6.27339 18.0013 5.39925 18.0013 4.69138 17.9434C3.96253 17.8839 3.32234 17.7581 2.73005 17.4563C1.78924 16.9769 1.02433 16.212 0.54497 15.2712C0.24318 14.6789 0.11737 14.0387 0.0578203 13.3099C-1.96546e-05 12.602 -9.73709e-06 11.7279 2.62912e-07 10.6441V7.35854C-9.73709e-06 6.27471 -1.96546e-05 5.40056 0.0578203 4.69268C0.11737 3.96383 0.24318 3.32364 0.54497 2.73135C1.02433 1.79054 1.78924 1.02564 2.73005 0.546273C3.28633 0.262833 3.88399 0.134923 4.55735 0.0709527C5.21919 0.00807271 6.02103 0.00217269 6.99922 0.00141269C7.5515 0.00098269 7.9996 0.448343 8 1.00063Z" fill="#999999"/>
</svg>
