<svg width="28" height="28" viewBox="0 0 28 28" fill="none" xmlns="http://www.w3.org/2000/svg">
<g id="hide" clip-path="url(#clip0_5054_5077)">
<path id="Hide" d="M17.4762 14.2359L19.0665 12.6456C19.1822 13.0785 19.25 13.5311 19.25 14.0001C19.25 16.895 16.8949 19.2501 14 19.2501C13.531 19.2501 13.0784 19.1822 12.6455 19.0665L14.2358 17.4762C15.9747 17.3576 17.3576 15.9747 17.4762 14.2359ZM27.8898 13.575C27.7821 13.3814 26.2557 10.7068 23.2719 8.44009L21.9986 9.71343C24.1743 11.3131 25.5528 13.1789 26.0956 14.0014C25.0585 15.5805 20.9902 21.0001 14 21.0001C12.9517 21.0001 11.977 20.866 11.0598 20.652L9.62194 22.0899C10.9438 22.4952 12.3968 22.7501 14 22.7501C23.1597 22.7501 27.701 14.7648 27.8898 14.4251C28.0368 14.1606 28.0368 13.8395 27.8898 13.575ZM24.2436 4.99368L4.99362 24.2437C4.82278 24.4145 4.59878 24.5001 4.375 24.5001C4.15122 24.5001 3.92722 24.4145 3.75638 24.2437C3.41447 23.9018 3.41447 23.3481 3.75638 23.0064L6.2055 20.5573C2.24612 18.167 0.234281 14.6484 0.11025 14.4251C-0.03675 14.1606 -0.03675 13.8393 0.11025 13.5748C0.299031 13.2353 4.84028 5.25005 14 5.25005C16.3684 5.25005 18.4198 5.79037 20.1736 6.58924L23.0064 3.75643C23.3483 3.41452 23.9019 3.41452 24.2436 3.75643C24.5853 4.09834 24.5855 4.65199 24.2436 4.99368ZM7.51034 19.2525L9.72563 17.0372C9.11378 16.1788 8.75 15.1321 8.75 14.0001C8.75 11.1051 11.1051 8.75005 14 8.75005C15.132 8.75005 16.1788 9.11384 17.0371 9.72546L18.8285 7.93412C17.4132 7.36734 15.8049 7.00005 14 7.00005C7.00984 7.00005 2.94153 12.4196 1.90466 13.9987C2.56309 14.9967 4.45572 17.5228 7.51034 19.2525ZM10.9959 15.7667L15.7666 10.996C15.2462 10.6886 14.6471 10.5001 14 10.5001C12.0702 10.5001 10.5 12.0702 10.5 14.0001C10.5 14.6471 10.6886 15.2463 10.9959 15.7667Z" fill="#728199"/>
</g>
<defs>
<clipPath id="clip0_5054_5077">
<rect width="28" height="28" fill="white"/>
</clipPath>
</defs>
</svg>
