<svg width="36" height="36" viewBox="0 0 36 36" fill="none" xmlns="http://www.w3.org/2000/svg">
<g id="settings_phone">
<path id="Vector" d="M16.5 13.5H19.5V16.5H16.5V13.5ZM22.5 13.5H25.5V16.5H22.5V13.5ZM30 23.25C28.125 23.25 26.325 22.95 24.645 22.395C24.495 22.35 24.33 22.32 24.18 22.32C23.79 22.32 23.415 22.47 23.115 22.755L19.815 26.055C15.57 23.895 12.09 20.43 9.93 16.185L13.23 12.87C13.65 12.465 13.77 11.88 13.605 11.355C13.05 9.675 12.75 7.875 12.75 6C12.75 5.175 12.075 4.5 11.25 4.5H6C5.175 4.5 4.5 5.175 4.5 6C4.5 20.085 15.915 31.5 30 31.5C30.825 31.5 31.5 30.825 31.5 30V24.75C31.5 23.925 30.825 23.25 30 23.25ZM7.545 7.5H9.795C9.9 8.82 10.125 10.125 10.485 11.385L8.685 13.2C8.07 11.385 7.68 9.48 7.545 7.5ZM28.5 28.455C26.52 28.32 24.6 27.93 22.8 27.315L24.6 25.515C25.875 25.875 27.18 26.1 28.5 26.19V28.455ZM28.5 13.5H31.5V16.5H28.5V13.5Z" fill="#1C4EBA"/>
</g>
</svg>
