<svg width="35" height="30" viewBox="0 0 35 30" fill="none" xmlns="http://www.w3.org/2000/svg">
<g id="Group 2934">
<g id="Vector">
<path d="M30.9375 0H4.27083C2.42083 0 0.9375 1.48333 0.9375 3.33333V23.3333C0.9375 25.1667 2.42083 26.6667 4.27083 26.6667H10.9375V30H24.2708V26.6667H30.9375C32.7708 26.6667 34.2708 25.1667 34.2708 23.3333V3.33333C34.2708 1.48333 32.7708 0 30.9375 0ZM30.9375 23.3333H4.27083V3.33333H30.9375V23.3333Z" fill="#1C4EBA"/>
<path d="M20.9375 8.75H7.60417V11.25H20.9375V8.75Z" fill="#1C4EBA"/>
<path d="M25.1042 11.25H27.6042V8.75H25.1042V6.66667H22.6042V13.3333H25.1042V11.25Z" fill="#1C4EBA"/>
<path d="M27.6042 15.4167H14.2708V17.9167H27.6042V15.4167Z" fill="#1C4EBA"/>
<path d="M10.1042 20H12.6042V13.3333H10.1042V15.4167H7.60417V17.9167H10.1042V20Z" fill="#1C4EBA"/>
</g>
</g>
</svg>
