<svg width="38" height="34" viewBox="0 0 38 34" fill="none" xmlns="http://www.w3.org/2000/svg">
<path id="Vector" d="M16.7549 11.713L18.3298 17H23.0547L19.2513 19.754L20.8095 24.871L16.7549 21.743L12.7002 24.871L14.2584 19.754L10.455 17H15.1799L16.7549 11.713ZM12.7002 13.6H0L10.3377 21.097L6.41711 34L16.7549 26.027L27.1093 34L23.172 21.097L33.5097 13.6H20.8095L16.7549 0L12.7002 13.6ZM34.1129 34L30.9965 23.783L38 18.7H32.2363L27.0758 22.44L29.522 30.464L34.1129 34ZM26.8078 10.2L23.7584 0L22.0159 5.865L23.306 10.2H26.8078Z" fill="#1C4EBA"/>
</svg>
