<svg width="21" height="18" viewBox="0 0 21 18" fill="none" xmlns="http://www.w3.org/2000/svg">
<path fill-rule="evenodd" clip-rule="evenodd" d="M7.35719 2.62912e-07H13.6428C14.7266 -9.73709e-06 15.6007 -1.96546e-05 16.3086 0.0578203C17.0375 0.11737 17.6777 0.24318 18.27 0.54497C19.2108 1.02433 19.9757 1.78924 20.455 2.73005C20.7568 3.32234 20.8826 3.96253 20.9422 4.69138C21 5.39925 21 6.27339 21 7.3572V10.6428C21 11.7266 21 12.6008 20.9422 13.3086C20.8826 14.0375 20.7568 14.6777 20.455 15.27C19.9757 16.2108 19.2108 16.9757 18.27 17.455C17.6777 17.7568 17.0375 17.8826 16.3086 17.9422C15.6008 18 14.7266 18 13.6428 18H7.35717C6.27339 18 5.39925 18 4.69138 17.9422C3.96253 17.8826 3.32234 17.7568 2.73005 17.455C1.78924 16.9757 1.02433 16.2108 0.54497 15.27C0.24318 14.6777 0.11737 14.0375 0.0578202 13.3086C-1.97738e-05 12.6007 -9.73703e-06 11.7266 2.62973e-07 10.6428V7.3572C-9.73703e-06 6.27341 -1.97738e-05 5.39926 0.0578202 4.69138C0.11737 3.96253 0.24318 3.32234 0.54497 2.73005C1.02433 1.78924 1.78924 1.02433 2.73005 0.54497C3.32234 0.24318 3.96253 0.11737 4.69138 0.0578203C5.39926 -1.96546e-05 6.27341 -9.73709e-06 7.35719 2.62912e-07ZM4.85424 2.05118C4.24907 2.10062 3.90138 2.19279 3.63803 2.32698C3.07354 2.6146 2.6146 3.07354 2.32698 3.63803C2.19279 3.90138 2.10062 4.24907 2.05118 4.85424C2.00078 5.47108 2 6.26339 2 7.4V10.6C2 11.7366 2.00078 12.5289 2.05118 13.1458C2.10062 13.7509 2.19279 14.0986 2.32698 14.362C2.6146 14.9265 3.07354 15.3854 3.63803 15.673C3.90138 15.8072 4.24907 15.8994 4.85424 15.9488C5.47108 15.9992 6.26339 16 7.4 16H8V2H7.4C6.26339 2 5.47108 2.00078 4.85424 2.05118ZM10 2V16H13.6C14.7366 16 15.5289 15.9992 16.1458 15.9488C16.7509 15.8994 17.0986 15.8072 17.362 15.673C17.9265 15.3854 18.3854 14.9265 18.673 14.362C18.8072 14.0986 18.8994 13.7509 18.9488 13.1458C18.9992 12.5289 19 11.7366 19 10.6V7.4C19 6.26339 18.9992 5.47108 18.9488 4.85424C18.8994 4.24907 18.8072 3.90138 18.673 3.63803C18.3854 3.07354 17.9265 2.6146 17.362 2.32698C17.0986 2.19279 16.7509 2.10062 16.1458 2.05118C15.5289 2.00078 14.7366 2 13.6 2H10ZM3.5 5.5C3.5 4.94772 3.94772 4.5 4.5 4.5H5.5C6.05229 4.5 6.5 4.94772 6.5 5.5C6.5 6.05229 6.05229 6.5 5.5 6.5H4.5C3.94772 6.5 3.5 6.05229 3.5 5.5ZM3.5 9C3.5 8.4477 3.94772 8 4.5 8H5.5C6.05229 8 6.5 8.4477 6.5 9C6.5 9.5523 6.05229 10 5.5 10H4.5C3.94772 10 3.5 9.5523 3.5 9Z" fill="#ffffff"/>
</svg>
